<?xml version="1.0" encoding="UTF-8"?>
<svg id="OBJECTS" xmlns="http://www.w3.org/2000/svg" xmlns:xlink="http://www.w3.org/1999/xlink" viewBox="0 0 629.31 304.28">
  <defs>
    <style>
      .cls-1 {
        fill: #4f6d15;
      }

      .cls-1, .cls-2, .cls-3, .cls-4, .cls-5, .cls-6, .cls-7, .cls-8, .cls-9, .cls-10, .cls-11, .cls-12, .cls-13, .cls-14, .cls-15, .cls-16, .cls-17, .cls-18, .cls-19, .cls-20, .cls-21, .cls-22, .cls-23, .cls-24, .cls-25, .cls-26, .cls-27, .cls-28, .cls-29, .cls-30, .cls-31, .cls-32, .cls-33, .cls-34, .cls-35, .cls-36, .cls-37, .cls-38, .cls-39, .cls-40, .cls-41, .cls-42, .cls-43, .cls-44, .cls-45, .cls-46, .cls-47, .cls-48, .cls-49, .cls-50, .cls-51, .cls-52, .cls-53, .cls-54, .cls-55, .cls-56, .cls-57 {
        stroke-width: 0px;
      }

      .cls-2 {
        fill: #d8b39a;
      }

      .cls-3 {
        fill: #e0ae7e;
      }

      .cls-4 {
        fill: #a67c52;
      }

      .cls-5 {
        fill: #ddbdaf;
      }

      .cls-6 {
        fill: #eacbbb;
      }

      .cls-7 {
        fill: #870606;
      }

      .cls-8 {
        fill: #efbd95;
      }

      .cls-9 {
        fill: #dc8e69;
      }

      .cls-10 {
        fill: #fdb4b1;
      }

      .cls-11 {
        fill: #492e1a;
      }

      .cls-12 {
        fill: #d8a168;
      }

      .cls-13 {
        fill: #8c6850;
      }

      .cls-14 {
        fill: #000;
      }

      .cls-15 {
        fill: #c1272d;
      }

      .cls-16 {
        fill: #754c24;
      }

      .cls-17 {
        fill: #658927;
      }

      .cls-18 {
        fill: #95dbdb;
      }

      .cls-19 {
        fill: #f4d6be;
      }

      .cls-20 {
        fill: #3535ec;
      }

      .cls-21 {
        fill: #ff0;
      }

      .cls-22 {
        fill: #cc8a4e;
      }

      .cls-23 {
        fill: #f7931e;
      }

      .cls-24 {
        fill: #bc7e46;
      }

      .cls-25, .cls-58, .cls-59, .cls-60 {
        fill: none;
      }

      .cls-26 {
        fill: #fecaa7;
      }

      .cls-58, .cls-59, .cls-60 {
        stroke-miterlimit: 10;
      }

      .cls-58, .cls-60 {
        stroke: #ffed00;
      }

      .cls-27 {
        fill: #8b70d3;
      }

      .cls-28 {
        fill: #58e888;
      }

      .cls-61 {
        clip-path: url(#clippath-1);
      }

      .cls-29 {
        fill: #fcc19f;
      }

      .cls-59 {
        stroke: #332d26;
        stroke-linecap: round;
      }

      .cls-30 {
        fill: #206e89;
      }

      .cls-31 {
        fill: #aa8ab7;
      }

      .cls-32 {
        fill: #006837;
      }

      .cls-33 {
        fill: #c3879b;
      }

      .cls-34 {
        fill: #443123;
      }

      .cls-60 {
        stroke-dasharray: 0 0 12.1 12.1;
      }

      .cls-35 {
        fill: #cc0202;
      }

      .cls-36 {
        fill: #b9f7f9;
      }

      .cls-37 {
        fill: #47cfe0;
      }

      .cls-38 {
        fill: #68503d;
      }

      .cls-39 {
        fill: #dbcfec;
      }

      .cls-62 {
        clip-path: url(#clippath);
      }

      .cls-40 {
        fill: #80ca72;
      }

      .cls-41 {
        fill: #c2f9ff;
      }

      .cls-42 {
        fill: #490a90;
      }

      .cls-43 {
        fill: #8e592d;
      }

      .cls-44 {
        fill: #ffd3b6;
      }

      .cls-45 {
        fill: #faf9e6;
      }

      .cls-46 {
        fill: #e49a6f;
      }

      .cls-47 {
        fill: #fcf1e3;
      }

      .cls-48 {
        fill: #1b1464;
      }

      .cls-49 {
        fill: #d18b69;
      }

      .cls-50 {
        fill: #f4bb87;
      }

      .cls-51 {
        fill: #b5ccde;
      }

      .cls-52 {
        fill: #d3ece7;
      }

      .cls-53 {
        fill: #302b2b;
      }

      .cls-54 {
        fill: #92a8ce;
      }

      .cls-55 {
        fill: #878787;
      }

      .cls-56 {
        fill: #ed2424;
      }

      .cls-57 {
        fill: #ccaa9b;
      }
    </style>
    <clipPath id="clippath">
      <polygon class="cls-25" points="306.64 258.32 358.54 258.32 361.24 242.55 363.46 242.93 363.91 240.29 361.69 239.91 367.19 207.77 369.42 208.15 369.87 205.51 367.64 205.13 373.15 172.99 375.37 173.37 375.82 170.73 373.6 170.35 379.1 138.21 381.33 138.59 381.78 135.95 379.55 135.57 384.81 104.86 387.04 105.24 387.49 102.6 378.96 101.14 382.52 80.33 384.19 80.62 384.73 77.43 343.7 70.41 343.6 70.39 343.05 73.57 344.72 73.86 341.15 94.67 332.72 93.23 332.62 93.21 332.17 95.85 334.39 96.23 329.14 126.94 326.91 126.56 326.46 129.19 328.68 129.57 323.18 161.72 321.06 161.35 320.96 161.34 320.5 163.97 322.73 164.35 317.22 196.5 315 196.12 314.55 198.75 316.77 199.14 311.27 231.28 309.15 230.91 309.04 230.9 308.59 233.54 310.82 233.92 306.64 258.32"/>
    </clipPath>
    <clipPath id="clippath-1">
      <rect class="cls-25" x="63.57" y="154.77" width="146.54" height="146.54"/>
    </clipPath>
  </defs>
  <g>
    <g>
      <path class="cls-41" d="M629.31,258.32c0-95.71-102.18-96.15-124.04-145.56C490.7,79.83,475.55,0,387.49,0s-95.15,109.32-227.25,86.78C28.14,64.24,6.64,190.72.07,258.32h629.24Z"/>
      <path class="cls-41" d="M20.46,109.84c-2.33,19.42,20.63,23.01,33.99,13.29.8,1.05,1.7,2.09,2.73,3.14,13.55,13.74,30.37,11.43,39.81,1.82,4.71,5.35,12.49,8.27,21.25,4.34,4.34-1.95,7.31-4.92,9.05-8.26,5.13,1.15,11.13.71,17.64-2,16.31-6.81,14.56-24.42,3.58-33.45,3.23-2.57,5.81-5.97,7.2-10.16,4.96-14.99-22.83-31.81-36.1-16.71-5.55-7.53-16.8-11.3-32.26-4-2.58,1.22-4.64,2.76-6.22,4.52-7.47-7.67-21.4-11.54-30.24-3.35-15.59-4.68-35.57,6.28-35.32,23.63-8.15.45-16.2,6.69-15.53,15.5.71,9.29,11.63,13.28,20.42,11.72Z"/>
      <path class="cls-41" d="M595.86,150.79c1.82-10.4-10.46-13-17.94-8.15-.4-.59-.86-1.18-1.38-1.77-6.91-7.8-16.05-7.04-21.42-2.13-2.39-3.02-6.5-4.82-11.33-2.95-2.4.93-4.09,2.44-5.12,4.19-2.73-.77-5.98-.71-9.57.57-8.99,3.2-8.56,12.75-2.9,17.93-1.82,1.29-3.31,3.05-4.18,5.27-3.11,7.94,11.39,17.81,18.98,10.06,2.78,4.22,8.73,6.58,17.28,3.09,1.43-.58,2.58-1.35,3.49-2.26,3.81,4.35,11.2,6.84,16.21,2.68,8.27,2.98,19.36-2.36,19.73-11.72,4.41,0,8.93-3.14,8.82-7.91-.11-5.03-5.89-7.5-10.67-6.91Z"/>
      <path class="cls-41" d="M504.1,28.7c2.18-12.49-12.55-15.61-21.54-9.78-.48-.7-1.03-1.41-1.66-2.13-8.29-9.36-19.26-8.45-25.7-2.56-2.86-3.62-7.8-5.79-13.6-3.54-2.88,1.11-4.9,2.93-6.14,5.03-3.28-.92-7.18-.85-11.49.68-10.79,3.84-10.27,15.3-3.48,21.52-2.18,1.55-3.97,3.66-5.01,6.33-3.73,9.53,13.68,21.38,22.78,12.07,3.33,5.07,10.48,7.89,20.74,3.71,1.71-.7,3.1-1.63,4.18-2.71,4.57,5.23,13.45,8.21,19.45,3.22,9.93,3.57,23.24-2.83,23.68-14.07,5.29,0,10.72-3.77,10.59-9.49-.14-6.04-7.06-9-12.81-8.29Z"/>
      <path class="cls-41" d="M251.81,17.33c1.24-7.12-7.15-8.89-12.27-5.57-.28-.4-.59-.81-.95-1.21-4.73-5.33-10.98-4.82-14.65-1.46-1.63-2.06-4.44-3.3-7.75-2.02-1.64.63-2.79,1.67-3.5,2.87-1.87-.52-4.09-.48-6.55.39-6.15,2.19-5.85,8.72-1.98,12.27-1.24.89-2.26,2.09-2.86,3.61-2.13,5.43,7.79,12.18,12.98,6.88,1.9,2.89,5.97,4.5,11.82,2.11.98-.4,1.77-.93,2.38-1.54,2.6,2.98,7.66,4.68,11.09,1.83,5.66,2.04,13.24-1.61,13.5-8.02,3.02,0,6.11-2.15,6.03-5.41-.08-3.44-4.03-5.13-7.3-4.73Z"/>
    </g>
    <g>
      <path class="cls-17" d="M124.03,204.62l-24.4,53.76h229.99l-30.33-58.39c-37.48-72.17-141.65-69.42-175.27,4.64Z"/>
      <path class="cls-17" d="M434.8,211.11l-21.45,47.26h202.21l-26.66-51.34c-32.95-63.45-124.54-61.03-154.09,4.08Z"/>
      <path class="cls-1" d="M24.22,224.56l-15.35,33.82h144.69l-19.08-36.74c-23.58-45.41-89.12-43.67-110.26,2.92Z"/>
      <path class="cls-1" d="M309.58,214.45l-19.94,43.92h187.93l-24.78-47.71c-30.63-58.97-115.75-56.72-143.22,3.79Z"/>
    </g>
    <g>
      <g>
        <rect class="cls-37" x="518.4" y="69.71" width="5.74" height="188.61"/>
        <rect class="cls-30" x="510.5" y="90.37" width="7.9" height="167.95"/>
        <rect class="cls-30" x="524.14" y="69.71" width="2.99" height="188.61"/>
        <path class="cls-30" d="M566.17,258.32h3.95c.09-4.85.63-43.38-3.95-83.37-6.45-56.31-19.6-89.19-39.09-97.83v4.25c41.23,22.03,39.26,168,39.09,176.95Z"/>
        <path class="cls-36" d="M566.17,258.32h-39.04V81.36s19.07.98,31.78,70.47c12.7,69.49,7.26,106.49,7.26,106.49Z"/>
        <g>
          <path class="cls-18" d="M556.28,138.81c-.95-4.31-1.93-8.29-2.93-11.98h-26.22v11.98h29.15Z"/>
          <path class="cls-18" d="M527.13,115.44h22.82c-1.53-4.58-3.06-8.55-4.58-11.98h-18.24v11.98Z"/>
          <path class="cls-18" d="M560.7,162.17c-.56-3.36-1.15-6.81-1.8-10.34-.1-.56-.2-1.1-.31-1.64h-31.47v11.98h33.57Z"/>
          <path class="cls-18" d="M566.47,255.61c.24-2.41.55-6.42.72-11.98h-40.07v11.98h39.35Z"/>
          <path class="cls-18" d="M567.31,232.25c-.03-3.63-.13-7.62-.32-11.98h-39.86v11.98h40.18Z"/>
          <path class="cls-18" d="M566.33,208.89c-.27-3.78-.61-7.78-1.02-11.98h-38.18v11.98h39.2Z"/>
          <path class="cls-18" d="M564.06,185.53c-.47-3.85-1-7.84-1.59-11.98h-35.34v11.98h36.93Z"/>
        </g>
        <rect class="cls-30" x="527.13" y="100.04" width="34.19" height="3.43"/>
      </g>
      <g>
        <g>
          <polygon class="cls-29" points="613.85 258.32 553.52 189.4 489.96 258.32 613.85 258.32"/>
          <polygon class="cls-49" points="553.52 189.4 563.7 258.32 613.85 258.32 553.52 189.4"/>
        </g>
        <g>
          <polygon class="cls-29" points="440.09 258.32 379.75 189.4 316.2 258.32 440.09 258.32"/>
          <polygon class="cls-49" points="379.75 189.4 389.94 258.32 440.09 258.32 379.75 189.4"/>
        </g>
        <g>
          <polygon class="cls-29" points="554.48 258.32 466.52 157.84 373.88 258.32 554.48 258.32"/>
          <polygon class="cls-49" points="466.52 157.84 481.38 258.32 554.48 258.32 466.52 157.84"/>
        </g>
      </g>
      <g>
        <rect class="cls-3" x="407.68" y="150.53" width="31.78" height="107.79"/>
        <rect class="cls-8" x="403.79" y="102.56" width="39.56" height="47.97"/>
        <g>
          <rect class="cls-44" x="412.47" y="154.81" width="3.27" height="24.77"/>
          <rect class="cls-44" x="418.78" y="154.81" width="3.27" height="24.77"/>
          <rect class="cls-44" x="425.09" y="154.81" width="3.27" height="24.77"/>
          <rect class="cls-44" x="431.4" y="154.81" width="3.27" height="24.77"/>
        </g>
        <rect class="cls-38" x="405.07" y="183.32" width="36.99" height="3.74"/>
        <rect class="cls-38" x="405.07" y="98.82" width="36.99" height="3.74"/>
        <rect class="cls-38" x="405.07" y="86.15" width="36.99" height="1.26"/>
        <rect class="cls-8" x="405.07" y="87.41" width="36.99" height="11.41"/>
        <g>
          <rect class="cls-44" x="412.47" y="192.45" width="3.27" height="24.77"/>
          <rect class="cls-44" x="418.78" y="192.45" width="3.27" height="24.77"/>
          <rect class="cls-44" x="425.09" y="192.45" width="3.27" height="24.77"/>
          <rect class="cls-44" x="431.4" y="192.45" width="3.27" height="24.77"/>
        </g>
        <rect class="cls-38" x="405.07" y="220.95" width="36.99" height="3.74"/>
        <g>
          <rect class="cls-44" x="412.47" y="229.83" width="3.27" height="24.77"/>
          <rect class="cls-44" x="418.78" y="229.83" width="3.27" height="24.77"/>
          <rect class="cls-44" x="425.09" y="229.83" width="3.27" height="24.77"/>
          <rect class="cls-44" x="431.4" y="229.83" width="3.27" height="24.77"/>
        </g>
        <g>
          <circle class="cls-47" cx="423.57" cy="126.54" r="13.78"/>
          <polyline class="cls-59" points="417.33 117.66 423.5 126.54 433.98 126.54"/>
        </g>
        <g>
          <rect class="cls-38" x="412.41" y="89.94" width="2.19" height="8.88"/>
          <rect class="cls-38" x="417.44" y="89.94" width="2.19" height="8.88"/>
          <rect class="cls-38" x="422.47" y="89.94" width="2.19" height="8.88"/>
          <rect class="cls-38" x="427.5" y="89.94" width="2.19" height="8.88"/>
          <rect class="cls-38" x="432.53" y="89.94" width="2.19" height="8.88"/>
        </g>
        <path class="cls-34" d="M429.68,52.25h-12.21s.03,26.17-12.39,33.9h36.99c-12.42-7.74-12.39-33.9-12.39-33.9Z"/>
        <rect class="cls-8" x="417.48" y="43.32" width="12.19" height="8.92"/>
        <rect class="cls-38" x="418.54" y="47.96" width="10.06" height="2.65"/>
        <polygon class="cls-38" points="423.63 18.37 418.26 43.32 428.88 43.32 423.63 18.37"/>
        <rect class="cls-34" x="416.51" y="42.25" width="14.13" height="1.07"/>
      </g>
      <g>
        <rect class="cls-5" x="194.89" y="126.42" width="125.03" height="38.89"/>
        <path class="cls-5" d="M194.89,168.28v84.12h45.01v-56.75c0-9.67,7.84-17.51,17.51-17.51s17.51,7.84,17.51,17.51v56.75h45.01v-84.12h-125.03Z"/>
        <rect class="cls-6" x="189.58" y="139.96" width="135.64" height="5.9"/>
        <rect class="cls-6" x="192.47" y="128.05" width="129.87" height="2.95"/>
        <rect class="cls-6" x="192.47" y="122.15" width="129.87" height="2.95"/>
        <rect class="cls-6" x="192.76" y="165.31" width="129.3" height="2.95"/>
        <g>
          <polygon class="cls-5" points="192.47 148.68 194.89 153.98 194.89 148.68 192.47 148.68"/>
          <polygon class="cls-5" points="322.34 148.68 319.92 153.98 319.92 148.68 322.34 148.68"/>
        </g>
        <rect class="cls-57" x="194.04" y="125.1" width="126.74" height="2.95"/>
        <g>
          <rect class="cls-6" x="272.38" y="256.35" width="50.04" height="1.97"/>
          <polygon class="cls-6" points="321.82 254.38 272.99 254.38 274.91 252.41 319.92 252.41 321.82 254.38"/>
          <rect class="cls-57" x="272.99" y="254.38" width="48.83" height="1.97"/>
        </g>
        <g>
          <rect class="cls-6" x="192.36" y="256.35" width="50.04" height="1.97"/>
          <polygon class="cls-6" points="241.8 254.38 192.97 254.38 194.89 252.41 239.9 252.41 241.8 254.38"/>
          <rect class="cls-57" x="192.97" y="254.38" width="48.83" height="1.97"/>
        </g>
        <rect class="cls-57" x="191.43" y="145.86" width="131.95" height="2.82"/>
        <rect class="cls-57" x="194.89" y="153.98" width="125.03" height="11.33"/>
        <g>
          <rect class="cls-6" x="274.91" y="195.66" width="45.01" height="2.38"/>
          <rect class="cls-6" x="274.91" y="234.32" width="45.01" height="2.38"/>
          <ellipse class="cls-57" cx="297.41" cy="216.3" rx="10.27" ry="13.97"/>
        </g>
        <g>
          <rect class="cls-6" x="194.89" y="195.66" width="45.01" height="2.38"/>
          <rect class="cls-6" x="194.89" y="234.32" width="45.01" height="2.38"/>
          <ellipse class="cls-57" cx="217.4" cy="216.3" rx="10.27" ry="13.97"/>
        </g>
      </g>
      <g>
        <rect class="cls-7" x="93.76" y="196.98" width="3.71" height="57.92"/>
        <rect class="cls-7" x="84.72" y="196.98" width="3.71" height="57.92"/>
        <rect class="cls-7" x="66.65" y="196.98" width="3.71" height="57.92"/>
        <rect class="cls-53" x="65.14" y="196.98" width="6.72" height="7.88"/>
        <rect class="cls-53" x="83.21" y="196.98" width="6.72" height="7.88"/>
        <rect class="cls-53" x="88.43" y="211.34" width="10.02" height="4.52"/>
        <polygon class="cls-35" points="58.31 190.72 6.64 190.72 19.15 196.98 58.31 196.98 97.46 196.98 109.97 190.72 58.31 190.72"/>
        <polygon class="cls-35" points="58.31 172.18 12.43 172.18 20.47 183.13 58.31 183.13 96.15 183.13 104.18 172.18 58.31 172.18"/>
        <polygon class="cls-56" points="96.36 186.43 58.31 186.43 20.25 186.43 6.64 190.72 58.31 190.72 109.97 190.72 96.36 186.43"/>
        <polygon class="cls-53" points="58.31 183.13 20.25 183.13 20.25 186.43 58.31 186.43 96.36 186.43 96.36 183.13 58.31 183.13"/>
        <polygon class="cls-53" points="58.31 168.88 12.43 168.88 12.43 172.18 58.31 172.18 104.18 172.18 104.18 168.88 58.31 168.88"/>
        <polygon class="cls-53" points="58.31 255.02 12.43 255.02 12.43 258.32 58.31 258.32 104.18 258.32 104.18 255.02 58.31 255.02"/>
        <polygon class="cls-53" points="84.14 157.24 58.31 157.24 32.47 157.24 30.04 164.42 58.31 164.42 86.57 164.42 84.14 157.24"/>
        <path class="cls-56" d="M58.31,164.42c-35.1,0-49.35-7.76-49.35-7.76l6.26,12.22h86.19l6.26-12.22s-14.25,7.76-49.35,7.76Z"/>
        <rect class="cls-7" x="19.15" y="196.98" width="3.71" height="57.92" transform="translate(42.01 451.88) rotate(180)"/>
        <rect class="cls-7" x="28.19" y="196.98" width="3.71" height="57.92" transform="translate(60.08 451.88) rotate(180)"/>
        <rect class="cls-7" x="46.26" y="196.98" width="3.71" height="57.92" transform="translate(96.22 451.88) rotate(180)"/>
        <rect class="cls-53" x="44.75" y="196.98" width="6.72" height="7.88" transform="translate(96.22 401.83) rotate(180)"/>
        <rect class="cls-53" x="26.68" y="196.98" width="6.72" height="7.88" transform="translate(60.08 401.83) rotate(180)"/>
        <rect class="cls-53" x="18.17" y="211.34" width="10.02" height="4.52" transform="translate(46.35 427.2) rotate(180)"/>
      </g>
      <g class="cls-62">
        <g>
          <rect class="cls-19" x="342.76" y="76.84" width="38.15" height="21.32" transform="translate(19.96 -59.82) rotate(9.72)"/>
          <rect class="cls-13" x="343.13" y="73.99" width="41.53" height="3.03" transform="translate(17.96 -60.33) rotate(9.72)"/>
          <g>
            <path class="cls-2" d="M350.96,79.91c-2.09-.36-4.07,1.05-4.43,3.13l-2.11,12.29,7.56,1.3,2.11-12.29c.36-2.09-1.05-4.07-3.13-4.43Z"/>
            <path class="cls-2" d="M362.79,81.93c-2.09-.36-4.07,1.05-4.43,3.13l-2.11,12.29,7.56,1.29,2.11-12.29c.36-2.09-1.05-4.07-3.13-4.43Z"/>
            <path class="cls-2" d="M374.62,83.96c-2.09-.36-4.07,1.05-4.43,3.13l-2.1,12.29,7.56,1.29,2.11-12.29c.36-2.09-1.05-4.07-3.13-4.43Z"/>
          </g>
          <rect class="cls-19" x="331.38" y="100.21" width="50.95" height="32.81" transform="translate(24.8 -58.56) rotate(9.72)"/>
          <rect class="cls-13" x="332.1" y="97.99" width="55.46" height="2.47" transform="translate(21.91 -59.31) rotate(9.72)"/>
          <g>
            <path class="cls-2" d="M338.81,104.89c-1.4-.24-2.72.7-2.96,2.09l-2.86,16.69,5.05.87,2.86-16.69c.24-1.4-.7-2.72-2.09-2.96Z"/>
            <path class="cls-2" d="M346.6,106.22c-1.4-.24-2.72.7-2.96,2.09l-2.86,16.69,5.05.87,2.86-16.69c.24-1.4-.7-2.72-2.09-2.96Z"/>
            <path class="cls-2" d="M354.39,107.56c-1.4-.24-2.72.7-2.96,2.09l-2.86,16.69,5.05.87,2.86-16.69c.24-1.4-.7-2.72-2.09-2.96Z"/>
            <path class="cls-2" d="M362.18,108.89c-1.4-.24-2.72.7-2.96,2.09l-2.86,16.69,5.05.87,2.86-16.69c.24-1.4-.7-2.72-2.09-2.96Z"/>
            <path class="cls-2" d="M369.98,110.23c-1.4-.24-2.72.7-2.96,2.09l-2.86,16.69,5.05.87,2.86-16.69c.24-1.4-.7-2.72-2.09-2.96Z"/>
            <path class="cls-2" d="M377.77,111.56c-1.4-.24-2.72.7-2.96,2.09l-2.86,16.69,5.05.87,2.86-16.69c.24-1.4-.7-2.72-2.09-2.96Z"/>
          </g>
          <rect class="cls-19" x="307.8" y="237.9" width="50.95" height="32.81" transform="translate(47.7 -52.6) rotate(9.72)"/>
          <rect class="cls-13" x="308.52" y="235.68" width="55.46" height="2.47" transform="translate(44.81 -53.35) rotate(9.72)"/>
          <g>
            <path class="cls-2" d="M318.39,246.3c-2.79-.48-5.44,1.4-5.91,4.19l-2.81,16.42,10.1,1.73,2.81-16.42c.48-2.79-1.4-5.44-4.19-5.91Z"/>
            <path class="cls-2" d="M334.18,249.01c-2.79-.48-5.44,1.4-5.91,4.19l-2.81,16.42,10.1,1.73,2.81-16.42c.48-2.79-1.4-5.44-4.19-5.91Z"/>
            <path class="cls-2" d="M349.98,251.71c-2.79-.48-5.44,1.4-5.91,4.19l-2.81,16.42,10.1,1.73,2.81-16.42c.48-2.79-1.4-5.44-4.19-5.91Z"/>
          </g>
          <rect class="cls-19" x="313.76" y="203.12" width="50.95" height="32.81" transform="translate(41.92 -54.11) rotate(9.72)"/>
          <rect class="cls-13" x="314.48" y="200.9" width="55.46" height="2.47" transform="translate(39.03 -54.86) rotate(9.72)"/>
          <g>
            <path class="cls-2" d="M321.19,207.8c-1.4-.24-2.72.7-2.96,2.09l-2.86,16.69,5.05.87,2.86-16.69c.24-1.4-.7-2.72-2.09-2.96Z"/>
            <path class="cls-2" d="M328.98,209.13c-1.4-.24-2.72.7-2.96,2.09l-2.86,16.69,5.05.87,2.86-16.69c.24-1.4-.7-2.72-2.09-2.96Z"/>
            <path class="cls-2" d="M336.77,210.47c-1.4-.24-2.72.7-2.96,2.09l-2.86,16.69,5.05.87,2.86-16.69c.24-1.4-.7-2.72-2.09-2.96Z"/>
            <path class="cls-2" d="M344.56,211.8c-1.4-.24-2.72.7-2.96,2.09l-2.86,16.69,5.05.87,2.86-16.69c.24-1.4-.7-2.72-2.09-2.96Z"/>
            <path class="cls-2" d="M352.35,213.13c-1.4-.24-2.72.7-2.96,2.09l-2.86,16.69,5.05.87,2.86-16.69c.24-1.4-.7-2.72-2.09-2.96Z"/>
            <path class="cls-2" d="M360.15,214.47c-1.4-.24-2.72.7-2.96,2.09l-2.86,16.69,5.05.87,2.86-16.69c.24-1.4-.7-2.72-2.09-2.96Z"/>
          </g>
          <rect class="cls-19" x="319.71" y="168.34" width="50.95" height="32.81" transform="translate(36.13 -55.61) rotate(9.72)"/>
          <rect class="cls-13" x="320.43" y="166.12" width="55.46" height="2.47" transform="translate(33.24 -56.36) rotate(9.72)"/>
          <g>
            <path class="cls-2" d="M327.14,173.02c-1.4-.24-2.72.7-2.96,2.09l-2.86,16.69,5.05.87,2.86-16.69c.24-1.4-.7-2.72-2.09-2.96Z"/>
            <path class="cls-2" d="M334.93,174.35c-1.4-.24-2.72.7-2.96,2.09l-2.86,16.69,5.05.87,2.86-16.69c.24-1.4-.7-2.72-2.09-2.96Z"/>
            <path class="cls-2" d="M342.73,175.69c-1.4-.24-2.72.7-2.96,2.09l-2.86,16.69,5.05.87,2.86-16.69c.24-1.4-.7-2.72-2.09-2.96Z"/>
            <path class="cls-2" d="M350.52,177.02c-1.4-.24-2.72.7-2.96,2.09l-2.86,16.69,5.05.87,2.86-16.69c.24-1.4-.7-2.72-2.09-2.96Z"/>
            <path class="cls-2" d="M358.31,178.35c-1.4-.24-2.72.7-2.96,2.09l-2.86,16.69,5.05.87,2.86-16.69c.24-1.4-.7-2.72-2.09-2.96Z"/>
            <path class="cls-2" d="M366.1,179.69c-1.4-.24-2.72.7-2.96,2.09l-2.86,16.69,5.05.87,2.86-16.69c.24-1.4-.7-2.72-2.09-2.96Z"/>
          </g>
          <rect class="cls-19" x="325.67" y="133.56" width="50.95" height="32.81" transform="translate(30.35 -57.11) rotate(9.72)"/>
          <rect class="cls-13" x="326.39" y="131.34" width="55.46" height="2.47" transform="translate(27.46 -57.87) rotate(9.72)"/>
          <g>
            <path class="cls-2" d="M333.1,138.24c-1.4-.24-2.72.7-2.96,2.09l-2.86,16.69,5.05.87,2.86-16.69c.24-1.4-.7-2.72-2.09-2.96Z"/>
            <path class="cls-2" d="M340.89,139.57c-1.4-.24-2.72.7-2.96,2.09l-2.86,16.69,5.05.87,2.86-16.69c.24-1.4-.7-2.72-2.09-2.96Z"/>
            <path class="cls-2" d="M348.68,140.9c-1.4-.24-2.72.7-2.96,2.09l-2.86,16.69,5.05.87,2.86-16.69c.24-1.4-.7-2.72-2.09-2.96Z"/>
            <path class="cls-2" d="M356.47,142.24c-1.4-.24-2.72.7-2.96,2.09l-2.86,16.69,5.05.87,2.86-16.69c.24-1.4-.7-2.72-2.09-2.96Z"/>
            <path class="cls-2" d="M364.27,143.57c-1.4-.24-2.72.7-2.96,2.09l-2.86,16.69,5.05.87,2.86-16.69c.24-1.4-.7-2.72-2.09-2.96Z"/>
            <path class="cls-2" d="M372.06,144.91c-1.4-.24-2.72.7-2.96,2.09l-2.86,16.69,5.05.87,2.86-16.69c.24-1.4-.7-2.72-2.09-2.96Z"/>
          </g>
        </g>
      </g>
      <g>
        <g>
          <rect class="cls-12" x="56.3" y="245.34" width="173.77" height="12.98"/>
          <rect class="cls-24" x="63.45" y="233.88" width="159.45" height="11.46"/>
          <rect class="cls-12" x="71.73" y="222.19" width="142.9" height="11.69"/>
          <rect class="cls-24" x="78.48" y="211.87" width="129.39" height="10.32"/>
          <rect class="cls-12" x="84.72" y="202.4" width="116.92" height="9.48"/>
          <rect class="cls-24" x="92.21" y="194.03" width="101.94" height="8.37"/>
          <rect class="cls-12" x="97.94" y="186.63" width="90.48" height="7.4"/>
          <rect class="cls-24" x="102.21" y="180.09" width="81.93" height="6.53"/>
          <rect class="cls-12" x="106.16" y="174.09" width="74.03" height="6"/>
          <rect class="cls-24" x="110.91" y="168.8" width="64.55" height="5.3"/>
        </g>
        <g>
          <polygon class="cls-22" points="152.9 168.8 143.18 168.8 133.46 168.8 106.16 258.32 143.18 258.32 180.19 258.32 152.9 168.8"/>
          <polygon class="cls-50" points="151.35 168.8 143.18 168.8 135.01 168.8 112.05 258.32 143.18 258.32 174.31 258.32 151.35 168.8"/>
          <rect class="cls-22" x="132.36" y="173.38" width="21.29" height="1.95"/>
          <rect class="cls-22" x="130.68" y="179.12" width="24.64" height="1.95"/>
          <rect class="cls-22" x="129.01" y="185.65" width="27.99" height="1.95"/>
          <rect class="cls-22" x="126.62" y="193.06" width="32.77" height="1.95"/>
          <rect class="cls-22" x="124.85" y="201.42" width="36.31" height="1.95"/>
          <rect class="cls-22" x="122.38" y="210.9" width="41.24" height="1.95"/>
          <rect class="cls-22" x="117.78" y="221.22" width="50.44" height="1.95"/>
          <rect class="cls-22" x="116.95" y="232.91" width="52.1" height="1.95"/>
          <rect class="cls-22" x="112.72" y="244.36" width="60.57" height="1.95"/>
        </g>
        <g>
          <rect class="cls-43" x="122.73" y="146.27" width="40.9" height="22.53"/>
          <rect class="cls-11" x="136.84" y="148.92" width="12.68" height="19.88"/>
          <g>
            <g>
              <rect class="cls-11" x="128.77" y="148.92" width="6.34" height="19.88"/>
              <rect class="cls-11" x="124.09" y="148.92" width="2.9" height="19.88"/>
            </g>
            <g>
              <rect class="cls-11" x="151.25" y="148.92" width="6.34" height="19.88" transform="translate(308.84 317.71) rotate(180)"/>
              <rect class="cls-11" x="159.37" y="148.92" width="2.9" height="19.88" transform="translate(321.64 317.71) rotate(180)"/>
            </g>
          </g>
        </g>
      </g>
    </g>
    <g>
      <rect class="cls-20" x=".07" y="258.32" width="629.24" height="45.97"/>
      <g>
        <rect class="cls-55" x=".07" y="269.27" width="629.24" height="13.55"/>
        <g>
          <line class="cls-58" x1="629.31" y1="276.05" x2="623.31" y2="276.05"/>
          <line class="cls-60" x1="611.2" y1="276.05" x2="12.12" y2="276.05"/>
          <line class="cls-58" x1="6.07" y1="276.05" x2=".07" y2="276.05"/>
        </g>
      </g>
    </g>
  </g>
  <g class="cls-61">
    <g>
      <path class="cls-10" d="M131.25,197.28c.37.67,1.06,1.52,1.88,1.19,1.82-.74-.57,4.39,5.72,4.71,3.03.16,4.24-6.11,3.69-10.24-.05-.05-.09-.08-.16-.1-1.8,1.27-4.25,1.49-6.15.3-.19-.01-.37-.06-.56-.04-.16.47-.47.92-.65,1.36.06.91.06,1.3-.71,1.9-.46-.61-.6-1.36-1.38-1.61-.99.16-1.54.78-1.6,1.8-.01.25-.04.53-.08.75"/>
      <path class="cls-45" d="M157.2,223.24c0,2.55,1.17,4.62,2.61,4.62s2.61-2.07,2.61-4.62-1.17-4.62-2.61-4.62-2.61,2.07-2.61,4.62"/>
      <path class="cls-45" d="M112.17,274.22c-2.14-.17-4.16-.77-5.81-2.27-.61-.55-1.05-1.3-1.57-1.95-.55-.12-1.09-.24-1.64-.35,1.75,3.08,4.12,5.09,7.74,4.89.43-.02.85-.2,1.27-.31"/>
      <path class="cls-27" d="M158.37,267.99c0,4.96,4.03,8.98,9,8.98s9-4.02,9-8.98-4.03-8.98-9-8.98-9,4.02-9,8.98"/>
      <path class="cls-45" d="M162,264.78c.02-.48.78-.46.75.03-.25,6.18,2.05,7.31,2.07,7.32,5.22,3.72,9.8-.2,8.76-6.07-.53-3.11-4.56-5.29-6.94-5.23-.49,0-.47-.77.02-.75,3.4-.04,8.16,3.25,7.79,7.51.17,6.55-6.69,9.23-10.99,4.28-1.43-2.04-1.53-4.69-1.46-7.1"/>
      <path class="cls-45" d="M157.71,231.07c.07.15.18.28.25.43,1.71,3.68,3.57,7.66,3.83,11.82.27,4.33-.86,8.83-3.58,12.22-.4.5-.85.99-1.42,1.3-.57.31-1.27.43-1.87.17-1-.44-1.3-1.69-1.41-2.77-.28-2.83-.09-5.68-.08-8.53,0-2.84-.17-5.74-1.15-8.41-.34-.91-.76-1.8-.95-2.75s-.1-2.02.5-2.78c.54-.68,1.43-1.02,2.3-1.09s1.74.1,2.59.26l1,.12h0Z"/>
      <path class="cls-26" d="M143.39,214.61c.23-.16.46-.31.69-.47-.15-.45-.27-.92-.46-1.35-.32-.71-.72-1.38-1.05-2.09-.22-.48-.49-.64-.91-.35-.71.49-1.41.99-2.28,1.61,1.49.54,2.65,1.22,3.48,2.49.09.13.35.11.53.16"/>
      <path class="cls-48" d="M155.33,232.79c-.19.09-.34.16-.5.28,2.06,4,3.46,8.27,5.4,12.15.25,1.69,2.27,3.95.06,5.01-1.23.45-1.83,1.71-2.92,2.2-.72,3.04-2.59,5.49-3.78,8.39-2.13,4.68-2.68,8.96-7.88,11.35,6.02-.55,6.4-4.63,8.86-4.46,1.88.01,1.83-.52,1.92,1.52.4,9.03,13.37,14.82,20.24,8.25,10.12-9.67,2.04-23.21-10.43-22.05-.8.07-3.1,1.24-2.5,2.29-.66,3.6,3.88,6.86,2.89,10.32-.11.36-.89.58-.58.89,1.74.96,2.71-2.46,1.31-3.11,1.68,0,1.87,2.53.96,3.56-1.99,1.77-4.93-1-4.77-3.2-1.34,3.89,3.12,8.51,7.01,6.36,5.1-3.19,1.61-11.9-4.25-10.74-1.35-.04-.71-2.89,1.63-2.25,10.26,1.37,9.36,16.07-.62,15.37-5.99-1.49-6.78-6.26-5.64-11.7.03-2.17-2.15-3.67-3.27-5.24-1.49-1.74-.78-3.52,1.02-4.55.88-.77,1.91-1.28,2.97-1.76.91-.36,2.16-.11,2.54-1.27.26-.9.68-1.76.12-2.71-2.96,1.64-3.05.55-4.04-2.07-1.74-4.42-3.23-9.28-5.74-12.85"/>
      <path class="cls-48" d="M91.6,263.75c.66.81,1.57.88,2.53.87,1.5-.02,3-.03,4.5,0,2.54.06,5.07.16,7.6.27,2.3.1,4.59.24,6.89.36,1.7.09,3.41.12,5.1.27,1.63.14,2.59-.74,3.26-2.02,1.08-2.08.87-4.21.03-6.31-1.67-4.15-4.86-6.67-8.91-8.28-2.14-.85-4.34-1.04-6.62-.8-.45.05-.93-.21-1.4-.33-.89-.92-1.91-1.58-3.24-1.62-1.16-.04-2.32-.04-3.48-.13-1.39-.11-2.45-.96-2.3-2.43.03-.35,0-.7,0-1.05.35-.58.92-.38,1.41-.36,1.07.04,2.14.16,3.21.23,1.57.1,3.15.16,4.72.26,1.64.11,3.29.24,4.93.36-.04.53-.11,1.07-.11,1.6,0,.83.55,1.33,1.35,1.4,1.6.14,3.2.32,4.8.48,1.61.17,3.23.34,4.84.52,1.53.18,3.05.38,4.58.56.31.03.62.02.93.03.92.1,1.83.21,2.75.31-.2.89-.41,1.78-.62,2.67-.28,1.22-.56,2.44-.85,3.66-.19.87-.35,1.75-.57,2.62-.28,1.09-.25,1.19.78,1.65.35.16.71.31,1.06.47-.04.33-.08.65-.12.98.03,1.95.05,3.91.08,5.86-.22.31-.43.62-.65.94-.09.52-.17,1.03-.26,1.55-.99-.49-2.04-.95-2.56-1.99-.39-.77-.62-1.61-.9-2.42-.07-.21-.08-.44-.12-.63-.37.6-.67,1.26-1.14,1.77-.65.72-1.56,1.01-2.54,1.03-.23,0-.5-.03-.36.35.5,1.3.97,2.61,2,3.62,1.04,1.03,2.28,1.57,3.73,1.64,1.89.09,3.78.18,5.67.27-.16.39-.37.75-.66,1.06-.9.97-2.21.99-3.44.92-.62-.03-1.25-.07-1.87-.11-.52-.03-1.03.03-1.55-.02-1-.09-2.08-.45-3.05-.03-.73.31-1.22,1-1.73,1.61-1.42,1.68-3.32,2.96-5.41,3.63-.11.03-.22.07-.33.1-3.1.9-6.52.48-9.27-1.23-1.43-.89-2.67-2.08-3.66-3.44-.84-1.15-1.56-2.42-1.95-3.79-.46-1.59-.6-3.26-.5-4.9.03-.43-.09-.56-.54-.56-1.5,0-3-.06-4.49-.12-1.15-.04-1.49-.35-1.57-1.36M111.06,274.2c.74-.29,1.47-.59,2.2-.88-.02-.08-.04-.16-.06-.24-.71-.07-1.42-.14-2.13-.2-.6-.05-1.2-.1-1.8-.14-1.22-.06-1.58-.43-1.57-1.65,2.08.04,4.15.07,6.22.13,2.2.06,4.39.16,6.58.25.97.04,1.94.11,3.07.17-.7-.54-1.27-.99-1.85-1.43-.63-1.12-1.26-2.24-1.88-3.36-.02-.5-.21-.8-.78-.82-1.14-.03-2.27-.13-3.41-.18-2.07-.09-4.15-.15-6.21-.26-1.61-.09-3.22-.27-4.83-.35-1.07-.06-2.15,0-3.22-.02-.56-.01-.85.23-.91.77-.47,1.05-.32,2.08.12,3.09.43,1.13,1.27,1.64,2.45,1.63.27,0,.54,0,.81,0,1.4,2.34,3.29,3.86,6.17,3.71.34-.02.68-.16,1.02-.24M105.44,246.4c1.02.45,1.8,1.25,3.11,1.3,3.87.13,7.27,1.6,10.26,4.05,2.67,2.2,4.37,5.02,5.36,8.3.03.09.08.18.05.11.33-1.73.67-3.61,1.06-5.48.4-1.96.86-3.91,1.3-5.86.08-.34-.05-.44-.37-.47-1.09-.1-2.19-.22-3.29-.35-2.18-.27-4.37-.58-6.55-.83-2.19-.25-4.38-.47-6.58-.67-1.43-.13-2.86-.19-4.29-.29-.02.06-.04.12-.06.19M108.28,245.67c.3-.03.82.06,1.08-.15.18-.15-.03-.73-.02-1.12,0-.35-.08-.52-.48-.54-1.51-.1-3.02-.24-4.53-.35-2.28-.17-4.56-.32-6.83-.48-.04,0-.09-.01-.12,0-.47.06-1.11-.29-1.25.52-.11.61.41,1.4,1.04,1.48.94.12,1.9.18,2.85.22,2.05.1,4.11.18,6.17.28.66.03,1.33.09,2.1.15"/>
      <path class="cls-28" d="M116.67,230.14c.36-1.85.7-3.71,1.05-5.56.02-.12,0-.25,0-.37.04-.09.1-.18.12-.27.55-2.23,1-4.48,1.65-6.68.96-3.24,2.08-6.44,4.04-9.26.43-.61.89-1.2,1.33-1.79,1.42-1.44,2.98-2.61,5.13-2.61.05,0,.3.65.34.72.13.28.23.6.39.87v-.02l.03.06s.02.03.03.05c.23.32.52.57.72.92.25.43.38.92.49,1.41.19.85.32,1.72.39,2.59.03.1.05.2.07.31.03.12.23,1.3.29,1.3-.71-.08-1.46-.31-2.14-.2-1.88.29-3.64.96-5.12,2.22-.09-.52-.17-1.05-.29-1.57-.06-.22-.21-.42-.31-.63-.12.18-.26.35-.34.55-.97,2.59-.83,5.2-.11,7.81.64,2.33,1.72,4.42,3.58,6.01.86.73,1.84,1.34,2.84,1.89.48.26.45.43.24.82-.67,1.28-1.15,2.62-1.11,4.1-1.79.04-3.57.14-5.36.1-1.72-.04-3.43-.22-5.14-.34-.59-.04-1.17-.09-1.76-.13-.06-.02-.12-.03-.17-.06-1.03-.67-1.14-.96-.9-2.22"/>
      <path class="cls-40" d="M138.63,218.53c-2.64-1.08-2.58-5.51.53-6.09.85-.19,1.4-1.05,2.1-1.53-1.69-1.11-2.41-3.22-3.49-4.85-.25-.05-.51-.09-.76-.14-.37,4.23-3.62,2.3-4.97-.18-.03-.06-.06-.13-.08-.2.13-2.26.33-2.03-1.99-1.95,1.33,2.79,2.08,5.78,2.93,8.7.2.63.41,1.26.58,1.9,0,.25-.47.64-.5.93.87,2.02,1.83,4.19,2.77,6.11.06.48.05,1.03.56,1.28,1,.37,1.13-.87,1.46-1.68.28-.77.62-1.51.87-2.29"/>
      <path class="cls-10" d="M141.64,201.58h0s0,0,0,0h0M140.88,202.33h0,0Z"/>
      <path class="cls-27" d="M129.07,192.83c-.37,1.97-.34,3.88.8,5.64.47-.4.93-.8,1.4-1.19.04-.22.12-.44.12-.66,0-1.02.57-1.73,1.56-1.88.65-.78,1.28-1.57,1.97-2.31.15-.16.55-.21.79-.14,1.34.36,2.67.22,3.91-.24,1.02-.38,1.94-1.05,2.91-1.59h0c.47-.28.93-.57,1.4-.84.63-.37,1.29-.37,1.97-.13-.29-.54-.77-.77-1.39-.54-.54.2-1.09.27-1.57.04-.03-.01-.06-.03-.1-.05-.65-.36-1.24-.63-1.85-.9-.38-.17-.78-.34-1.21-.52-.19-.08-.53-.25-.75-.3-2.5-.52-4.87-.27-7.01,1.09-.8.5-1.45,1.22-1.87,2.2-.34.77-.9,1.46-1.06,2.33M143.26,189.26s0,0,0,.03v-.03h0"/>
      <path class="cls-27" d="M157.84,218.17c-1.61.25-3.26.58-4.74,1.24-1.61.69-2.72,2.14-4.31,2.85-.33.3-2.98,1.33-2.55,1.68.49.45.72,1.45,1.27,1.7.55.13,1.14-.14,1.71-.17,1.39-.35,3.74.27,3.57-1.91-.2,1.32.28,3.06,1.9,3,.18-.02.37-.03.55-.04.98.09,1.98-.28,2.98-.28-.5-1.62-.62-3.37-.35-5,.05-.21.1-.42.18-.62.36-.99,1.05-1.8,2.29-1.93-.72-.67-1.62-.54-2.49-.53"/>
      <path class="cls-42" d="M129.86,198.47c.64,1.3,1.72,2.08,3.01,2.61.09-.87.18-1.74.27-2.62-.89,0-1.37-.62-1.88-1.19-.47.4-.93.8-1.4,1.19"/>
      <path class="cls-45" d="M145.89,189.48s.09.08.12.12c-.04-.04-.09-.08-.12-.12"/>
      <path class="cls-26" d="M94.07,240.94c-.01,1,.46,1.49,1.49,1.58.35-.58.93-.38,1.41-.36,1.07.04,2.14.16,3.21.23,1.57.1,3.15.16,4.72.26,1.64.11,3.29.24,4.93.36.05-.28.1-.57.16-.86,0-.48-.03-.96,0-1.43.15-2.11.32-4.21.47-6.31.1-1.38.19-2.77.27-4.16.12-2.11.23-4.22.35-6.33-.71-.04-1.41-.1-2.11-.13-1.14-.05-2.28-.07-3.42-.13-2.11-.12-4.21-.25-6.32-.38-1.17,0-2.33.04-3.5-.03-.84-.05-1.26.6-1.3,1.2,0,.12,0,.25,0,.37-.08,3.29-.16,6.59-.24,9.89-.05,2.07-.09,4.15-.12,6.22"/>
      <path class="cls-9" d="M117.74,232.43c-.06-.02-.12-.03-.17-.06-1.03-.67-1.14-.96-.9-2.22.36-1.85.7-3.71,1.05-5.56.02-.12,0-.25,0-.37-.21-.05-.41-.11-.62-.16-.88.04-1.75.08-2.63.12-.05,1.18.05,2.38-.16,3.52-.43,2.29-.56,4.57-.34,6.88.09.89.16,1.79.25,2.67.06.59.16,1.18.25,1.77,1.17-.17,2.33-.35,3.5-.52.51-.07,1.02-.15,1.52-.22-.9-.91-1.68-1.91-1.9-3.2-.16-.88-.33-1.79.15-2.65"/>
      <path class="cls-28" d="M117.31,223.41c.29-.58.04-1.3-.58-1.58-.51-.23-1.03-.46-1.49.12-.02.03-.13.03-.16,0-.69-.65-1.55-.32-2.33-.4-.65-.07-1.3-.14-1.95-.19-.43-.03-.99-.22-1.28-.02-.54.37-.8,0-1.17-.17-.16-.08-.36-.12-.53-.12-2.45-.05-4.9-.04-7.35-.16-1.36-.06-1.76.92-1.43,1.93.25-.05.51-.15.76-.14,1.3.06,2.61.17,3.91.23,1.28.06,2.57.11,3.85.12.34,0,.68-.18,1.02-.28.26-.08.51-.21.78-.22.23-.01.47.12.71.14,1.49.09,2.98.13,4.47.27.93.09,1.85.31,2.77.47"/>
      <path class="cls-28" d="M92.08,255.03c.07-3.75.15-3.66,3.8-4.37.56-.09.95.43,1.1.98.22.75-.36,1.12-.7,1.57-1.11,1.45-2.05,2.98-2.73,4.67-.08.19-.26.5-.35.49-1.69-.09-1.06-2.2-1.13-3.33"/>
      <path class="cls-40" d="M117.31,223.41c-.92-.16-1.84-.38-2.77-.47-1.49-.14-2.98-.18-4.47-.27-.24-.02-.48-.16-.71-.14-.26.02-.52.15-.78.22-.34.1-.68.28-1.02.28-1.28,0-2.57-.06-3.85-.12-1.3-.06-2.61-.17-3.91-.23-.25-.01-.51.09-.76.14.06.16.13.31.2.46,2.11.13,4.21.26,6.32.38,1.14.06,2.28.08,3.42.13.71.03,1.41.09,2.11.13,1.13.08,2.26.16,3.39.23.88-.04,1.75-.08,2.63-.12.07-.21.13-.43.2-.64"/>
      <path class="cls-27" d="M154.83,232.3c-.73-1-1.67-3.48-3.19-2.39-5.94,4.22.79,12.71,1.45,18.25.65,2.57-.4,4.87-1.18,7.28-1.87,3.98-2.85,13.63-7.86,13.85-2.13.09-14.83-.19-16.2-1-2.37-1.39-3.09-2.75-3.58-5.14-1.78,3.94-4.44,2.24-4.13,3.2.78,2.64,2.56,5.2,5.77,5.44,3.06.23,6.17.21,9.22.31,7.65.12,13.58,2.61,16.82-6.5,1.1-2.99,2.36-5.93,3.77-8.8,5.07-12.29-8.29-20.81-.88-24.5"/>
      <path class="cls-27" d="M159.6,235.23c1.97,4.21,3.82,8.42,5.61,12.68-.77.42-1.33.67-2.02,1-.56.39-.78.06-.96-.33-2.31-5.27-3.98-10.81-6.9-15.79,3.83-1.25,2.66-.57,4.26,2.45"/>
      <path class="cls-27" d="M153.05,235.86c1.67,5.28,4.95,10.68,4.33,16.57,1.3-.5,2.4-1.68,3.66-2.31,1.34-.7.44-2.02-.03-3.2-1.87-4.65-3.71-9.46-6.17-13.84-.95.5-2.2,1.58-1.78,2.79"/>
      <path class="cls-27" d="M157.47,230.65c-1.05-.31-2.06-.61-3.12-.9-.35-.1-.62.01-.36.45.37.62.77,1.28,1.14,1.9.9-.21,1.8-.46,2.78-.68-.14-.25-.31-.53-.44-.77"/>
      <path class="cls-10" d="M160.4,219.48s.1,0,.15.01c-.05,0-.1,0-.15-.01"/>
      <path class="cls-45" d="M164.74,262.97c.42-.05.57.19.68.55.31,1.08.67,2.15.98,3.23.16.56.27,1.15.4,1.72.45-.3.56-.65.37-1.2-.62-1.71-1.18-3.43-1.75-5.15-.11.37-.18.77-.66.85"/>
      <path class="cls-39" d="M163.68,262.18c-.4.09-.81.19-1.22.27.41-.08.82-.18,1.22-.27"/>
      <path class="cls-39" d="M161.42,262.62c.15-.02.29-.03.43-.06-.15.02-.29.03-.43.06"/>
      <path class="cls-45" d="M166.54,268.61c-.08.04-.17.07-.25.11.08-.04.17-.07.25-.11"/>
      <path class="cls-45" d="M166.77,268.48c-.07.04-.15.09-.22.13.07-.04.15-.09.22-.13"/>
      <path class="cls-28" d="M109.99,242.16c-.05.28-.1.57-.16.86-.04.53-.11,1.07-.11,1.6,0,.83.55,1.33,1.35,1.4,1.6.14,3.2.32,4.8.48,1.61.17,3.23.34,4.84.52,1.53.18,3.05.38,4.58.56.31.03.62.02.93.03.06-2.18-1.07-3.78-2.63-5.13-1-.87-2.06-1.65-3.1-2.47-.09-.07-.23-.1-.34-.11-1.59-.13-3.18-.25-4.77-.39-.51-.05-1.01-.15-1.52-.23-1.41.44-2.64,1.14-3.44,2.45-.1.17-.28.29-.42.43"/>
      <path class="cls-27" d="M105.44,246.4c1.02.45,1.8,1.25,3.11,1.3,3.87.13,7.27,1.6,10.26,4.05,2.67,2.2,4.37,5.02,5.36,8.3.03.09.08.18.05.11.33-1.73.67-3.61,1.06-5.48.4-1.96.86-3.91,1.3-5.86.08-.34-.05-.44-.37-.47-1.09-.1-2.19-.22-3.29-.35-2.18-.27-4.37-.58-6.55-.83-2.19-.25-4.38-.47-6.58-.67-1.43-.13-2.86-.19-4.29-.29-.02.06-.04.12-.06.19"/>
      <path class="cls-52" d="M100.48,266c1.22.07,2.44.17,3.66.22,2.61.1,5.22.17,7.83.28,1.66.06,3.31.16,4.97.24.97.05,1.95.09,2.92.13.63,1.12,1.26,2.24,1.88,3.36-.86,0-1.72.02-2.58-.02-.97-.04-1.95-.16-2.92-.21-2.6-.14-5.19-.25-7.79-.4-2.61-.15-5.23-.34-7.84-.5-.45-1.01-.59-2.04-.12-3.09M115.68,268.24c.12,0,.27.02.37-.03.11-.06.18-.19.27-.29-.1-.06-.19-.16-.3-.17-.45-.06-.91-.1-1.36-.13-1.53-.09-3.07-.16-4.6-.27-1.99-.14-3.97-.32-5.95-.48-.1,0-.22-.03-.31,0-.15.04-.28.11-.42.17.13.1.25.29.39.3,1.22.11,2.44.18,3.66.27,2.13.16,4.26.33,6.39.49.62.05,1.24.08,1.86.12v.03"/>
      <path class="cls-4" d="M134.38,263.61c.29-.07.59-.14.87-.21.2-.97.7-1.69,1.68-2.02.29-.1.55-.28.82-.42.09-.79.13-1.59.29-2.37.12-.62.4-1.21.6-1.81-.09-.08-.16-.2-.27-.25-.95-.39-1.9-.77-2.85-1.15-.37.74-.75,1.48-1.12,2.22-.11.62-.06,1.3-.65,1.76-.1.07-.11.3-.12.45-.05,1.01-.08,2.02-.12,3.02,0,.11-.02.21-.04.28.25.22.52.39.81.52.03,0,.06-.02.1-.03h0Z"/>
      <path class="cls-28" d="M139.18,266.87c-.67-.23-1.34-.43-2.07-.55-.49.26-.97.52-1.47.76-.08.04-.22-.04-.34-.06.05-.1.08-.25.16-.3.3-.18.62-.32.93-.47.02-.1.04-.2.06-.3-.56.12-1.11.25-1.66.36-.34.06-.7.11-.4-.43.08-.03.16-.06.24-.09l.06-.02c-.28-.12-.55-.23-.82-.35-.06.02-.12.05-.18.04-.22-.03-.44-.07-.66-.1.15-.16.29-.31.44-.47.03-.04.06-.08.1-.12-.01-.06-.02-.12-.03-.17-.34.04-.69.1-1.04.12-.19.01-.4-.04-.59-.07.09-.17.16-.44.29-.48.69-.21,1.4-.37,2.1-.55-.29-.12-.57-.29-.81-.52-.05.18-.17.22-.44-.04-.99.28-1.64.86-1.69,1.96,0,.19,0,.4-.09.55-.22.34-.45.82-.78.94-.34.12-.81-.08-1.21-.22-.2-.07-.34-.29-.51-.44-.22.31-.43.62-.65.94.31.15.61.38.94.44,1.29.26,2.6.45,3.89.7,1.95.38,3.9.45,5.84-.03.39-.09.76-.3,1.14-.46-.18-.25-.45-.49-.72-.58h0Z"/>
      <path class="cls-54" d="M121.74,270.22c-.86,0-1.72.02-2.58-.02-.97-.04-1.95-.16-2.92-.21-2.6-.14-5.19-.25-7.79-.4-2.61-.15-5.23-.34-7.84-.5.43,1.13,1.27,1.64,2.45,1.63.27,0,.54,0,.81,0,.43.09.87.18,1.3.27.04-.06.09-.19.13-.19.8.09,1.61.19,2.41.29,2.08.04,4.15.07,6.22.13,2.2.06,4.39.16,6.58.25.97.04,1.94.11,3.07.17-.7-.54-1.27-.99-1.85-1.43"/>
      <path class="cls-40" d="M113.86,239.28c.51.08,1.01.19,1.52.23,1.59.14,3.18.26,4.77.39.12,0,.25.04.34.11,1.04.81,2.11,1.6,3.1,2.47,1.55,1.35,2.68,2.95,2.63,5.13.92.1,1.83.21,2.75.31.25-1,.51-2.01.77-3.01-.74-.42-1.49-.83-2.22-1.26-2.78-1.64-5.61-3.2-8.03-5.38-.51.07-1.02.14-1.52.22-1.17.17-2.33.35-3.5.52-.21.09-.41.18-.62.26"/>
      <path class="cls-27" d="M108.28,245.67c.3-.03.82.06,1.08-.15.18-.15-.03-.73-.02-1.12,0-.35-.08-.52-.48-.54-1.51-.1-3.02-.24-4.53-.35-2.28-.17-4.56-.32-6.83-.48-.04,0-.09-.01-.12,0-.47.06-1.11-.29-1.25.52-.11.61.41,1.4,1.04,1.48.94.12,1.9.18,2.85.22,2.05.1,4.11.18,6.17.28.66.03,1.33.09,2.1.15"/>
      <path class="cls-10" d="M128.74,265.85c.17.16.31.38.51.44.39.13.87.34,1.21.22.33-.12.56-.59.78-.94.09-.14.09-.36.09-.55.05-1.1.71-1.67,1.69-1.95.04-.89.07-1.78.11-2.68-.37.03-.75.14-1.11.09-1.12-.14-2.24-.33-3.36-.5.03,1.95.05,3.91.08,5.86"/>
      <path class="cls-54" d="M100.48,266c1.22.07,2.44.17,3.66.22,2.61.1,5.22.17,7.83.28,1.66.06,3.31.16,4.97.24.97.05,1.95.09,2.92.13-.02-.5-.21-.8-.78-.82-1.14-.03-2.27-.13-3.41-.18-2.07-.09-4.15-.15-6.21-.26-1.61-.09-3.22-.27-4.83-.35-1.07-.06-2.15,0-3.22-.02-.56-.01-.85.23-.91.77"/>
      <path class="cls-31" d="M107.71,271.1c-.8-.1-1.6-.2-2.41-.29-.03,0-.09.12-.13.19.41.5.77,1.06,1.25,1.48,1.32,1.14,2.92,1.59,4.63,1.72.74-.29,1.47-.59,2.2-.88-.02-.08-.04-.16-.06-.24-.71-.07-1.42-.14-2.13-.2-.6-.05-1.2-.1-1.8-.14-1.22-.06-1.58-.43-1.57-1.65"/>
      <path class="cls-28" d="M133.14,260.39c.3-.89.29-.83-.6-.91-1.26-.11-2.5-.32-3.75-.48-.04.33-.08.65-.12.98,1.12.17,2.24.37,3.36.5.36.04.74-.06,1.11-.09"/>
      <path class="cls-45" d="M126.94,256.88c.22-.87.38-1.74.57-2.62.1,0,.19,0,.29,0-.03.27.03.59-.1.79-.4.65-.1.9.49,1.09.93.31,1.86.65,2.79.98,1.14.16,2.27.31,3.41.47-.11.62-.06,1.3-.65,1.76-.1.07-.11.3-.12.45-.05,1.01-.08,2.02-.12,3.02-.01.38-.09.61-.48.24.04-.89.07-1.78.11-2.68.3-.89.29-.83-.6-.91-1.26-.11-2.5-.32-3.75-.48-.35-.16-.71-.31-1.06-.47-1.03-.47-1.05-.57-.78-1.65"/>
      <path class="cls-45" d="M128.98,247.93c.25-1,.51-2.01.77-3.01.65.02.27.48.22.67-.29,1.27-.64,2.53-.96,3.8-.41,1.63-.81,3.26-1.21,4.88-.1,0-.19,0-.29,0,.28-1.22.57-2.44.85-3.66.21-.89.41-1.78.62-2.67"/>
      <path class="cls-48" d="M129.75,244.91c.65.02.27.48.22.67-.29,1.27-.64,2.53-.96,3.8-.41,1.63-.81,3.26-1.21,4.88-.03.27.03.59-.1.79-.4.65-.1.9.49,1.09.93.31,1.86.65,2.79.98.22-1.12.41-2.23.67-3.35.35-1.54.71-3.08,1.09-4.62.1-.42.21-.84.31-1.27.04-.18.12-.36.15-.54.03-.19,0-.39,0-.59v-.13s0-.09,0-.13c.55-.38.49-1.05.12-1.45-.03-.03-.07-.07-.11-.1-.17-.5-.29-.99-.53-1.37-.02-.05-.04-.09-.06-.14-.21-.45-.48-.88-.78-1.27-.69-.88-1.58-1.59-2.51-2.2-2.08-1.37-4.16-2.74-6.21-4.18-.74-.52-1.36-1.22-2.01-1.86-.11-.11-.12-.32-.18-.48.16-.02.33-.06.49-.04.66.07,1.31.23,1.97.22,2.37-.02,4.74-.09,7.11-.14.13,0,.29,0,.38.07.37.28.73.59,1.09.9.76.67,1.52,1.34,2.29,2.01,1.24,1.07,2.56,2.06,3.71,3.21,1.4,1.41,2.1,3.2,1.65,5.18-.33,1.48-.92,2.92-1.48,4.34-.58,1.49-1.25,2.94-1.88,4.41,1.55.51,3.09,1.01,4.64,1.52.56-1.12,1.13-2.24,1.68-3.36,1.12-2.27,2.23-4.53,3.33-6.8.94-1.96.78-3.88-.55-5.57-.72-.93-1.68-1.72-2.66-2.38-2.33-1.55-4.75-2.97-7.11-4.47-.29-.19-.49-.51-.74-.77-.76.25-1.5.59-2.28.74-.84.17-1.72.18-2.58.26-1.79.04-3.57.14-5.36.1-1.71-.04-3.43-.22-5.14-.34-.59-.04-1.17-.09-1.76-.13-.47.86-.3,1.77-.15,2.65.22,1.29,1,2.3,1.9,3.2,2.42,2.17,5.25,3.74,8.03,5.38.73.43,1.48.84,2.22,1.26"/>
      <path class="cls-40" d="M130,232.8c.86-.08,1.74-.09,2.58-.26.78-.16,1.52-.49,2.28-.74.05-.25.14-.51.14-.77-.04-1.73.28-3.41.65-5.09-.21-.09-.4-.2-.62-.27-2.05-.67-3.79-1.8-5.18-3.44-1.31-1.54-2.17-3.32-2.64-5.29-.07-.05-.15-.1-.22-.15-.25-.14-.63-.23-.71-.43-.31-.82-.53-1.67-.78-2.51-.09-.52-.17-1.05-.29-1.57-.05-.22-.21-.42-.31-.63-.12.18-.26.35-.34.55-.97,2.59-.83,5.2-.11,7.81.64,2.33,1.72,4.42,3.58,6.01.86.73,1.84,1.34,2.84,1.89.48.26.45.43.25.82-.67,1.28-1.15,2.62-1.11,4.1"/>
      <path class="cls-26" d="M125.51,213.83c.25.84.47,1.69.78,2.51.08.21.47.29.71.43,1.8-1.53,4-1.68,6.25-2.09.08-.17.26-.37.23-.5-.08-.81-.27-1.61-.58-2.4-.33-.24-1.58-.28-2.26-.18-1.88.3-3.64.96-5.12,2.22"/>
      <path class="cls-54" d="M140.69,266.09c1.3-.12,2.59-.46,3.88-.72.12-.03.22-.16.33-.25,2.03,3.05-2.98,2.76-4.76,2.87-.39-1.33-1.91-1.34-3.03-1.67,0-.09-.02-.19-.03-.29,1.2.03,2.41.16,3.6.06"/>
      <path class="cls-10" d="M140.83,218.54c.14-.35.21-.73.25-1.11,0,.03.09-.32,0-.09.32-1.14,1.52-1.73,1.63-2.92.33-.31.67-.61,1.19-.73.64,1.03,1.35,2.06,1.95,3.13.83,1.79,2.53,2.81,3.8,4.23-.94.41-1.88,1.42-2.95,1.49-.23.32-.58.53-.96.62-.06.06-.15.11-.26.14l-.02-.04c-2.07-.53-3.31-2.39-4.53-4.15-.2-.11-.25-.54-.09-.55"/>
      <path class="cls-27" d="M140.77,227.4c0,.68.19,1.11.79,1.12.5.01.78-.31.77-.8-.02-.54-.42-1.12-.81-1.14s-.75.47-.75.81"/>
      <path class="cls-27" d="M145.28,224.65v.24c.09.31.16.63.29.93.08.2.28.53.36.51.37-.07.94.07.96-.58.01-.52-.63-1.43-1.14-1.52-.13-.02-.31.27-.48.42"/>
      <path class="cls-10" d="M146.65,218.05s-.06-.09-.1-.13c.03.04.06.09.1.13"/>
      <path class="cls-4" d="M131.97,204.46c.12.09.24.16.34.26.98.89,1.92,1.17,2.99.85-1.15-.38-2.11-1.31-2.49-2.46-.06-.16-.1-.33-.08-.5,0-.08.03-.16.07-.24-.02-.01-.03-.03-.06-.04.04-.42.08-.84.12-1.25.09-.87.18-1.74.27-2.62.61-.46.6-.46.78.27.53,2.19,1.9,3.56,4.05,4.18.3.09.59.17.89.25-.28.05-.57.14-.85.13-.31-.02-.93-.09-1.15.22-.11.16-.08.53-.11.72-.03.28-.07.56-.1.84-.02.13,0,.23.03.36.03.21.18.33.33.48,0,.19,0,.43-.04.63-.11.62-.4,1.32-.84,1.68-.33.27-1.23.27-1.68.04-.71-.37-1.33-.98-1.85-1.6-.5-.59-.98-1.32-.63-2.21"/>
      <path class="cls-28" d="M141.26,210.92c1.03-.45,1.03-.46.43-1.35-.86-1.29-1.88-2.43-3.26-3.2-.21-.12-.45-.2-.67-.3,0,.02,0,.05,0,.06.81,1.32,1.43,2.75,2.44,3.94.24.36.69.57,1.04.85"/>
      <path class="cls-28" d="M127.22,216.93c1.88-.91,3.88-1.45,5.91-1.88.04-.12.08-.24.12-.36-2.31.29-4.45.56-6.25,2.09.07.05.15.1.22.15"/>
      <path class="cls-28" d="M131.63,207.7c.03.06.06.11.09.16-.03-.06-.06-.11-.09-.16"/>
      <path class="cls-16" d="M136.24,193.13c.95.69,2.12.9,3.31.87,1.06-.03,2.21-.64,2.92-1.15-.29-1.33-.47-1.4-1.63-.77-1.47.8-2.95,1.12-4.6,1.06"/>
      <path class="cls-14" d="M137.88,196.7c.93.08.95-1.3-.02-1.22-.86-.07-.79,1.27.02,1.22"/>
      <path class="cls-14" d="M141.23,196.7c.93.08.95-1.3-.02-1.22-.86-.07-.79,1.27.02,1.22"/>
      <path class="cls-28" d="M135.68,193.09h.08s-.06,0-.08,0"/>
      <path class="cls-46" d="M113.86,239.28c.21-.09.41-.18.62-.26-.08-.59-.18-1.18-.25-1.77-.09-.89-.16-1.78-.25-2.67-.23-2.31-.09-4.59.34-6.88.22-1.15.12-2.35.16-3.52-1.13-.08-2.26-.16-3.39-.23-.12,2.11-.23,4.22-.35,6.33-.08,1.39-.16,2.77-.27,4.16-.15,2.11-.33,4.21-.48,6.31-.03.47,0,.96,0,1.43.14-.14.32-.26.42-.43.8-1.3,2.03-2,3.44-2.45"/>
      <path class="cls-45" d="M115.68,268.24c.12,0,.27.02.37-.03.11-.06.18-.19.27-.29-.1-.06-.19-.16-.3-.17-.45-.06-.91-.1-1.36-.13-1.53-.09-3.07-.16-4.6-.27-1.99-.14-3.97-.32-5.95-.48-.1,0-.22-.03-.31,0-.15.04-.28.11-.42.17.13.1.25.29.39.3,1.22.11,2.44.18,3.66.27,2.13.16,4.26.33,6.39.49.62.05,1.24.08,1.86.12v.03"/>
      <path class="cls-27" d="M136.26,253.62c.63-1.47,1.3-2.92,1.88-4.41.56-1.43,1.15-2.86,1.48-4.34.44-1.98-.25-3.77-1.65-5.18-1.15-1.16-2.47-2.14-3.71-3.21-.77-.66-1.52-1.34-2.29-2.01-.36-.31-.71-.62-1.09-.9-.09-.07-.25-.07-.38-.07-2.37.05-4.74.12-7.11.14-.65,0-1.31-.16-1.97-.22-.16-.02-.32.03-.49.04.06.16.07.37.18.48.65.64,1.27,1.33,2.01,1.86,2.04,1.44,4.12,2.81,6.21,4.18,1.73,1.14,3.16,2.5,3.69,4.6.09.35.34.66.51,1,.04.08.08.25.05.28-.62.39-.27,1.02-.4,1.53-.53,2.13-1.04,4.26-1.52,6.4-.25,1.11-.45,2.23-.67,3.35,1.14.16,2.27.31,3.41.47.37-.74.75-1.48,1.12-2.22.25-.59.5-1.18.74-1.76"/>
      <path class="cls-31" d="M141.73,263.88s0-.1-.03-.12c-.5-.4-.41-.68.15-.94.09-.04.16-.34.11-.41-.09-.12-.31-.22-.46-.21-.37.03-.73.15-1.1.2-.13.02-.36-.02-.41-.1-.46-.78-.97-1.42-2.02-1.21-.06.01-.14-.08-.21-.13-.27.14-.53.32-.82.42-.98.33-1.48,1.05-1.68,2.02.11.03.23.07.34.1.36-.25.71-.5,1.08-.73.93-.56,1.92-.61,3.12-.43-.76.25-1.37.43-1.95.66-.13.05-.2.27-.29.4.17.05.34.14.5.13.33-.01.65-.06.97-.12.29-.05.4.02.29.32-.05.14-.06.29-.09.44.2.01.43.09.59.02.58-.27,1.06-.39,1.15.29.25-.19.51-.4.77-.61"/>
      <path class="cls-27" d="M165.26,268.73c.28-.03.58,0,.85-.08.67,1.15,1.97-.38,1.87-1.27,0-.49-.86-1.51-.49-1.73,2.33.62,1.68,4.81-.82,4.47-.49.14-2.53-1.26-1.41-1.39"/>
      <path class="cls-54" d="M136.26,253.62c-.25.59-.5,1.18-.74,1.76.95.38,1.91.76,2.85,1.15.1.04.18.16.27.25.06,0,.12-.03.19-.03.43.01,1.05.22,1.24.01.4-.43.57-1.07.84-1.62-1.55-.51-3.09-1.01-4.64-1.52"/>
      <path class="cls-45" d="M135.59,263.49c-.11-.03-.23-.07-.34-.1-.29.07-.59.14-.87.22-.74.19-1.48.35-2.2.57-.13.04-.19.31-.29.48.2.03.4.08.59.07.35-.02.69-.08,1.04-.12.01.06.02.12.03.17-.03.04-.06.08-.1.12-.15.16-.29.31-.44.47.22.03.44.07.66.1.06,0,.12-.03.18-.04.64-.27,1.27-.26,1.94.05-.37.1-.74.2-1.12.3l-.06.02c-.08.03-.16.06-.24.09-.3.54.06.5.4.43.56-.11,1.11-.24,1.66-.36.1.01.2.03.29.04l.07-.07c0-.21-.1-.5,0-.61.34-.37.12-.5-.21-.56-.28-.06-.57-.03-.86-.05-.06,0-.12.01-.18.02.01-.03.02-.07.03-.1,0-.37-.02-.74-.03-1.11"/>
      <path class="cls-45" d="M137.12,266.32c0-.09-.02-.19-.03-.29-.09-.04-.17-.08-.26-.12l-.07.07c-.12.09-.24.18-.36.26-.31.16-.63.3-.93.47-.08.05-.11.2-.16.3.11.02.25.1.34.06.5-.24.98-.5,1.47-.76"/>
      <path class="cls-10" d="M134.69,265.77c.37-.1.74-.2,1.12-.3-.66-.31-1.3-.32-1.94-.05.28.12.55.23.82.35"/>
      <path class="cls-10" d="M136.4,266.25c.12-.09.24-.18.36-.26-.1-.01-.2-.03-.29-.04-.02.1-.04.2-.06.3"/>
      <path class="cls-10" d="M134.4,265.88c.08-.03.16-.06.24-.09-.08.03-.16.06-.24.09"/>
      <path class="cls-54" d="M131.13,257.61c-1.1-.44-2.19-.9-3.3-1.31-.12-.05-.43.1-.48.23-.43,1.02-.37,1.28.65,1.65,1.01.36,2.08.55,3.12.81,0-.46,0-.92,0-1.38"/>
      <path class="cls-51" d="M131.13,257.61c0,.46,0,.92,0,1.38.7,0,1.39.02,2.09,0,.47-.01.75-.26.67-.75-.03-.14-.22-.34-.36-.36-.79-.12-1.59-.19-2.39-.28"/>
      <path class="cls-32" d="M136.83,265.91c.09.04.17.08.26.12,1.2.03,2.41.16,3.6.06,1.3-.12,2.59-.46,3.88-.72.12-.03.22-.16.33-.25-.55-.55-1.24-.76-1.99-.74-.49.01-.9-.04-1.18-.49-.26.21-.52.41-.77.61-.08-.68-.56-.57-1.15-.29-.16.07-.39,0-.59-.02.03-.15.04-.3.09-.44.11-.31,0-.37-.29-.32-.32.06-.65.11-.97.12-.16,0-.34-.09-.5-.13.09-.14.16-.35.29-.4.59-.23,1.2-.41,1.95-.66-1.19-.18-2.19-.12-3.12.43-.37.22-.72.49-1.08.73,0,.37.02.74.03,1.11.05.03.09.06.14.09.29.01.58,0,.86.05.33.06.54.19.21.56-.1.11,0,.4,0,.61"/>
      <path class="cls-27" d="M91.6,263.75c.66.81,1.57.88,2.53.87,1.5-.02,3-.03,4.5,0,2.54.06,5.07.16,7.6.26,2.3.1,4.59.24,6.89.36,1.7.09,3.41.12,5.1.26,1.63.14,2.59-.74,3.26-2.02,1.08-2.08.87-4.21.03-6.31-1.67-4.15-4.86-6.67-8.91-8.28-2.14-.85-4.34-1.04-6.62-.8-.45.05-.93-.21-1.4-.33-.29.21-.55.51-.87.62-1.92.69-3.62,1.77-5.15,3.07-1.83,1.58-3.29,3.48-4.26,5.72-.94,2.17-1.81,4.38-2.71,6.57"/>
      <path class="cls-33" d="M135.77,264.69s-.09-.06-.14-.09c-.01.03-.02.07-.03.1.06,0,.12-.01.18-.02"/>
      <path class="cls-45" d="M157.61,216.29s.03,0,.04,0c.21.04.43.07.65.07,1.77,0,3.2-1.46,3.2-3.26,0-1.25-.69-2.33-1.7-2.88-.19-.14-.41-.26-.64-.34-.22-.07-.45-.12-.68-.12.06.02.13.03.19.06.23.08.44.19.64.34,1.01.55,1.7,1.63,1.7,2.88,0,1.8-1.43,3.26-3.2,3.26-.06,0-.13,0-.2,0"/>
      <path class="cls-45" d="M110.78,264.19c-2.38,0-4.78-.23-7.11-.45-1.76-.17-3.58-.34-5.36-.4-.29-.02-.59-.04-.88-.06-.29-.02-.59-.05-.88-.07-.4-.03-.91-.07-1.33-.33-.19-.11-.32-.31-.4-.59-.1-.37-.07-.78.1-1.16.6-1.35,1.4-2.65,2.16-3.91.16-.25.31-.5.46-.75,1.12-1.86,2.45-3.3,3.95-4.3,3.1-2.06,7.44-2.51,11.62-1.21.24.07.47.16.7.24.25.09.48.18.69.28h.01c1.71.84,3.1,1.96,4.13,3.32.15.2.3.4.43.62.78,1.06,1.18,2.39,1.18,3.97v.02c-.02.25-.05.5-.09.74s-.11.49-.18.72c-.88,3.38-4.73,3.34-7.54,3.31-.17,0-.34,0-.5,0-.31,0-.62.02-.92.02h-.25M111.94,263.55c.17,0,.34,0,.51,0,2.75.03,6.18.06,6.93-2.85v-.02c.07-.21.12-.43.17-.65.04-.22.07-.44.08-.66,0-1.44-.36-2.66-1.07-3.6v-.02c-.14-.2-.28-.4-.42-.59-.97-1.28-2.28-2.33-3.9-3.13-.2-.09-.42-.17-.65-.26-.22-.08-.44-.16-.67-.23-4-1.24-8.14-.82-11.08,1.13-1.42.94-2.68,2.32-3.76,4.1-.15.25-.31.5-.46.76-.76,1.24-1.54,2.52-2.12,3.83-.08.18-.16.45-.07.74.05.18.11.22.12.22.3.18.7.21,1.05.24.29.02.59.05.88.07.29.02.59.04.87.06,1.79.07,3.61.24,5.38.41,2.39.22,4.86.46,7.29.44.3,0,.6,0,.92-.02"/>
      <path class="cls-21" d="M158.24,223.36c0,2.32.93,4.19,2.09,4.19s2.09-1.88,2.09-4.19-.93-4.19-2.09-4.19-2.09,1.88-2.09,4.19"/>
      <path class="cls-23" d="M160.41,220.13c-.9,0-1.62,1.5-1.62,3.35s.72,3.35,1.62,3.35v-6.7h0Z"/>
      <path class="cls-52" d="M161.81,263.6c.49.99.94,2.02,1.52,2.95.68,1.31,1.27,3.37,2.97,2.21.01,0,.08-.07.08-.08.17-.08.25-.12.41-.22-.31-1.69-.89-3.3-1.37-4.95-.1-.36-.26-.6-.68-.55-.98.21-1.99.31-2.94.63"/>
      <path class="cls-27" d="M160.44,261.04c.4.9,1.18,1.58,1.27,2.58.99-.3,2.02-.45,3.04-.65.47-.08.67-.58.64-.95-.46-1.82-1.3-3.33-.99-5.27-.03.06-.06.12-.09.18.03-.06.06-.13.09-.18,4.06-2.2,8.68.14,12.75,1.24.87-.26,3.01-.81,1.81-1.97-1.71-1.77-3.64-3.29-5.99-4.09-4.24-1.58-9.38-1.57-13.22,1.01-4.21,2.78-1.3,5.01.7,8.08"/>
      <path class="cls-27" d="M163.68,262.18c-.4.09-.81.19-1.22.27.41-.08.82-.18,1.22-.27"/>
      <path class="cls-27" d="M161.42,262.62c.15-.02.29-.03.43-.06-.15.02-.29.03-.43.06"/>
      <path class="cls-40" d="M142.79,214.34s.05.07.07.11c.09.13.35.11.53.17.23-.16.46-.32.69-.47-.03-.11-.07-.22-.1-.32-.03-.04-.06-.09-.08-.13-.47.12-.8.37-1.11.66"/>
      <path class="cls-42" d="M145.42,225.12c-.02-.08-.04-.15-.06-.21.03.07.04.14.06.21"/>
      <path class="cls-48" d="M141.53,218.76c1,1.39,3.39,3.12,5.16,3.63-.29.19-.59.37-.87.56-.29.13-.78.16-.96.46-.18.46.36.87.5,1.28.72-1.35,2.52,1.82.61,1.57-.28-.16-.43-.73-.54-1.14.38,1.51-1.01,1.61-2.23,1.76-1.14.82-1.19-2.03-2.85-.3,0,.04-.02.06-.06.07-.96,1.4.56,3.17,2.11,2.53,2.09-.53,4.19-1.92,6.35-1.04,2.09.68,2.17,1.24.95,3.06-1.91,1.93-.67,6.09.34,8.87,2.84,8.6,3.34,10.66-.62,21.07-.56,1.92-1.18,3.76-2.71,5.06-1.84,1.7-4.66.94-6.87,1.79-.83.61-.3,1.77.63,1.83,8.79,1.08,10.05-8.31,12.25-15.22,2.17-6.55-1.8-12.84-3.15-19.03-.59-1.85,1.84-7.58,4-5.16.43.62.7,1.38,1.25,1.92l.49-.26c-2.45-3.49-.09-1.83,2.25-1.3-.37-.93-1.04-1.6-2.03-2.16,1.56-.26,2.97-.5,4.38-.74-.84-.34-1.3-1.01-1.73-1.72-2.51.37-5.71.96-5.33-2.63-.06,0-.12.01-.17.02-.06.67.12,1.29-.76,1.37-1.33.22-2.65.48-3.97.74-.67.19-.93-1.19-1.49-1.56-.19-.22-.31-.31,0-.49,1.4-.76,2.79-1.53,4.19-2.29,1.74-2.02,4.69-2.71,7.29-3.13-.65-.06-1.3-.12-2.05-.19.5-1.12.8-1.5,1.27-1.63.19.08.39.14.59.19.22.05.45.07.68.07,1.86,0,3.37-1.54,3.37-3.43,0-.69-.2-1.33-.54-1.86-.31-.49-.74-.89-1.25-1.16-.21-.15-.43-.27-.67-.35-.61-.21-1.29-.17-1.88.06-.11.04-.22.1-.33.16h0c-1.21.52-2.06,1.74-2.06,3.16,0,.19.02.39.05.57.07.44.23.85.45,1.22.06.1.12.19.19.28.12,1.1-.2,2.4-1.07,3.05-1.71.66-3.38,1.44-4.98,2.34-.76.44-1.52.87-2.27,1.33-1.96-.69-3.51-2.3-5.19-3.57.6-.45,1.08-1.19,1.3-2.3.16-.87-.11-1.76-.63-2.47-.94-1.3-2.7-2.05-4.2-1.2-1.52.94-2.17,1.98-2.23,2.95-.17,2.31,2.92,4.22,5.1,3.38M140.84,227.39c.18-1.24,1.34-.88,1.39.32,0,1.22-1.6.93-1.39-.32"/>
      <path class="cls-10" d="M127.22,216.93c.99,6.12,6.99,9.84,12.75,9.72.83.09.58-.49,1.3-.53.68.06,1.33,1.54,2.07.86.09-.09.22-.13.34-.13,2.26-.06,2.24-1.59,1.07-3.29-7.4.61-9.22-2.02-11.63-8.5-2.03.43-4.03.97-5.91,1.88"/>
      <path class="cls-42" d="M134.91,192.43c.15-.16.55-.21.79-.14,1.34.36,2.63.17,3.88-.29,1.99-.56,4.47-3.67,6.31-2.51,1.29.81-2.57,4.11-3.51,3.37-.35-2.81-1.54.87-6.7.24-.16.47-.47.92-.65,1.36.06.91.06,1.3-.71,1.9-.53-.55-.6-1.36-1.38-1.61.65-.78,1.28-1.57,1.97-2.31"/>
      <path class="cls-15" d="M138.96,199.89c.4.33,1.03.47,1.44.11.06-.06.18-.25.25-.28.09-.03.09.1.08.19-.07.47-.45.73-.79.81-.41.1-.84,0-1.14-.39-.07-.09-.28-.58-.07-.59.06,0,.12.05.17.09.02.02.03.03.06.05"/>
      <path class="cls-10" d="M137.04,206.38c0-.17-.03-.45-.03-.45,0,0-.35-.33-.36-.62-.19-.15-.31-.25-.53-.35-1.29-.37-3.15-3.17-3.31-2.59-.5,1.74-1.06,2.23-.83,3.05.5,1.74,2.3,3.58,3.63,3.13.45-.15.93-.61,1.2-1.04.12-.2.23-.99.23-1.12h0Z"/>
      <path class="cls-52" d="M139.91,267.45c-.38.16-.74.36-1.14.46-1.94.47-3.89.4-5.84.03-1.29-.25-2.6-.44-3.89-.7-.33-.06-.63-.29-.94-.44-.09.52-.17,1.03-.26,1.55.31.82,1.1.82,1.71.87,1.66.28,3.29.19,4.95.27,1.02.05,2.05-.02,3.07,0,.6,0,1.52.02,2.12-.03.61-.21.61-.78.46-1.47-.08-.18-.16-.36-.24-.53"/>
      <path class="cls-26" d="M137.63,189.97c.06.05.13.08.21.08.09,0,.17-.04.24-.11,1.83-2.11,4.64-1.02,4.76-.97.03.01.07.02.1.02-.03-.01-.06-.03-.1-.05-.65-.36-1.24-.63-1.85-.9-1.07,0-2.36.32-3.38,1.5-.11.13-.1.33.03.44"/>
      <path class="cls-54" d="M155.02,213.19c0,.19.02.39.05.57.15.01.29.01.43,0,.92-.05,1.8-.39,2.64-.77,1.06-.48,2.09-1.04,3.07-1.67-.31-.49-.74-.89-1.25-1.16-.21-.15-.43-.27-.67-.35-.61-.21-1.29-.17-1.88.06-.11.04-.22.1-.33.16h0c-1.21.52-2.06,1.74-2.06,3.16"/>
      <path class="cls-54" d="M136.43,215.38s.09.07.13.09c.28.16.62.16.95.15,1.06-.04,2.13-.17,3.13-.53.47-.17.91-.4,1.32-.68.28-.19.67-.47.91-.78-.94-1.3-2.7-2.05-4.2-1.2-1.52.94-2.17,1.98-2.23,2.95"/>
      <rect class="cls-25" x="63.57" y="154.77" width="146.54" height="146.54"/>
    </g>
  </g>
</svg>