<?xml version="1.0" encoding="UTF-8"?>
<svg xmlns="http://www.w3.org/2000/svg" xmlns:xlink="http://www.w3.org/1999/xlink" viewBox="0 0 1040 412.12">
  <defs>
    <style>
      .cls-1 {
        fill: url(#Degradado_sin_nombre_5-4);
      }

      .cls-1, .cls-2, .cls-3, .cls-4, .cls-5, .cls-6, .cls-7, .cls-8, .cls-9, .cls-10, .cls-11, .cls-12, .cls-13, .cls-14, .cls-15, .cls-16, .cls-17, .cls-18, .cls-19, .cls-20, .cls-21, .cls-22, .cls-23, .cls-24, .cls-25, .cls-26, .cls-27, .cls-28, .cls-29, .cls-30, .cls-31, .cls-32, .cls-33, .cls-34, .cls-35, .cls-36, .cls-37, .cls-38, .cls-39, .cls-40, .cls-41, .cls-42, .cls-43, .cls-44, .cls-45, .cls-46, .cls-47, .cls-48, .cls-49, .cls-50, .cls-51, .cls-52, .cls-53, .cls-54, .cls-55, .cls-56, .cls-57, .cls-58, .cls-59 {
        stroke-width: 0px;
      }

      .cls-2 {
        fill: url(#Degradado_sin_nombre_82);
      }

      .cls-3 {
        fill: #b9cadb;
      }

      .cls-4 {
        fill: url(#Degradado_sin_nombre_8-2);
      }

      .cls-5 {
        fill: #f9f8e5;
      }

      .cls-6 {
        fill: #000;
      }

      .cls-7 {
        fill: #00426b;
      }

      .cls-8 {
        fill: url(#Degradado_sin_nombre_8);
      }

      .cls-9 {
        fill: #6b4d2b;
      }

      .cls-10 {
        fill: url(#Degradado_sin_nombre_105);
      }

      .cls-11 {
        fill: #d3d3d3;
      }

      .cls-11, .cls-16, .cls-18, .cls-44, .cls-46, .cls-59 {
        mix-blend-mode: multiply;
      }

      .cls-12 {
        fill: #c78c6b;
      }

      .cls-13 {
        fill: url(#Degradado_sin_nombre_92);
      }

      .cls-14 {
        fill: #ffff3c;
      }

      .cls-15 {
        fill: url(#Degradado_sin_nombre_4-4);
      }

      .cls-16 {
        opacity: .7;
      }

      .cls-16, .cls-17, .cls-18, .cls-59 {
        fill: #49d0f4;
      }

      .cls-18 {
        opacity: .5;
      }

      .cls-60 {
        clip-path: url(#clippath-2);
      }

      .cls-19 {
        fill: #1f1b62;
      }

      .cls-61 {
        isolation: isolate;
      }

      .cls-20 {
        fill: url(#Degradado_sin_nombre_4-2);
      }

      .cls-21 {
        fill: url(#Degradado_sin_nombre_90);
      }

      .cls-22 {
        fill: #9f88b3;
      }

      .cls-23 {
        fill: url(#Degradado_sin_nombre_82-2);
      }

      .cls-24 {
        fill: url(#Degradado_sin_nombre_5-2);
      }

      .cls-25 {
        fill: url(#Degradado_sin_nombre_6-2);
      }

      .cls-26, .cls-44 {
        fill: #00ad37;
      }

      .cls-27 {
        fill: none;
      }

      .cls-28 {
        fill: #d09871;
      }

      .cls-29 {
        fill: url(#Degradado_sin_nombre_5-3);
      }

      .cls-30 {
        fill: #6fb353;
      }

      .cls-31 {
        fill: #b28598;
      }

      .cls-62 {
        clip-path: url(#clippath-1);
      }

      .cls-32 {
        fill: #a52b31;
      }

      .cls-33 {
        fill: url(#Degradado_sin_nombre_90-2);
      }

      .cls-34 {
        fill: #92e68b;
      }

      .cls-35 {
        fill: #eab2af;
      }

      .cls-36 {
        fill: url(#Degradado_sin_nombre_91);
      }

      .cls-37 {
        fill: url(#Degradado_sin_nombre_4);
      }

      .cls-38 {
        fill: #3b683d;
      }

      .cls-39 {
        fill: #d8eae5;
      }

      .cls-40 {
        fill: url(#Degradado_sin_nombre_11);
      }

      .cls-41 {
        fill: #efc8a6;
      }

      .cls-42 {
        fill: url(#Degradado_sin_nombre_9);
        fill-rule: evenodd;
      }

      .cls-43 {
        fill: url(#Degradado_sin_nombre_4-3);
      }

      .cls-63 {
        clip-path: url(#clippath);
      }

      .cls-45 {
        fill: #d6cde9;
      }

      .cls-46 {
        fill: #fee191;
        opacity: .97;
      }

      .cls-47 {
        fill: #97c877;
      }

      .cls-64 {
        clip-path: url(#clippath-3);
      }

      .cls-48 {
        fill: #997b55;
      }

      .cls-49 {
        fill: #40128b;
      }

      .cls-50 {
        fill: #de912f;
      }

      .cls-51 {
        fill: #fff;
      }

      .cls-52 {
        fill: url(#Degradado_sin_nombre_2);
      }

      .cls-53 {
        fill: url(#Degradado_sin_nombre_10);
      }

      .cls-54 {
        fill: url(#Degradado_sin_nombre_5);
      }

      .cls-55 {
        fill: url(#Degradado_sin_nombre_91-2);
      }

      .cls-56 {
        fill: #96a5ca;
      }

      .cls-57 {
        fill: url(#Degradado_sin_nombre_6);
      }

      .cls-58 {
        fill: #826fce;
      }

      .cls-59 {
        opacity: .56;
      }
    </style>
    <clipPath id="clippath">
      <rect class="cls-27" y="-87.88" width="1040" height="500"/>
    </clipPath>
    <radialGradient id="Degradado_sin_nombre_11" data-name="Degradado sin nombre 11" cx="673.19" cy="288.25" fx="673.19" fy="288.25" r="796.83" gradientUnits="userSpaceOnUse">
      <stop offset="0" stop-color="#d7eef4"/>
      <stop offset=".12" stop-color="#cdeaf4"/>
      <stop offset=".33" stop-color="#b4e0f5"/>
      <stop offset=".58" stop-color="#8bd0f7"/>
      <stop offset=".88" stop-color="#54baf9"/>
      <stop offset=".98" stop-color="#41b3fa"/>
    </radialGradient>
    <linearGradient id="Degradado_sin_nombre_91" data-name="Degradado sin nombre 91" x1="442.94" y1="55.24" x2="442.94" y2="-6.92" gradientUnits="userSpaceOnUse">
      <stop offset="0" stop-color="#ade5f4"/>
      <stop offset=".12" stop-color="#b9e9f5"/>
      <stop offset=".5" stop-color="#dff4fa"/>
      <stop offset=".81" stop-color="#f6fcfd"/>
      <stop offset="1" stop-color="#fff"/>
    </linearGradient>
    <linearGradient id="Degradado_sin_nombre_91-2" data-name="Degradado sin nombre 91" x1="838.94" y1="18.04" x2="976.3" y2="18.04" xlink:href="#Degradado_sin_nombre_91"/>
    <linearGradient id="Degradado_sin_nombre_10" data-name="Degradado sin nombre 10" x1="149.67" y1="306.16" x2="92.23" y2="430.24" gradientUnits="userSpaceOnUse">
      <stop offset="0" stop-color="#d7eef4"/>
      <stop offset=".81" stop-color="#8addf4"/>
      <stop offset="1" stop-color="#78daf4"/>
    </linearGradient>
    <linearGradient id="Degradado_sin_nombre_9" data-name="Degradado sin nombre 9" x1="529.41" y1="75.72" x2="529.41" y2="369.49" gradientUnits="userSpaceOnUse">
      <stop offset=".08" stop-color="#4377d4"/>
      <stop offset=".98" stop-color="#41b3fa"/>
    </linearGradient>
    <linearGradient id="Degradado_sin_nombre_92" data-name="Degradado sin nombre 92" x1="329.28" y1="355.24" x2="329.28" y2="221.35" gradientUnits="userSpaceOnUse">
      <stop offset=".02" stop-color="#41b3fa"/>
      <stop offset=".1" stop-color="#41adf6"/>
      <stop offset=".69" stop-color="#4286dd"/>
      <stop offset="1" stop-color="#4377d4"/>
    </linearGradient>
    <clipPath id="clippath-1">
      <rect class="cls-27" y="-87.88" width="1040" height="500"/>
    </clipPath>
    <linearGradient id="Degradado_sin_nombre_90" data-name="Degradado sin nombre 90" x1="881.64" y1="227.51" x2="955.64" y2="227.51" gradientUnits="userSpaceOnUse">
      <stop offset="0" stop-color="#c98e38"/>
      <stop offset=".26" stop-color="#a17028"/>
      <stop offset=".89" stop-color="#472d05"/>
    </linearGradient>
    <linearGradient id="Degradado_sin_nombre_90-2" data-name="Degradado sin nombre 90" x1="1008.24" y1="201.58" x2="1038.4" y2="201.58" xlink:href="#Degradado_sin_nombre_90"/>
    <linearGradient id="Degradado_sin_nombre_2" data-name="Degradado sin nombre 2" x1="908.4" y1="280.97" x2="994.19" y2="297.31" gradientUnits="userSpaceOnUse">
      <stop offset=".02" stop-color="#fbb146"/>
      <stop offset="1" stop-color="#fb9346"/>
    </linearGradient>
    <linearGradient id="Degradado_sin_nombre_8" data-name="Degradado sin nombre 8" x1="614.38" y1="321.88" x2="614.38" y2="462.86" gradientTransform="translate(10.35 -17.54) rotate(1.33)" gradientUnits="userSpaceOnUse">
      <stop offset="0" stop-color="#00a133"/>
      <stop offset=".5" stop-color="#007e2d"/>
      <stop offset=".99" stop-color="#006129"/>
    </linearGradient>
    <linearGradient id="Degradado_sin_nombre_105" data-name="Degradado sin nombre 105" x1="614.16" y1="327.41" x2="614.16" y2="488.93" gradientUnits="userSpaceOnUse">
      <stop offset="0" stop-color="#eba641"/>
      <stop offset=".14" stop-color="#d69639"/>
      <stop offset=".44" stop-color="#a06e25"/>
      <stop offset=".87" stop-color="#4a2f06"/>
      <stop offset=".89" stop-color="#472d05"/>
    </linearGradient>
    <linearGradient id="Degradado_sin_nombre_6" data-name="Degradado sin nombre 6" x1="1000.95" y1="325.12" x2="1000.95" y2="408.52" gradientUnits="userSpaceOnUse">
      <stop offset="0" stop-color="#006e2e"/>
      <stop offset=".98" stop-color="#003b18"/>
    </linearGradient>
    <linearGradient id="Degradado_sin_nombre_5" data-name="Degradado sin nombre 5" x1="1620.05" y1="608.49" x2="1695.95" y2="608.49" gradientTransform="translate(-812.13 741.76) rotate(-31.59)" gradientUnits="userSpaceOnUse">
      <stop offset="0" stop-color="#00e047"/>
      <stop offset=".44" stop-color="#00a63a"/>
      <stop offset=".81" stop-color="#007d31"/>
      <stop offset=".99" stop-color="#006e2e"/>
    </linearGradient>
    <linearGradient id="Degradado_sin_nombre_4" data-name="Degradado sin nombre 4" x1="1634.84" y1="567.11" x2="1673.33" y2="631.09" gradientTransform="translate(-812.13 741.76) rotate(-31.59)" gradientUnits="userSpaceOnUse">
      <stop offset="0" stop-color="#006e2e"/>
      <stop offset=".99" stop-color="#005724"/>
    </linearGradient>
    <linearGradient id="Degradado_sin_nombre_5-2" data-name="Degradado sin nombre 5" x1="582.16" y1="470.76" x2="658.07" y2="470.76" gradientTransform="translate(481.15 -245.77) rotate(14.62)" xlink:href="#Degradado_sin_nombre_5"/>
    <linearGradient id="Degradado_sin_nombre_4-2" data-name="Degradado sin nombre 4" x1="596.96" y1="429.38" x2="635.44" y2="493.37" gradientTransform="translate(481.15 -245.77) rotate(14.62)" xlink:href="#Degradado_sin_nombre_4"/>
    <linearGradient id="Degradado_sin_nombre_6-2" data-name="Degradado sin nombre 6" x1="236.89" y1="337.45" x2="236.89" y2="411.09" xlink:href="#Degradado_sin_nombre_6"/>
    <linearGradient id="Degradado_sin_nombre_8-2" data-name="Degradado sin nombre 8" x1="659.84" y1="361.62" x2="659.84" y2="409.9" gradientTransform="matrix(1,0,0,1,0,0)" xlink:href="#Degradado_sin_nombre_8"/>
    <linearGradient id="Degradado_sin_nombre_5-3" data-name="Degradado sin nombre 5" x1="1063.67" y1="266.39" x2="1139.57" y2="266.39" gradientTransform="translate(1448.58 741.76) rotate(-148.41) scale(1 -1)" xlink:href="#Degradado_sin_nombre_5"/>
    <linearGradient id="Degradado_sin_nombre_4-3" data-name="Degradado sin nombre 4" x1="1078.46" y1="225.01" x2="1116.94" y2="289" gradientTransform="translate(1448.58 741.76) rotate(-148.41) scale(1 -1)" xlink:href="#Degradado_sin_nombre_4"/>
    <linearGradient id="Degradado_sin_nombre_5-4" data-name="Degradado sin nombre 5" x1="-49.88" y1="635.63" x2="26.03" y2="635.63" gradientTransform="translate(155.29 -245.77) rotate(165.38) scale(1 -1)" xlink:href="#Degradado_sin_nombre_5"/>
    <linearGradient id="Degradado_sin_nombre_4-4" data-name="Degradado sin nombre 4" x1="-35.08" y1="594.25" x2="3.4" y2="658.24" gradientTransform="translate(155.29 -245.77) rotate(165.38) scale(1 -1)" xlink:href="#Degradado_sin_nombre_4"/>
    <clipPath id="clippath-2">
      <rect class="cls-27" y="-87.88" width="1040" height="500"/>
    </clipPath>
    <linearGradient id="Degradado_sin_nombre_82" data-name="Degradado sin nombre 82" x1="890.28" y1="16.65" x2="894.28" y2="67.98" gradientUnits="userSpaceOnUse">
      <stop offset="0" stop-color="#df314b"/>
      <stop offset="1" stop-color="#9e2335"/>
    </linearGradient>
    <linearGradient id="Degradado_sin_nombre_82-2" data-name="Degradado sin nombre 82" x1="890.28" y1="16.65" x2="894.28" y2="67.98" xlink:href="#Degradado_sin_nombre_82"/>
    <clipPath id="clippath-3">
      <rect class="cls-27" x="486.3" y="-69.14" width="499.06" height="499.06"/>
    </clipPath>
  </defs>
  <g class="cls-61">
    <g id="Background">
      <g class="cls-63">
        <rect class="cls-40" y="-87.88" width="1040" height="500"/>
        <g>
          <path class="cls-36" d="M516.72,22.86c-.36-7.1-6.22-12.75-13.41-12.75-4.15,0-7.86,1.88-10.32,4.84-2.13-8.8-10.04-15.35-19.5-15.35-3.53,0-6.85.92-9.73,2.52-4.12-9.69-13.72-16.48-24.91-16.48-10.45,0-19.51,5.93-24.02,14.6-1.58-.4-3.23-.64-4.94-.64-9.04,0-16.67,5.97-19.19,14.18-2.21-1.44-4.85-2.29-7.69-2.29-6.86,0-12.58,4.89-13.86,11.38h147.57Z"/>
          <path class="cls-55" d="M976.3,35.36c-.34-6.61-5.79-11.87-12.48-11.87-3.86,0-7.31,1.75-9.61,4.5-1.98-8.19-9.34-14.29-18.15-14.29-3.29,0-6.37.86-9.06,2.35-3.83-9.02-12.77-15.34-23.19-15.34-9.73,0-18.16,5.52-22.35,13.59-1.47-.37-3.01-.59-4.6-.59-8.41,0-15.52,5.56-17.87,13.2-2.06-1.34-4.52-2.13-7.16-2.13-6.39,0-11.71,4.55-12.9,10.59h137.36Z"/>
          <path class="cls-53" d="M233.7,315.66c-18.78,0-35.9,7.08-48.85,18.72-8.96-18.34-27.79-30.97-49.57-30.97-17.54,0-33.16,8.2-43.26,20.96-2.29-16.23-15.4-28.98-31.8-30.71.99-4.38,1.53-8.93,1.53-13.61,0-34.05-27.61-61.66-61.66-61.66-4.59,0-9.05.52-13.35,1.47v205.29h310.45c6.14-10.71,9.67-23.1,9.67-36.33,0-40.4-32.75-73.15-73.15-73.15Z"/>
        </g>
        <g>
          <g>
            <polygon class="cls-17" points="621.29 104.05 617.23 102.28 617.12 65.97 611.18 63.38 611.11 39.68 603.59 36.4 601.75 10.05 600.01 34.84 592.99 31.78 593.09 55.49 586.8 52.75 586.94 89.08 582.51 87.15 583.37 304.94 621.86 304.5 621.29 104.05"/>
            <path class="cls-17" d="M819.08,200.15l9.39-9.39v-6.26h-9.39v-15.13h.61l2.87-2.87v-4.52h-5.22v-5.22h-.09v-1.61c0-1.51-1.23-2.74-2.74-2.74s-2.74,1.23-2.74,2.74v1.61h-7.91v-1.61c0-1.51-1.23-2.74-2.74-2.74s-2.74,1.23-2.74,2.74v1.61h-7.91v-1.61c0-1.51-1.23-2.74-2.74-2.74s-2.74,1.23-2.74,2.74v1.61h-7.91v-1.61c0-1.51-1.23-2.74-2.74-2.74s-2.74,1.23-2.74,2.74v1.61h-7.91v-1.61c0-1.51-1.23-2.74-2.74-2.74s-2.74,1.23-2.74,2.74v1.61h-7.91v-1.61c0-1.51-1.23-2.74-2.74-2.74s-2.74,1.23-2.74,2.74v1.61h-7.91v-1.61c0-1.51-1.23-2.74-2.74-2.74s-2.74,1.23-2.74,2.74v1.61h-7.91v-1.61c0-1.51-1.23-2.74-2.74-2.74s-2.74,1.23-2.74,2.74v1.61h-7.91v-1.61c0-1.51-1.23-2.74-2.74-2.74s-2.74,1.23-2.74,2.74v1.61h-7.91v-1.61c0-1.51-1.23-2.74-2.74-2.74s-2.74,1.23-2.74,2.74v1.61h-7.91v-1.61c0-1.51-1.23-2.74-2.74-2.74s-2.74,1.23-2.74,2.74v1.61h-7.91v-1.61c0-1.51-1.23-2.74-2.74-2.74s-2.74,1.23-2.74,2.74l.17,6.83h-5.22v4.52l2.87,2.87h.61v15.13h-9.39v6.26l9.39,9.39h1.04v43.83h-1.91v5.33l2.96.93v60.87l-4.87,4.87-.35,2.09h58.79v-67.94l2.09-.44v-5.71h-1.39c0-.11-.39-.08-.7-.05v-4.65c0-12.39,10.05-22.44,22.44-22.44s22.44,10.05,22.44,22.44v4.63c-.26-.02-.52-.02-.52.07h-1.91v5.33l2.44.77v68h58.79l-.35-2.09-4.87-4.87v-60.87l2.78-.88v-5.39h-1.74v-43.83h1.04Z"/>
            <path class="cls-59" d="M920.18,249.55c-1.16-.27-2.32,0-3.23.63.25-1.78.39-3.6.39-5.46,0-2.24-.2-4.43-.57-6.56.93.74,2.18,1.07,3.44.79,2.19-.5,3.56-2.68,3.06-4.87s-2.68-3.56-4.87-3.06c-1.28.29-2.28,1.16-2.79,2.27-1.25-4.03-3.15-7.78-5.56-11.14,1.25.4,2.67.19,3.78-.69,1.76-1.4,2.04-3.96.64-5.71-1.4-1.76-3.96-2.04-5.71-.64-1.12.89-1.64,2.25-1.51,3.58-2.88-3.17-6.28-5.85-10.06-7.93,1.38-.12,2.66-.94,3.3-2.28.97-2.02.12-4.45-1.9-5.43-2.02-.97-4.45-.12-5.43,1.9-.64,1.34-.49,2.85.28,4.01-3.92-1.63-8.17-2.64-12.61-2.9,1.2-.71,2.01-2.01,2.01-3.5,0-2.25-1.82-4.07-4.07-4.07s-4.07,1.82-4.07,4.07c0,1.48.79,2.77,1.97,3.48-4.41.21-8.62,1.18-12.53,2.75.71-1.14.84-2.61.21-3.91-.97-2.02-3.4-2.87-5.43-1.9-2.02.97-2.87,3.4-1.9,5.43.61,1.27,1.8,2.08,3.1,2.26-3.7,2.01-7.03,4.61-9.88,7.67.05-1.25-.47-2.51-1.52-3.35-1.76-1.4-4.31-1.11-5.71.64-1.4,1.76-1.11,4.31.64,5.71,1.02.81,2.31,1.05,3.49.77-2.35,3.26-4.21,6.89-5.46,10.79-.54-.99-1.48-1.75-2.66-2.02-2.19-.5-4.37.87-4.87,3.06-.5,2.19.87,4.37,3.06,4.87,1.14.26,2.28,0,3.18-.6-.36,2.12-.56,4.3-.56,6.52,0,1.75.13,3.47.35,5.16-.87-.52-1.94-.73-3-.49-2.19.5-3.56,2.68-3.06,4.87.5,2.19,2.68,3.56,4.87,3.06,1.03-.23,1.87-.84,2.43-1.64,1.09,3.7,2.72,7.17,4.8,10.32-.93-.03-1.88.26-2.66.88-1.76,1.4-2.04,3.96-.64,5.71,1.4,1.76,3.96,2.04,5.71.64.76-.61,1.25-1.43,1.44-2.32,2.53,2.76,5.46,5.14,8.69,7.07-.79.39-1.46,1.03-1.87,1.88-.97,2.02-.12,4.45,1.9,5.43,2.02.97,4.45.12,5.43-1.9.4-.84.49-1.74.31-2.58,2.22.87,4.55,1.54,6.95,1.98v26.72h14.8v-26.83c2.23-.45,4.38-1.1,6.45-1.92-.21.87-.13,1.82.29,2.69.97,2.02,3.4,2.87,5.43,1.9,2.02-.97,2.87-3.4,1.9-5.43-.43-.89-1.14-1.55-1.97-1.93,3.28-1.96,6.24-4.38,8.8-7.18.16.96.65,1.87,1.47,2.53,1.76,1.4,4.31,1.11,5.71-.64,1.4-1.76,1.11-4.31-.64-5.71-.84-.67-1.88-.95-2.87-.87,2.14-3.21,3.81-6.77,4.92-10.56.55.92,1.46,1.63,2.59,1.89,2.19.5,4.37-.87,4.87-3.06.5-2.19-.87-4.37-3.06-4.87ZM892.26,273.48l-8.74-21.1,16.17,16.17c-2.22,1.97-4.72,3.64-7.43,4.93ZM857.51,268.55l16.17-16.17-8.74,21.1c-2.71-1.29-5.21-2.96-7.43-4.93ZM864.73,216.06l8.94,21.59-16.48-16.48c2.24-2.04,4.78-3.77,7.54-5.11ZM900,221.17l-16.48,16.48,8.94-21.59c2.76,1.34,5.3,3.06,7.54,5.11ZM880.32,236.33v-23.4c3.12.17,6.13.79,8.95,1.8l-8.95,21.6ZM876.87,236.33l-8.95-21.6c2.82-1.01,5.82-1.63,8.95-1.8v23.4ZM869.91,246.74l-21.26,8.8c-1.01-2.78-1.63-5.73-1.83-8.8h23.08ZM846.79,243.29c.14-3.09.72-6.07,1.69-8.88l21.43,8.88h-23.11ZM876.87,253.71v22.81c-3.04-.16-5.97-.76-8.73-1.73l8.73-21.08ZM880.32,253.7l8.73,21.09c-2.76.96-5.69,1.56-8.73,1.73v-22.81ZM887.29,243.29l21.43-8.88c.96,2.8,1.55,5.78,1.69,8.88h-23.11ZM910.36,246.74c-.19,3.07-.82,6.03-1.83,8.8l-21.26-8.8h23.08ZM907.42,231.21l-21.46,8.89,16.46-16.46c2,2.26,3.69,4.81,4.99,7.57ZM854.77,223.64l16.46,16.46-21.46-8.89c1.3-2.77,2.99-5.31,4.99-7.57ZM850.01,258.73l21.22-8.79-16.19,16.19c-2.01-2.21-3.7-4.7-5.03-7.4ZM902.15,266.13l-16.19-16.19,21.22,8.79c-1.33,2.7-3.03,5.19-5.03,7.4Z"/>
          </g>
          <g>
            <path class="cls-16" d="M495.5,318.05l-4.2,7.97,36.61-.35-6.61-8.27h-1.03s-14.06-20.13-14.06-20.13l-4.42-6.6-1.06-1.59c-.35-.53-.71-1.06-1.04-1.6l-2.03-3.23c-2.65-4.35-5.1-8.83-7.37-13.41-.12-.24-.23-.49-.35-.73l-.08-6.48h1.13s-.02-1.69-.02-1.69l-4.76.06c-2.78-6.43-5.23-13.03-7.34-19.76-2.15-6.85-3.99-13.82-5.56-20.88,1.01-.53,1.8-1.45,2.12-2.6l1.42-5.03-5.11.07c-.11-.59-.23-1.17-.34-1.76-1.92-10.25-3.33-20.64-4.38-31.1-.52-5.23-.96-10.48-1.32-15.74-.19-2.63-.34-5.26-.5-7.9l-.46-7.96-3.24-55.57c-.08-1.42,1.05-2.63,2.5-2.65h.24s-.09-7.22-.09-7.22h-1.1s-.02-1.41-.02-1.41l-1.36.02-.02-1.28c-.01-.8-.59-1.52-1.39-1.62-.85-.11-1.58.43-1.78,1.18h-.99s-.02-1.25-.02-1.25c0-.69-.46-1.26-1.08-1.48l-.71-9.92c-.01-.2-.31-.19-.32,0l-.4,9.94c-.61.23-1.04.82-1.03,1.5l.02,1.26h-1.12c-.22-.73-.96-1.25-1.81-1.12-.8.13-1.36.86-1.35,1.66l.02,1.28-1.36.02.02,1.43h-1.1s.09,7.23.09,7.23c1.44-.02,2.61,1.16,2.56,2.58l-1.82,55.64-.26,7.97c-.09,2.65-.18,5.28-.3,7.91-.23,5.27-.53,10.52-.92,15.76-.78,10.48-1.93,20.9-3.59,31.2-.09.59-.2,1.18-.3,1.77l-5.11.07,1.55,5c.35,1.14,1.16,2.04,2.19,2.55-1.39,7.1-3.05,14.11-5.02,21.02-1.94,6.78-4.22,13.44-6.83,19.94l-6.26.08.02,1.68,1.36-.02.12,9.12c-1.9,3.97-3.93,7.87-6.12,11.68l-1.94,3.28c-.32.55-.66,1.09-1,1.63l-1.02,1.62-4.25,6.71-11.68,18.44h0s-1.79,2.37-1.79,2.37h-1.03s-5.79,7.77-5.79,7.77l36.38-.23-4.59-7.86h-1.03s-1.32-2.32-1.32-2.32l5.48-9.51,2.01-3.46c.67-1.16,1.33-2.28,2.02-3.52l1.02-1.82c.05-.09.1-.17.14-.26h0c6.35-8.46,16.49-14.01,27.98-14.15,11.33-.14,21.48,4.99,28.05,13.09.12.2.24.4.36.6l1.07,1.79c.72,1.22,1.41,2.33,2.11,3.47l2.09,3.4,5.96,9.37-1.26,2.37h-1.03ZM456.77,180.59c.89,4.99,2.53,23.5,3.35,33.35-1.93.02-3.86.05-5.79.07.6-8.18,2.44-33.42,2.44-33.42ZM445.28,262.52c1.7-5.4,3.18-10.86,4.45-16.34.89-3.82,1.68-7.65,2.39-11.49l10.72-.14c.81,3.82,1.7,7.63,2.68,11.43,1.41,5.45,3.03,10.87,4.87,16.22l-25.11.32Z"/>
            <path class="cls-18" d="M401.77,192.71l-1.05-1.04-.12-26.55h-2.44s-.08-17.8-.08-17.8h-3.14s-.06-12.56-.06-12.56l-3.84.02-.04-8.03-7.62-13.19c1.13-.27,1.96-1.29,1.96-2.5,0-1.12-.73-2.07-1.74-2.41l-.73-17.14h-.35s-.58,17.14-.58,17.14c-1.01.35-1.73,1.31-1.72,2.43,0,1.21.85,2.22,1.98,2.48l-7.5,13.26.04,8.03-3.84.02.06,12.57h-3.14s.08,17.83.08,17.83h-2.44s.12,26.56.12,26.56l-1.04,1.05.34,76.32.23,77.5c0-.32,37.26-.48,37.26-.16l-.57-153.81Z"/>
            <path class="cls-18" d="M979.66,176.31l-1.04-1.14-.12-28.91h-2.41s-.08-19.39-.08-19.39l-3.1.02-.05-13.69-3.78.02-.03-8.75-.05-.09h-7.31l-.65-16.8h-.34s-.51,16.8-.51,16.8h-7.1l-.09.17.03,8.75-3.78.02.05,13.69-3.1.02.08,19.4h-2.41s.12,28.92.12,28.92l-1.03,1.15.33,83.11.23,84.4c0-.34,36.7-.52,36.7-.18l-.56-167.51Z"/>
            <path class="cls-42" d="M569.79,287.89l-10.1-2.9c-.19-.37-.39-.78-.6-1.25-2.36-5.08-3.53-11.79-3.53-11.79,0,0,1.11,1.13.98-3.08-.13-4.2-.85-8.97-.86-11.45-.01-2.48.63-5.63.63-5.63,0,0,1.97-.92,1.61-3.2-.37-2.28-.57-7.79-.57-7.79,0,0,1.08.37.9-2.87-.18-3.24-1.08-37-1.08-37,0,0,1.9.53,2.82,1.3.92.78,5.12.87,7.3-2.73,2.18-3.6,3.08-6.47,3.31-8.33.23-1.85,2.09-4.64,2.05-6.5-.04-1.86.71-5.77-.32-7.17-1.03-1.4-.8-3.19-1.08-4.57-.27-1.38-.12-1.66-.57-2.36-.45-.7-1.14-1.89-1.14-1.89l3.47-7.36-2.7-5.16-2.92-.69-3.12,5.92s-1-.64-1.53-1.07c-.53-.42-3.69-7.24-4.62-9.4-.92-2.16-2.14-3.9-3.24-5.31-1.1-1.4-1.5-1.76-2.64-2.33-1.14-.58.4-1.02-1.62-2.03-2.01-1.01-3.72-2.56-4.32-4.3-.31-.89-.43-1.21-.47-1.31,0,0-.02,0-.02,0,0,0-.03-.1.02,0,.08.03,1.01.32,1.33-.66.33-1.03-.81-3.05-.81-3.05,0,0,.88-2.53.61-3.84-.28-1.31-1.27-2.03-1.27-2.03l-.31-2.07s.37.83,1.04-.11c.67-.95.57-1.64.12-3.65-.09-.42-.26-.94-.5-1.53l11.14-2.53-12.36.08c-.39-.66-.84-1.33-1.34-1.96l8.4-6.26-10.27,4.3c-.33-.28-.67-.53-1.03-.76-.5-.32-1.09-.64-1.75-.93l1.65-7.11.62-2.68-3.41,6.24-1.45,2.65c-.17-.05-.35-.09-.53-.13-.84-.19-1.72-.32-2.59-.36l-.99-1.61-1.63-2.64-4.35-7.07,3.18,8.56,1.1,2.97c-1.12.24-2.17.69-3.06,1.43l-1.05-.55-10.78-5.7,9.59,7.22.84.63c-.62.92-1,1.74-1.21,2.47l-2.26.27-6.89.81c0-.09,0-.18-.01-.27-.04-1.93-1.69-8.78-3.76-14-2.08-5.21-1.49-4.51-2.4-8.25-.91-3.74-.72-4.77-1.35-7.19-.63-2.43-1.36-4.44-2.39-5.84-1.03-1.4-1.3-1.48-1.3-1.48l.41-2.74s.99-.46,1.08-.94c.09-.48-.49-1.11-.49-1.11,0,0,4.17-.73,4.2-1.42.03-.69,1.37-1.14.87-2.25-.49-1.11-1.21-1.82-.76-2.63.45-.82,1.32-1.55,1.32-1.55l-1.23-.17.39-.96-1.8.24-.22-1.04-2.66.38c.02-.38-.06-.83-.12-1.23h0c-.09-.56-.14-1.04.16-1.15.51-.2.75-.78,1.39-1.97.64-1.19,3.76-3.54,3.95-4.62.18-1.08.56-1.95.25-2.5-.3-.55-1.23,1.18-2.39,1.91-1.16.72-1.7-.2-2.77.4-1.07.6.2-2.33-.86-2.86-1.06-.52-2.21.83-3.27,1.97-1.06,1.15-1.72.29-3.1,1.97-1.38,1.68-.38,4.16.55,5.52.42.79.56,1.24.57,1.72l-1.22-.52-1.1,1.28-1.91-.32-.39.89-1.37-.17.29.97-1.17-.09s1.47.79,1.5,1.84c-.27.45-.51,1.91-.9,2.23-.39.32-.54.82-.07,1.29.48.47.89,1.36,1.91,1.71.36.13.79.29,1.18.45-.64.45.06,1.28,1.22,1.92.24.48.46,1.24.46,1.24l-.06,1.21s-.99-.19-1.2.72c-.21.91.62,1.72.62,1.72,0,0-.58.03-.63.99-.05.96.84,1.56.84,1.56,0,0-1.15.39-.58,1.57.57,1.18,1.3,1.4,1.3,1.4,0,0,.44,2.81.02,3.67-.42.87-.38,1.66-.38,1.66,0,0-.73.36-.39,1.12.34.76.88.77.85,2.19-.03,1.42.26,1.51.26,1.51,0,0,.85,2.15,1.6,2.16.75.02,1.59-.88,1.61-1.34.02-.46.22,3.01.48,5.23.26,2.22,1.09,9.7,2.48,13.61,1.39,3.91,1.86,6.13,2.34,8.1.48,1.97.85,3.73.25,4.84-.6,1.11-2.75,5.7-3.01,9.23v.06c-.18,2.28-.51,4.06-.23,5.01.15.51.48.78,1.1.75,1.8-.08,2,.84,2.51.56.15-.08.2.06.22.34.06.69-.06,2.22.73,3.1,1.1,1.23,1.44.45,1.79,4.13.36,3.68.09,3.92,1.04,6.66.94,2.73,1.24,3.45,1.24,3.45,0,0-3.9,4.54-5.67,10.63-1.77,6.09-1.8,11.6-.99,13.03.8,1.44,1.5,2.54,1.5,2.54,0,0-1.52,5.22-1.52,9.52,0,4.3.11,7.15.49,9.22.38,2.07.79,3.39.79,3.39,0,0,.04,1.86.39,3.25.34,1.39.4,3.04.4,3.04,0,0-.48,9.42-.02,12.67.45,3.25.51,4.9.81,7.11.3,2.21,1.05,4.98,1.8,7.89.75,2.91,1.82,6.24,1.82,6.24,0,0,.05,1.66-.43,5.71-.48,4.05-2.05,16-4.12,18.84-2.07,2.84-5.61,4.69-8.11,6.63-.23.18-.43.37-.59.55l-10.73.74-3.09,33.37,84.16,1.9-.17-30.33ZM518.52,120.3c-.48-1-.84-1.89-1.34-1.95-.61-.08-1.37-.54-1.55-2.01l5.71.36,3.21.2c.01.13.03.25.05.36.21,1.12.8,1.69.8,1.69v.21s-2.98.87-2.98.87l-3.51,1.03c-.14-.25-.27-.51-.4-.76ZM522.16,129.9c-.73-.73-.89-.78-1.14-1.53-.04-.12-.08-.26-.13-.43-.35-1.18-.04-1.86-.61-2.91-.27-.5-.36-1.05-.48-1.64-.13-.65-.28-1.33-.71-2.03l2.38-.1,3.96-.17c.01.52.03,1.07.05,1.59.03.68.07,1.3.13,1.72.2,1.45.37,2.21.98,2.3.61.08,1.19-.46,1.19-.46l.08,1.1s-.7,1.5-1.23,2.45c-.53.95-1.08,2.25-1.08,2.25,0,0-2.55-1.3-3.4-2.14Z"/>
            <path class="cls-13" d="M269.07,289.55l-.14,27.83h0s-6.53-.04-6.53-.04l-22.89,34.07,179.49-8.7-21.55-24.61-6.51-.04.14-27.83c10.26-.56,15.22-4.13,15.22-4.13,0,0-.11-.02-.31-.07.12-.05.2-.09.2-.09,0,0-13.53-4.22-21.79-8.63l-4.85-.03.05-16.03h1.69c3.77.03,7.35-1.79,9.42-4.94.17-.25.27-.43.32-.51.03-.02.06-.05.06-.05,0,0-15.81-8.68-19.95-19.4l.03-4.93s0,.01,0,.01v-1.62s-3.75,6.5-14,6.44l-53.55-.3c-10.24-.06-13.93-6.6-13.93-6.6l-.04,6.52c-4.25,10.69-20.17,19.03-20.17,19.03,0,0,.04.06.1.14-.03.01-.05.02-.05.02,0,0,.11.22.34.57,2.04,3.17,5.6,5.03,9.37,5.05h1.64s-.05,16.03-.05,16.03l-4.9-.03c-8.3,4.32-21.85,8.43-21.85,8.43,0,0,.05.02.12.05-.16.03-.25.05-.25.05,0,0,4.91,3.62,15.12,4.3ZM369.85,303.23c.02-3.07,2.43-5.55,5.39-5.53,2.93.02,5.28,2.47,5.32,5.5l-.08,14.81h0s-10.71-.06-10.71-.06l.08-14.72ZM363.75,264.63c2.42.01,4.41,1.78,4.8,4.08-.38,2.34-2.4,4.13-4.85,4.12-2.42-.01-4.41-1.78-4.8-4.08.38-2.34,2.4-4.13,4.85-4.12ZM360.06,303.08l-.08,14.81-10.7-.06.08-14.72c.02-3.07,2.43-5.55,5.39-5.53,2.93.02,5.28,2.47,5.32,5.5ZM349.66,264.63c2.42.01,4.41,1.78,4.8,4.08-.38,2.34-2.4,4.13-4.85,4.12-2.42-.01-4.41-1.78-4.8-4.08.38-2.34,2.4-4.13,4.85-4.12ZM335.58,264.63c2.42.01,4.41,1.78,4.8,4.08-.38,2.34-2.4,4.13-4.85,4.12-2.42-.01-4.41-1.78-4.8-4.08.38-2.34,2.4-4.13,4.85-4.12ZM338.87,302.94l-.08,14.83h0s-8.86-.05-8.86-.05l-8.84-.05.08-14.72c.02-3.07,3.99-5.54,8.88-5.51,4.83.03,8.73,2.48,8.81,5.5ZM321.49,264.63c2.42.01,4.41,1.78,4.8,4.08-.38,2.34-2.4,4.13-4.85,4.12-2.42-.01-4.41-1.78-4.8-4.08.38-2.34,2.4-4.13,4.85-4.12ZM307.41,264.63c2.42.01,4.41,1.78,4.8,4.08-.38,2.34-2.4,4.13-4.85,4.12-2.42-.01-4.41-1.78-4.8-4.08.38-2.34,2.4-4.13,4.85-4.12ZM300,302.84c.02-3.07,2.43-5.55,5.39-5.53,2.93.02,5.28,2.47,5.32,5.5l-.08,14.81h0s-10.71-.06-10.71-.06l.08-14.72ZM293.33,264.63c2.42.01,4.41,1.78,4.8,4.08-.38,2.34-2.4,4.13-4.85,4.12-2.42-.01-4.41-1.78-4.8-4.08.38-2.34,2.4-4.13,4.85-4.12ZM279.51,302.72c.02-3.07,2.43-5.55,5.39-5.53,2.93.02,5.28,2.47,5.32,5.5l-.08,14.81-10.7-.06.08-14.72Z"/>
          </g>
        </g>
      </g>
      <g class="cls-62">
        <g>
          <g>
            <g>
              <path class="cls-21" d="M881.64,163.52s35.84,92.19,68.94,132.38l5.06-4.17s-39.68-48.37-70-132.61l-4,4.39Z"/>
              <path class="cls-26" d="M883.17,123.61c1.48.08,2.94.44,4.28,1.06-2.11,1.93-3.98,4.14-5.54,6.54,1.02.1,2.04.19,3.06.29-1.05,1.8-2.1,3.6-3.15,5.4,1.16-.24,2.4-.03,3.43.56-1.4,2.79-2.52,5.73-3.32,8.75,1.06-.84,2.13-1.68,3.19-2.52-.71,3.48-1.42,6.96-2.13,10.45.82-.28,1.64-.56,2.45-.84-.36,4.86-.76,9.71-1.17,14.56-3.14-7.03-6.27-14.05-9.41-21.08-1.43-3.21-2.87-6.44-3.66-9.87-2.84-12.38,3.19-24.88,9.04-36.16,1.6,3.58,2.01,7.69,1.15,11.52.63-.91,1.43-1.71,2.34-2.35-.71,2.4-1.03,4.92-.95,7.42.78-1.01,2.38-1.25,3.41-.52-.63,2.4-1.65,4.71-3.02,6.79Z"/>
              <path class="cls-44" d="M883.17,123.61c1.48.08,2.94.44,4.28,1.06-2.11,1.93-3.98,4.14-5.54,6.54,1.02.1,2.04.19,3.06.29-1.05,1.8-2.1,3.6-3.15,5.4,1.16-.24,2.4-.03,3.43.56-1.4,2.79-2.52,5.73-3.32,8.75,1.06-.84,2.13-1.68,3.19-2.52-.71,3.48-1.42,6.96-2.13,10.45.82-.28,1.64-.56,2.45-.84-.36,4.86-.76,9.71-1.17,14.56-8.71-21.98-9.87-55.83-4.02-67.1,1.6,3.58,2.01,7.69,1.15,11.52.63-.91,1.43-1.71,2.34-2.35-.71,2.4-1.03,4.92-.95,7.42.78-1.01,2.38-1.25,3.41-.52-.63,2.4-1.65,4.71-3.02,6.79Z"/>
              <path class="cls-26" d="M907.54,138c1.39.48,2.78.97,4.16,1.45-2.54.94-5.07,1.89-7.61,2.83.63.77,1.26,1.55,1.88,2.32-2.42,1.04-5.06,1.56-7.69,1.49.58.87,1.46,1.53,2.45,1.83-1.74,1.26-3.7,2.21-5.76,2.8.92.35,1.83.7,2.75,1.05-2.24.2-4.43.87-6.4,1.95.88.92,2.19,1.4,3.46,1.28-5.17,3.08-9.36,7.8-11.8,13.3-.06-14.07,6.78-27.48,16.15-37.98,7.26-8.13,17.31-15.22,28.15-14.04-2.66,2.24-5.54,4.23-8.58,5.92.99-.41,2.1-.48,3.13-.21-2.59,2.25-5.4,4.26-8.37,6,1.47.03,2.95.06,4.42.08-2,1.78-4.25,3.28-6.67,4.43,1.86.33,3.71.65,5.57.98-3.08,1.5-6.17,3-9.25,4.5Z"/>
              <path class="cls-44" d="M907.54,138c1.39.48,2.78.97,4.16,1.45-2.54.94-5.07,1.89-7.61,2.83.63.77,1.26,1.55,1.88,2.32-2.42,1.04-5.06,1.56-7.69,1.49.58.87,1.46,1.53,2.45,1.83-1.74,1.26-3.7,2.21-5.76,2.8.92.35,1.83.7,2.75,1.05-2.24.2-4.43.87-6.4,1.95.88.92,2.19,1.4,3.46,1.28-5.17,3.08-9.36,7.8-11.8,13.3-.06-14.07,33.47-53.19,44.3-52.01-2.66,2.24-5.54,4.23-8.58,5.92.99-.41,2.1-.48,3.13-.21-2.59,2.25-5.4,4.26-8.37,6,1.47.03,2.95.06,4.42.08-2,1.78-4.25,3.28-6.67,4.43,1.86.33,3.71.65,5.57.98-3.08,1.5-6.17,3-9.25,4.5Z"/>
              <path class="cls-26" d="M858,145.73c-.82.45-1.27,1.49-1.03,2.39,2.4-.6,4.92-.75,7.38-.44-.98.78-1.63,1.98-1.73,3.24,2.2-.17,4.42.03,6.56.57-.38.64-.76,1.27-1.14,1.91,2.06.61,4.16,1.09,6.29,1.45-.6.51-1.2,1.03-1.79,1.54,1.3,1.2,2.92,2.05,4.65,2.44-.43,3.2,5.44,3.38,6.52,6.42-2.13-5.69-4.29-11.43-7.59-16.53-3.3-5.1-7.89-9.57-13.61-11.63-4.2-1.51-8.81-1.65-13.2-.85-8.39,1.53-16.28,6.75-19.96,14.44,3.7-2.22,7.41-4.44,11.11-6.66-.18,1.52-.86,2.97-1.9,4.08,2.31-1.59,4.63-3.18,6.94-4.77-.3,1.22-.23,2.52.19,3.7,1.47-1.74,3.53-2.97,5.75-3.43-.23,1.12-.45,2.24-.68,3.36,2.25-1.03,4.78-1.46,7.25-1.24Z"/>
              <path class="cls-44" d="M858,145.73c-.82.45-1.27,1.49-1.03,2.39,2.4-.6,4.92-.75,7.38-.44-.98.78-1.63,1.98-1.73,3.24,2.2-.17,4.42.03,6.56.57-.38.64-.76,1.27-1.14,1.91,2.06.61,4.16,1.09,6.29,1.45-.6.51-1.2,1.03-1.79,1.54,1.3,1.2,2.92,2.05,4.65,2.44-.43,3.2,5.44,3.38,6.52,6.42-2.13-5.69-7.63-18.02-23.77-24.23-7.87-3.03-21.54-.29-30.59,9.67,3.7-2.22,7.41-4.44,11.11-6.66-.18,1.52-.86,2.97-1.9,4.08,2.31-1.59,4.63-3.18,6.94-4.77-.3,1.22-.23,2.52.19,3.7,1.47-1.74,3.53-2.97,5.75-3.43-.23,1.12-.45,2.24-.68,3.36,2.25-1.03,4.78-1.46,7.25-1.24Z"/>
              <path class="cls-26" d="M848.7,172.23c2.06-1.7,4.13-3.4,6.19-5.1.09.88.19,1.77.28,2.65,2.16-1.45,4.31-2.91,6.47-4.36.23,1.32.46,2.63.69,3.95,1.87-1.35,3.74-2.71,5.61-4.07.02.97.05,1.94.07,2.9,2-2.04,4.53-4.24,7.33-3.67,1.21.25,2.25,1.01,3.41,1.46,1.15.45,2.64.52,3.46-.41.76-.86,2.21-.31,1.54-1.24-.67-.93-3.34-3.45-4.38-3.96-9.98-4.87-22.06-6.48-32.2-1.96-10.55,4.71-17.4,15.15-21.96,25.77,4.54-3.47,8.63-7.52,12.14-12.03.75,1.16,1.07,2.58.9,3.95,1.18-1.44,2.36-2.88,3.53-4.31-.1,1.03-.2,2.05-.3,3.08,2.34-1.93,4.67-3.86,7.01-5.79.07,1.04.14,2.08.21,3.13Z"/>
              <path class="cls-44" d="M848.7,172.23c2.06-1.7,4.13-3.4,6.19-5.1.09.88.19,1.77.28,2.65,2.16-1.45,4.31-2.91,6.47-4.36.23,1.32.46,2.63.69,3.95,1.87-1.35,3.74-2.71,5.61-4.07.02.97.05,1.94.07,2.9,2-2.04,4.53-4.24,7.33-3.67,1.21.25,2.25,1.01,3.41,1.46,1.15.45,2.64.52,3.46-.41.76-.86,2.21-.31,1.54-1.24-.67-.93-18.26-8.18-34.23-1.51-10.67,4.45-19.75,10.75-24.32,21.37,4.54-3.47,8.63-7.52,12.14-12.03.75,1.16,1.07,2.58.9,3.95,1.18-1.44,2.36-2.88,3.53-4.31-.1,1.03-.2,2.05-.3,3.08,2.34-1.93,4.67-3.86,7.01-5.79.07,1.04.14,2.08.21,3.13Z"/>
              <path class="cls-26" d="M854.9,205.46c1.31-2.04,2.63-4.09,3.94-6.13.69,1.02,1.39,2.03,2.08,3.05.86-1.99,1.73-3.98,2.59-5.96.38.61.76,1.21,1.14,1.82.82-1.91,1.48-3.89,1.97-5.91.7,1.28,2.76.06,3.07-1.37.31-1.43,0-3.12,1-4.18.54.37,1.08.74,1.63,1.11.08-1.19.17-2.42.77-3.45.6-1.03,1.86-1.78,2.98-1.39.83-2.25,1.28-4.64,1.31-7.04.13.75,1.41.55,1.68-.17.26-.72-.07-1.5-.22-2.25-.15-.75.02-1.73.76-1.93,1.52-2.25,3.23-5.06,3.81-7.71-5.3.34-10.82,3.42-14.66,7.09-3.84,3.66-6.77,8.16-9.66,12.61-6.17,9.49-12.33,18.98-18.5,28.47,3.49-1.53,6.54-4.06,8.69-7.21.31.97.61,1.94.92,2.91,1.2-2.03,2.68-3.9,4.4-5.52.1,1.06.19,2.11.29,3.17Z"/>
              <path class="cls-26" d="M895.41,209.03c-1.18-2.29-2.62-4.44-4.3-6.39,1.03.27,2.05.53,3.08.8-.49-2.19-.98-4.38-1.48-6.56-.32.38.54.81.84.41.3-.4.1-.96-.11-1.42-.77-1.69-1.54-3.38-2.31-5.07.33.84,1.33,1.35,2.2,1.12-1.09-2.16-2.19-4.32-3.28-6.48.64-.15,1.29-.31,1.94-.46-1.01-2.59-2.03-5.19-3.04-7.78-1.93-4.47-3.57-9.07-4.91-13.75-6.82,10.64-8.6,24.2-5.52,36.45,3.08,12.26,10.81,23.15,20.89,30.78-.25-3.44-1.22-6.83-2.82-9.88.65.4,1.3.81,1.95,1.21-.34-2.64-1.56-5.17-3.43-7.06.44.64,1.12,1.1,1.88,1.25-1.07-2.88-2.75-5.54-4.88-7.74,1.04.42,2.17.62,3.3.59Z"/>
              <path class="cls-44" d="M882.74,179.88c-.24,6.3.48,12.61,1.84,18.76,2.36,10.69,6.39,23.43,14.73,31.13-.34-3.13-1.24-6.2-2.7-8.98.65.4,1.3.81,1.95,1.21-.31-2.4-1.35-4.7-2.95-6.53.4.35.88.61,1.4.72-1.07-2.88-2.75-5.54-4.88-7.74,1.04.42,2.17.62,3.3.59-1.18-2.29-2.62-4.44-4.3-6.39,1.03.27,2.05.53,3.08.8-.46-2.04-.92-4.08-1.38-6.12.21.15.57.2.74-.03.3-.4.1-.96-.11-1.42-.77-1.69-1.54-3.38-2.31-5.07.33.84,1.33,1.35,2.2,1.12-1.09-2.16-2.19-4.32-3.28-6.48.64-.15,1.29-.31,1.94-.46-1.01-2.59-2.03-5.18-3.04-7.78-1.66-3.85-3.1-7.8-4.32-11.82-1.55,4.59-1.71,9.79-1.9,14.51Z"/>
              <path class="cls-26" d="M906.97,185.56c-1.38-1.7-2.76-3.4-4.14-5.1-.19.62-.39,1.25-.58,1.88-3.21-3.49-6.43-6.98-9.64-10.47.04.75.07,1.5.11,2.25-1.24-1.55-2.28-3.26-3.08-5.08.08.7-.16,1.43-.65,1.94-2.08-2.41-4.16-4.81-6.24-7.22,11.72-.34,23.51,4.18,31.99,12.28,8.48,8.1,13.54,19.66,13.74,31.39-1.32-2.04-2.65-4.08-3.97-6.12-.11,1.03-.22,2.06-.34,3.09-1.28-2.54-2.56-5.08-3.85-7.62.36-.32.61.65.14.74-.47.09-.84-.39-1.08-.81-.87-1.51-1.75-3.03-2.62-4.54-.05.93-.37,1.84-.92,2.6-1.36-2.33-2.73-4.65-4.09-6.98-.41.51-.62,1.19-.56,1.85-1.3-2.55-2.6-5.1-3.9-7.65.1,1.2,0,2.41-.33,3.57Z"/>
              <path class="cls-44" d="M906.97,185.56c-1.38-1.7-2.76-3.4-4.14-5.1-.19.62-.39,1.25-.58,1.88-3.21-3.49-6.43-6.98-9.64-10.47.04.75.07,1.5.11,2.25-1.24-1.55-2.28-3.26-3.08-5.08.08.7-.16,1.43-.65,1.94-2.08-2.41-4.16-4.81-6.24-7.22,11.72-.34,45.53,31.94,45.73,43.67-1.32-2.04-2.65-4.08-3.97-6.12-.11,1.03-.22,2.06-.34,3.09-1.28-2.54-2.56-5.08-3.85-7.62.36-.32.61.65.14.74-.47.09-.84-.39-1.08-.81-.87-1.51-1.75-3.03-2.62-4.54-.05.93-.37,1.84-.92,2.6-1.36-2.33-2.73-4.65-4.09-6.98-.41.51-.62,1.19-.56,1.85-1.3-2.55-2.6-5.1-3.9-7.65.1,1.2,0,2.41-.33,3.57Z"/>
              <path class="cls-26" d="M933.86,164.19c-2.51-.71-5.19-.82-7.76-.33.31,1.07.61,2.15.92,3.22-2.37-1.58-5.07-2.66-7.88-3.12.5.9.99,1.79,1.49,2.69-2.46-1.06-5.17-1.53-7.84-1.37.46.62.93,1.23,1.39,1.85-2.81-.41-5.62-.83-8.43-1.24-.21.88.15,1.86.87,2.4-2.17.41-4.44.23-6.52-.5.26.61.51,1.22.77,1.84-5.25-3.47-11.5-5.39-17.79-5.48,2.28-3.3,6.19-5,9.92-6.47,8.03-3.14,16.34-5.92,24.95-6.37,8.61-.45,17.64,1.64,24.17,7.28-2.51.06-5.01.13-7.52.19,1.14.8,2.28,1.61,3.43,2.41-1.98-.44-4.06-.39-6.01.13.4,1.07,1.04,2.06,1.85,2.87Z"/>
              <path class="cls-44" d="M933.86,164.19c-2.51-.71-5.19-.82-7.76-.33.31,1.07.61,2.15.92,3.22-2.37-1.58-5.07-2.66-7.88-3.12.5.9.99,1.79,1.49,2.69-2.46-1.06-5.17-1.53-7.84-1.37.46.62.93,1.23,1.39,1.85-2.81-.41-5.62-.83-8.43-1.24-.21.88.15,1.86.87,2.4-2.17.41-4.44.23-6.52-.5.26.61.51,1.22.77,1.84-5.25-3.47-11.5-5.39-17.79-5.48,2.28-3.3,52.51-11.2,59.04-5.56-2.51.06-5.01.13-7.52.19,1.14.8,2.28,1.61,3.43,2.41-1.98-.44-4.06-.39-6.01.13.4,1.07,1.04,2.06,1.85,2.87Z"/>
            </g>
            <path class="cls-44" d="M854.9,205.46c1.31-2.04,2.63-4.09,3.94-6.13.69,1.02,1.39,2.03,2.08,3.05.86-1.99,1.73-3.98,2.59-5.96.38.61.76,1.21,1.14,1.82.82-1.91,1.48-3.89,1.97-5.91.7,1.28,2.76.06,3.07-1.37.31-1.43,0-3.12,1-4.18.54.37,1.08.74,1.63,1.11.08-1.19.17-2.42.77-3.45.6-1.03,1.86-1.78,2.98-1.39.83-2.25,1.28-4.64,1.31-7.04.13.75,1.41.55,1.68-.17.26-.72-.07-1.5-.22-2.25-.15-.75.02-1.73.76-1.93,1.52-2.25,3.23-5.06,3.81-7.71-13.03,11.2-31.61,36.11-42.82,48.17,3.49-1.53,6.54-4.06,8.69-7.21.31.97.61,1.94.92,2.91,1.2-2.03,2.68-3.9,4.4-5.52.1,1.06.19,2.11.29,3.17Z"/>
          </g>
          <g>
            <g>
              <path class="cls-33" d="M1008.24,111.22s1.48,122.9,22.46,184.1l7.7-2.64s-25.07-73.59-23.6-184.83l-6.57,3.37Z"/>
              <path class="cls-26" d="M1027.43,65.45c1.68.74,3.22,1.8,4.51,3.11-3.3,1.33-6.43,3.08-9.3,5.19,1.14.56,2.29,1.11,3.43,1.67-2.01,1.63-4.01,3.27-6.02,4.9,1.45.23,2.81,1.01,3.74,2.15-2.85,2.64-5.43,5.57-7.68,8.73,1.6-.51,3.21-1.03,4.81-1.54-2.35,3.74-4.69,7.48-7.04,11.23,1.07.03,2.15.06,3.22.09-2.54,5.49-5.12,10.97-7.72,16.43-.58-9.54-1.17-19.08-1.75-28.63-.27-4.36-.53-8.75.05-13.07,2.1-15.64,14.57-27.56,26.29-38.13.3,4.87-1.01,9.83-3.69,13.91,1.14-.78,2.41-1.37,3.75-1.72-1.87,2.49-3.35,5.27-4.35,8.22,1.34-.83,3.31-.42,4.2.89-1.78,2.52-3.98,4.75-6.47,6.58Z"/>
              <path class="cls-44" d="M1027.43,65.45c1.68.74,3.22,1.8,4.51,3.11-3.3,1.33-6.43,3.08-9.3,5.19,1.14.56,2.29,1.11,3.43,1.67-2.01,1.63-4.01,3.27-6.02,4.9,1.45.23,2.81,1.01,3.74,2.15-2.85,2.64-5.43,5.57-7.68,8.73,1.6-.51,3.21-1.03,4.81-1.54-2.35,3.74-4.69,7.48-7.04,11.23,1.07.03,2.15.06,3.22.09-2.54,5.49-5.12,10.97-7.72,16.43-.55-29.37,12.87-69.26,24.59-79.83.3,4.87-1.01,9.83-3.69,13.91,1.14-.78,2.41-1.37,3.75-1.72-1.87,2.49-3.35,5.27-4.35,8.22,1.34-.83,3.31-.42,4.2.89-1.78,2.52-3.98,4.75-6.47,6.58Z"/>
              <path class="cls-26" d="M1049.5,92.82c1.4,1.17,2.81,2.34,4.21,3.51-3.36,0-6.72-.02-10.09-.03.39,1.17.79,2.35,1.18,3.52-3.27.16-6.57-.4-9.6-1.62.29,1.26,1.03,2.41,2.06,3.2-2.57.7-5.26.96-7.92.75.91.81,1.83,1.61,2.74,2.42-2.69-.75-5.54-.93-8.3-.52.63,1.45,1.94,2.59,3.46,3-7.36,1.33-14.29,4.99-19.53,10.33,6.07-16.4,19.88-29.02,35.36-37.14,11.99-6.29,26.78-10.15,38.88-4.05-4.08,1.45-8.29,2.5-12.57,3.14,1.32-.04,2.66.36,3.74,1.13-4,1.49-8.14,2.61-12.35,3.33,1.7.67,3.4,1.35,5.1,2.02-3.1,1.2-6.37,1.96-9.69,2.24,2.02,1.19,4.03,2.38,6.05,3.57-4.24.4-8.49.8-12.73,1.2Z"/>
              <path class="cls-44" d="M1049.5,92.82c1.4,1.17,2.81,2.34,4.21,3.51-3.36,0-6.72-.02-10.09-.03.39,1.17.79,2.35,1.18,3.52-3.27.16-6.57-.4-9.6-1.62.29,1.26,1.03,2.41,2.06,3.2-2.57.7-5.26.96-7.92.75.91.81,1.83,1.61,2.74,2.42-2.69-.75-5.54-.93-8.3-.52.63,1.45,1.94,2.59,3.46,3-7.36,1.33-14.29,4.99-19.53,10.33,6.07-16.4,62.15-47.29,74.24-41.19-4.08,1.45-8.29,2.5-12.57,3.14,1.32-.04,2.66.36,3.74,1.13-4,1.49-8.14,2.61-12.35,3.33,1.7.67,3.4,1.35,5.1,2.02-3.1,1.2-6.37,1.96-9.69,2.24,2.02,1.19,4.03,2.38,6.05,3.57-4.24.4-8.49.8-12.73,1.2Z"/>
              <path class="cls-26" d="M988.48,80.2c-1.15.16-2.13,1.18-2.24,2.34,3.06.35,6.05,1.27,8.78,2.7-1.49.48-2.76,1.6-3.42,3.01,2.63.77,5.13,1.96,7.38,3.53-.72.58-1.44,1.15-2.16,1.73,2.13,1.61,4.37,3.09,6.68,4.43-.92.34-1.84.67-2.76,1.01,1,1.96,2.51,3.66,4.34,4.87-1.89,3.53,4.85,6.3,4.79,10.31,0-7.55,0-15.17-1.62-22.54-1.62-7.37-5.01-14.58-10.76-19.47-4.22-3.59-9.54-5.76-14.99-6.75-10.42-1.88-21.89.75-29.52,8.1,5.28-.97,10.56-1.93,15.83-2.9-.87,1.69-2.29,3.08-4,3.92,3.39-.84,6.77-1.68,10.16-2.53-.88,1.28-1.37,2.83-1.39,4.39,2.47-1.38,5.4-1.91,8.19-1.49-.75,1.2-1.51,2.41-2.26,3.61,3.07-.21,6.2.39,8.97,1.72Z"/>
              <path class="cls-44" d="M988.48,80.2c-1.15.16-2.13,1.18-2.24,2.34,3.06.35,6.05,1.27,8.78,2.7-1.49.48-2.76,1.6-3.42,3.01,2.63.77,5.13,1.96,7.38,3.53-.72.58-1.44,1.15-2.16,1.73,2.13,1.61,4.37,3.09,6.68,4.43-.92.34-1.84.67-2.76,1.01,1,1.96,2.51,3.66,4.34,4.87-1.89,3.53,4.85,6.3,4.79,10.31,0-7.55-1.01-24.29-17.08-38.57-7.84-6.96-24.93-9.73-39.81-2.09,5.28-.97,10.56-1.93,15.83-2.9-.87,1.69-2.29,3.08-4,3.92,3.39-.84,6.77-1.68,10.16-2.53-.88,1.28-1.37,2.83-1.39,4.39,2.47-1.38,5.4-1.91,8.19-1.49-.75,1.2-1.51,2.41-2.26,3.61,3.07-.21,6.2.39,8.97,1.72Z"/>
              <path class="cls-26" d="M966.1,106.98c3.14-1.08,6.28-2.15,9.42-3.23-.28,1.07-.55,2.14-.83,3.2,3.15-.75,6.29-1.5,9.43-2.25-.31,1.63-.61,3.27-.92,4.9,2.77-.76,5.54-1.52,8.3-2.28-.39,1.14-.79,2.27-1.18,3.41,3.22-1.49,7.12-2.96,10.12-1.07,1.3.82,2.18,2.15,3.33,3.18,1.14,1.03,2.85,1.75,4.2,1.03,1.26-.67,2.71.61,2.33-.77-.38-1.38-2.39-5.48-3.37-6.51-9.49-10.02-22.84-17.17-36.61-16.33-14.34.87-26.85,10.04-36.8,20.4,6.79-2.05,13.32-4.99,19.37-8.7.37,1.67.12,3.47-.68,4.99,2-1.16,4-2.32,5.99-3.48-.56,1.15-1.12,2.3-1.69,3.45,3.56-1.23,7.12-2.45,10.68-3.68-.37,1.24-.75,2.48-1.12,3.73Z"/>
              <path class="cls-44" d="M966.1,106.98c3.14-1.08,6.28-2.15,9.42-3.23-.28,1.07-.55,2.14-.83,3.2,3.15-.75,6.29-1.5,9.43-2.25-.31,1.63-.61,3.27-.92,4.9,2.77-.76,5.54-1.52,8.3-2.28-.39,1.14-.79,2.27-1.18,3.41,3.22-1.49,7.12-2.96,10.12-1.07,1.3.82,2.18,2.15,3.33,3.18,1.14,1.03,2.85,1.75,4.2,1.03,1.26-.67,2.71.61,2.33-.77-.38-1.38-17.68-17.48-39.16-16.69-14.35.53-27.67,3.89-37.62,14.26,6.79-2.05,13.32-4.99,19.37-8.7.37,1.67.12,3.47-.68,4.99,2-1.16,4-2.32,5.99-3.48-.56,1.15-1.12,2.3-1.69,3.45,3.56-1.23,7.12-2.45,10.68-3.68-.37,1.24-.75,2.48-1.12,3.73Z"/>
              <path class="cls-26" d="M958.82,148.35c2.42-1.8,4.84-3.61,7.26-5.41.36,1.49.73,2.97,1.09,4.46,1.87-1.94,3.75-3.87,5.62-5.81.18.87.36,1.74.54,2.61,1.79-1.87,3.42-3.88,4.88-6.02.26,1.8,3.19,1.27,4.17-.25.98-1.52,1.36-3.62,2.99-4.43.47.67.94,1.34,1.41,2,.61-1.34,1.26-2.74,2.4-3.68,1.14-.94,2.93-1.26,4.07-.32,1.95-2.26,3.51-4.84,4.6-7.62-.18.93,1.41,1.25,2.03.53.62-.72.58-1.77.72-2.71.15-.94.78-2.01,1.72-1.92,2.75-1.95,5.97-4.48,7.79-7.32-6.31-1.92-14.08-.74-20.14,1.85-6.07,2.59-11.44,6.54-16.75,10.46-11.31,8.35-22.63,16.7-33.94,25.05,4.73-.25,9.39-1.87,13.26-4.6-.07,1.26-.13,2.52-.2,3.78,2.28-1.84,4.82-3.36,7.53-4.5-.35,1.27-.7,2.54-1.05,3.81Z"/>
              <path class="cls-26" d="M1004.4,170.17c-.37-3.18-1.12-6.31-2.21-9.32,1.08.76,2.16,1.51,3.23,2.27.38-2.76.76-5.52,1.15-8.28-.54.3.27,1.18.8.84.52-.33.54-1.08.5-1.69-.16-2.3-.31-4.61-.47-6.91.02,1.12.96,2.15,2.07,2.27-.33-2.99-.66-5.98-.98-8.97.82.1,1.63.21,2.45.31-.05-3.46-.1-6.92-.15-10.38-.3-6.05-.2-12.11.29-18.14-12.58,9.4-20.56,24.4-22.32,40.01-1.76,15.6,2.48,31.65,10.87,44.92,1.21-4.11,1.56-8.47,1.04-12.73.58.75,1.16,1.51,1.74,2.26.76-3.22.44-6.69-.91-9.72.23.93.83,1.77,1.64,2.28.01-3.82-.78-7.64-2.3-11.14,1.03.94,2.26,1.67,3.58,2.12Z"/>
              <path class="cls-44" d="M1002.37,130.73c-3.03,7.22-4.94,14.89-6.05,22.63-1.92,13.46-2.78,30.05,3.55,42.64.96-3.79,1.25-7.75.78-11.63.58.75,1.16,1.51,1.74,2.26.69-2.93.48-6.06-.58-8.88.31.58.75,1.09,1.31,1.45.01-3.82-.78-7.64-2.3-11.14,1.03.94,2.26,1.67,3.58,2.12-.37-3.18-1.12-6.31-2.21-9.32,1.08.76,2.16,1.51,3.23,2.27.36-2.58.71-5.15,1.07-7.73.18.27.57.48.87.29.52-.33.54-1.08.5-1.69-.16-2.3-.31-4.61-.47-6.91.02,1.12.96,2.15,2.07,2.27-.33-2.99-.66-5.98-.98-8.97.82.1,1.63.21,2.45.31-.05-3.46-.1-6.92-.15-10.38-.25-5.21-.2-10.43.13-15.64-3.8,4.66-6.26,10.64-8.54,16.06Z"/>
              <path class="cls-26" d="M1028.1,147.91c-.86-2.58-1.73-5.16-2.59-7.73-.5.64-.99,1.29-1.49,1.93-2.22-5.46-4.43-10.92-6.65-16.38-.29.89-.57,1.78-.86,2.66-.77-2.34-1.23-4.79-1.36-7.25-.21.85-.82,1.59-1.6,1.98-1.37-3.71-2.74-7.41-4.11-11.12,13.79,4.72,25.53,15.12,31.86,28.24,6.33,13.12,7.18,28.79,2.3,42.51-.65-2.95-1.3-5.9-1.95-8.85-.58,1.15-1.16,2.3-1.74,3.45-.38-3.52-.77-7.03-1.15-10.55.56-.22.43,1.02-.16.92-.59-.1-.81-.82-.9-1.41-.36-2.14-.71-4.29-1.07-6.43-.46,1.06-1.24,1.98-2.2,2.62-.57-3.3-1.14-6.6-1.71-9.91-.71.42-1.24,1.12-1.45,1.91-.4-3.53-.8-7.07-1.2-10.6-.4,1.44-1.06,2.8-1.95,4.01Z"/>
              <path class="cls-44" d="M1028.1,147.91c-.86-2.58-1.73-5.16-2.59-7.73-.5.64-.99,1.29-1.49,1.93-2.22-5.46-4.43-10.92-6.65-16.38-.29.89-.57,1.78-.86,2.66-.77-2.34-1.23-4.79-1.36-7.25-.21.85-.82,1.59-1.6,1.98-1.37-3.71-2.74-7.41-4.11-11.12,13.79,4.72,39.04,57.03,34.16,70.76-.65-2.95-1.3-5.9-1.95-8.85-.58,1.15-1.16,2.3-1.74,3.45-.38-3.52-.77-7.03-1.15-10.55.56-.22.43,1.02-.16.92-.59-.1-.81-.82-.9-1.41-.36-2.14-.71-4.29-1.07-6.43-.46,1.06-1.24,1.98-2.2,2.62-.57-3.3-1.14-6.6-1.71-9.91-.71.42-1.24,1.12-1.45,1.91-.4-3.53-.8-7.07-1.2-10.6-.4,1.44-1.06,2.8-1.95,4.01Z"/>
              <path class="cls-26" d="M1068.7,134.79c-2.62-1.92-5.69-3.22-8.89-3.76-.11,1.38-.23,2.77-.34,4.15-2.06-2.88-4.75-5.3-7.81-7.07.19,1.26.37,2.52.56,3.78-2.4-2.31-5.35-4.04-8.53-5.01.27.92.54,1.84.82,2.76-3.09-1.71-6.18-3.41-9.26-5.12-.63.93-.64,2.23-.04,3.17-2.7-.47-5.27-1.66-7.37-3.43.03.82.06,1.65.1,2.47-4.59-6.32-11.02-11.29-18.3-14.14,4.09-2.84,9.38-3.12,14.36-3.19,10.71-.15,21.6.24,31.81,3.47,10.22,3.23,19.81,9.6,24.94,19.01-2.95-1.02-5.89-2.04-8.84-3.06.98,1.43,1.96,2.87,2.94,4.3-2.11-1.37-4.55-2.23-7.05-2.48,0,1.42.31,2.85.9,4.14Z"/>
              <path class="cls-44" d="M1068.7,134.79c-2.62-1.92-5.69-3.22-8.89-3.76-.11,1.38-.23,2.77-.34,4.15-2.06-2.88-4.75-5.3-7.81-7.07.19,1.26.37,2.52.56,3.78-2.4-2.31-5.35-4.04-8.53-5.01.27.92.54,1.84.82,2.76-3.09-1.71-6.18-3.41-9.26-5.12-.63.93-.64,2.23-.04,3.17-2.7-.47-5.27-1.66-7.37-3.43.03.82.06,1.65.1,2.47-4.59-6.32-11.02-11.29-18.3-14.14,4.09-2.84,65.98,9.88,71.12,19.29-2.95-1.02-5.89-2.04-8.84-3.06.98,1.43,1.96,2.87,2.94,4.3-2.11-1.37-4.55-2.23-7.05-2.48,0,1.42.31,2.85.9,4.14Z"/>
            </g>
            <path class="cls-44" d="M958.82,148.35c2.42-1.8,4.84-3.61,7.26-5.41.36,1.49.73,2.97,1.09,4.46,1.87-1.94,3.75-3.87,5.62-5.81.18.87.36,1.74.54,2.61,1.79-1.87,3.42-3.88,4.88-6.02.26,1.8,3.19,1.27,4.17-.25.98-1.52,1.36-3.62,2.99-4.43.47.67.94,1.34,1.41,2,.61-1.34,1.26-2.74,2.4-3.68,1.14-.94,2.93-1.26,4.07-.32,1.95-2.26,3.51-4.84,4.6-7.62-.18.93,1.41,1.25,2.03.53.62-.72.58-1.77.72-2.71.15-.94.78-2.01,1.72-1.92,2.75-1.95,5.97-4.48,7.79-7.32-20.05,7.34-52.54,28.23-70.83,37.36,4.73-.25,9.39-1.87,13.26-4.6-.07,1.26-.13,2.52-.2,3.78,2.28-1.84,4.82-3.36,7.53-4.5-.35,1.27-.7,2.54-1.05,3.81Z"/>
          </g>
          <path class="cls-52" d="M1090.25,324.47s-21.22-31.62-59.02-47.45-92.16-15.84-145.76,29.62l204.78,17.83Z"/>
          <path class="cls-46" d="M1004.56,279.22c3.33,6.1,4.48,13.3,3.04,20.12-1.09,5.15-3.74,9.79-7.33,13.61-1.14,1.21-2.37,2.33-3.66,3.38l93.64,8.15s-21.22-31.62-59.02-47.45c-11.17-4.68-23.79-7.97-37.41-9.12,4.42,2.83,8.18,6.63,10.74,11.31Z"/>
        </g>
        <path class="cls-8" d="M1094.21,325.43c-96.08-19.01-210.29-31.39-333.01-34.23-340.32-7.89-618.66,60.42-627.08,153.1h960.1v-118.87Z"/>
        <path class="cls-10" d="M1094.21,356.07c-96.08-19.01-210.29-31.39-333.01-34.23-340.32-7.89-618.66,60.42-627.08,153.1h960.1v-118.87Z"/>
        <g>
          <g>
            <path class="cls-57" d="M1069.51,326.64c-.99,2.68-1.62,5.14-1.72,6.72-.58-3.05-8.47-19.62-8.47-19.62,0,0-.67.29-1.68.91-.43.36-.86.72-1.29,1.08-1.73,1.45-3.21,3.02-4.44,4.8-2.28,3.31-3.53,7.02-4.55,10.74-.58,2.12-1.11,4.26-1.74,6.38,0,.03-.06.06-.09.03-9.56-9.14-23.74-11.41-23.74-11.41,2.33,7.08-.95,14.71-.95,14.71-12.78-10.1-27.95-5.38-27.95-5.38l13.36,14.38c-7.19.12-12.67,2.12-16.35,4.08-2.32,1.24-4.15,2.63-5.57,3.9,2.18.42,5.6,1.31,9.21,3.36,3.68,2.09,6,4.5,7.3,6.08-2.44-1.04-14.84-7.04-22.65-3.9,1.43-.57,3.6,3.99,3.28,6.81-2.88,4.86-9.91-5.29-10.26-7.45-9.63,4-8.36,28.24-8.36,28.24-2.14-10.99-9.8-15.21-9.8-15.21-6.81,8.91,3.24,22.28,3.24,22.28-11.97-13.8-23.9-11.8-23.9-11.8.34,11.26,4.96,20.22,8.76,24.34,4.25,4.07,8.53,7.73,12.73,11.02h115.64v-95.11Z"/>
            <g>
              <g>
                <path class="cls-54" d="M976.35,412.85c-.31-.98-1.95-3.93-6.39-10.18-4.34-5.96-11.48-15.23-20.66-22.1-9.22-7.01-20.48-11.65-34.09-11.57-13.79-.5-29.93,3.71-53.09,1.24.37,1.17,1.83,4.38,6.14,11.31,4.21,6.59,11.29,16.9,20.45,24.57,9.21,7.8,20.51,12.98,34.16,12.43,13.85.05,30.05-5.64,53.47-5.69Z"/>
                <path class="cls-37" d="M878.26,380.59c8.51,3.59,17.62,5.57,26.63,7.49,9.04,1.84,18.1,3.49,26.98,5.72,8.86,2.25,17.62,4.91,25.69,8.94,4.03,2,7.88,4.33,11.43,7.02.88.69,1.78,1.34,2.6,2.08.84.72,1.67,1.42,2.51,2.23l2.51,2.36,1.25,1.18.63.59c.19.22.42.39,1.23-.07l2.03-2.22c.39-.86.19-1.07-.04-1.24l-.65-.57-1.3-1.15-2.6-2.29c-.84-.77-1.79-1.52-2.73-2.27-.92-.77-1.9-1.44-2.87-2.15-3.88-2.75-8.04-5.07-12.32-7.03-8.59-3.9-17.64-6.42-26.72-8.24-9.09-1.84-18.24-3.09-27.33-4.51-9.09-1.38-18.18-2.91-26.92-5.88Z"/>
              </g>
              <g>
                <path class="cls-24" d="M986.72,422.29c.49-.9,1.49-4.13,2.93-11.66,1.3-7.26,3.04-18.83,1.65-30.21-1.32-11.51-5.77-22.84-15.24-32.62-9.19-10.3-23.39-19.04-37.64-37.46-.59,1.08-1.9,4.35-3.91,12.26-1.84,7.6-4.39,19.84-3.58,31.77.74,12.05,4.82,23.79,14.67,33.26,9.55,10.03,24.87,17.79,41.11,34.65Z"/>
                <path class="cls-20" d="M942.12,329.16c3.3,8.63,8.17,16.57,13.03,24.4,4.93,7.8,10.01,15.48,14.55,23.43,4.51,7.95,8.65,16.12,11.33,24.73,1.34,4.3,2.33,8.68,2.84,13.11.11,1.11.26,2.21.29,3.31.06,1.1.14,2.19.12,3.36l.03,3.45v1.72s.02.86.02.86c-.03.29,0,.57.91.84l3.01-.08c.89-.31.91-.6.86-.89l-.04-.87-.07-1.73-.14-3.46c-.03-1.14-.14-2.35-.25-3.54-.08-1.2-.28-2.37-.43-3.55-.7-4.71-1.9-9.31-3.45-13.76-3.13-8.9-7.57-17.17-12.55-25-4.96-7.84-10.39-15.31-15.66-22.85-5.3-7.52-10.49-15.14-14.39-23.5Z"/>
              </g>
            </g>
          </g>
          <g>
            <path class="cls-25" d="M343.57,401.96s9.79-11.81,3.16-19.67c0,0-7.47,3.73-9.55,13.43,0,0,1.24-21.41-8.14-24.94-.35,1.91-7.19,10.86-10,6.57-.31-2.49,1.8-6.52,3.2-6.01-7.6-2.77-19.68,2.53-22.06,3.45,1.27-1.4,3.53-3.53,7.11-5.37,3.51-1.81,6.84-2.6,8.97-2.97-1.38-1.11-3.16-2.35-5.42-3.44-3.59-1.73-8.93-3.49-15.93-3.6l13.01-12.7s-14.77-4.17-27.22,4.75c0,0-3.2-6.73-.93-12.99,0,0-13.81,2-23.12,10.07-.03.02-.08,0-.08-.03-.61-1.87-1.13-3.75-1.7-5.63-1-3.28-2.21-6.56-4.43-9.48-1.2-1.58-2.64-2.96-4.32-4.24-.42-.32-.84-.63-1.26-.95-.98-.55-1.64-.8-1.64-.8,0,0-3.86,7.35-6.31,12.58-2.45-5.24-6.31-12.58-6.31-12.58,0,0-.66.26-1.64.8-.42.32-.84.63-1.26.95-1.68,1.28-3.13,2.66-4.32,4.24-2.22,2.93-3.44,6.2-4.43,9.48-.57,1.88-1.09,3.76-1.7,5.63,0,.03-.06.05-.08.03-9.31-8.07-23.12-10.07-23.12-10.07,2.27,6.25-.93,12.99-.93,12.99-12.45-8.92-27.22-4.75-27.22-4.75l13.01,12.7c-7,.11-12.34,1.87-15.93,3.6-2.26,1.09-4.04,2.33-5.42,3.44,2.13.37,5.46,1.16,8.97,2.97,3.59,1.85,5.85,3.98,7.11,5.37-2.38-.92-14.46-6.21-22.06-3.45,1.39-.51,3.5,3.53,3.2,6.01-2.81,4.29-9.65-4.67-10-6.57-9.38,3.53-8.14,24.94-8.14,24.94-2.08-9.7-9.55-13.43-9.55-13.43-6.64,7.86,3.16,19.67,3.16,19.67-11.66-12.19-23.28-10.42-23.28-10.42.33,9.94,4.83,17.85,8.54,21.5,4.14,3.59,8.31,6.83,12.4,9.73h218.05c4.08-2.91,8.25-6.14,12.4-9.73,3.7-3.64,8.2-11.55,8.54-21.5,0,0-11.62-1.77-23.28,10.42Z"/>
            <path class="cls-4" d="M742.42,408.42s7.58-8.14,2.44-13.56c0,0-5.78,2.57-7.39,9.26,0,0,.96-14.76-6.3-17.19-.27,1.32-5.57,7.49-7.74,4.53-.24-1.71,1.39-4.5,2.47-4.15-5.88-1.91-15.24,1.75-17.08,2.38.98-.96,2.73-2.43,5.51-3.7,2.72-1.25,5.3-1.79,6.94-2.05-1.07-.77-2.45-1.62-4.2-2.37-2.78-1.2-6.91-2.41-12.33-2.48l10.07-8.76s-11.43-2.88-21.07,3.27c0,0-2.47-4.64-.72-8.95,0,0-10.69,1.38-17.9,6.95-.02.02-.06,0-.07-.02-.47-1.29-.87-2.59-1.31-3.88-.77-2.26-1.71-4.52-3.43-6.54-.93-1.09-2.05-2.04-3.35-2.92-.32-.22-.65-.44-.97-.66-.76-.38-1.27-.55-1.27-.55,0,0-2.99,5.06-4.88,8.68-1.9-3.61-4.88-8.68-4.88-8.68,0,0-.51.18-1.27.55-.32.22-.65.44-.97.66-1.3.88-2.42,1.84-3.35,2.92-1.72,2.02-2.66,4.27-3.43,6.54-.44,1.29-.84,2.59-1.31,3.88,0,.02-.05.04-.07.02-7.21-5.56-17.9-6.95-17.9-6.95,1.76,4.31-.72,8.95-.72,8.95-9.64-6.15-21.07-3.27-21.07-3.27l10.07,8.76c-5.42.07-9.55,1.29-12.33,2.48-1.75.75-3.13,1.6-4.2,2.37,1.65.25,4.22.8,6.94,2.05,2.78,1.27,4.53,2.74,5.51,3.7-1.84-.63-11.19-4.28-17.08-2.38,1.08-.35,2.71,2.43,2.47,4.15-2.17,2.96-7.47-3.22-7.74-4.53-7.26,2.43-6.3,17.19-6.3,17.19-1.61-6.69-7.39-9.26-7.39-9.26-5.14,5.42,2.44,13.56,2.44,13.56-9.02-8.4-18.02-7.18-18.02-7.18.26,6.85,3.74,12.31,6.61,14.82,3.21,2.48,6.43,4.71,9.6,6.71h168.79c3.16-2,6.39-4.23,9.6-6.71,2.87-2.51,6.35-7.96,6.61-14.82,0,0-9-1.22-18.02,7.18Z"/>
            <g>
              <g>
                <path class="cls-29" d="M313.27,412.85c.31-.98,1.95-3.93,6.39-10.18,4.34-5.96,11.48-15.23,20.66-22.1,9.22-7.01,20.48-11.65,34.09-11.57,13.79-.5,29.93,3.71,53.09,1.24-.37,1.17-1.83,4.38-6.14,11.31-4.21,6.59-11.29,16.9-20.45,24.57-9.21,7.8-20.51,12.98-34.16,12.43-13.85.05-30.05-5.64-53.47-5.69Z"/>
                <path class="cls-43" d="M411.36,380.59c-8.51,3.59-17.62,5.57-26.63,7.49-9.04,1.84-18.1,3.49-26.98,5.72-8.86,2.25-17.62,4.91-25.69,8.94-4.03,2-7.88,4.33-11.43,7.02-.88.69-1.78,1.34-2.6,2.08-.84.72-1.67,1.42-2.51,2.23l-2.51,2.36-1.25,1.18-.63.59c-.19.22-.42.39-1.23-.07l-2.03-2.22c-.39-.86-.19-1.07.04-1.24l.65-.57,1.3-1.15,2.6-2.29c.84-.77,1.79-1.52,2.73-2.27.92-.77,1.9-1.44,2.87-2.15,3.88-2.75,8.04-5.07,12.32-7.03,8.59-3.9,17.64-6.42,26.72-8.24,9.09-1.84,18.24-3.09,27.33-4.51,9.09-1.38,18.18-2.91,26.92-5.88Z"/>
              </g>
              <g>
                <path class="cls-1" d="M302.9,422.29c-.49-.9-1.49-4.13-2.93-11.66-1.3-7.26-3.04-18.83-1.65-30.21,1.32-11.51,5.77-22.84,15.24-32.62,9.19-10.3,23.39-19.04,37.64-37.46.59,1.08,1.9,4.35,3.91,12.26,1.84,7.6,4.39,19.84,3.58,31.77-.74,12.05-4.82,23.79-14.67,33.26-9.55,10.03-24.87,17.79-41.11,34.65Z"/>
                <path class="cls-15" d="M347.49,329.16c-3.3,8.63-8.17,16.57-13.03,24.4-4.93,7.8-10.01,15.48-14.55,23.43-4.51,7.95-8.65,16.12-11.33,24.73-1.34,4.3-2.33,8.68-2.84,13.11-.11,1.11-.26,2.21-.29,3.31-.06,1.1-.14,2.19-.12,3.36l-.03,3.45v1.72s-.02.86-.02.86c.03.29,0,.57-.91.84l-3.01-.08c-.89-.31-.91-.6-.86-.89l.04-.87.07-1.73.14-3.46c.03-1.14.14-2.35.25-3.54.08-1.2.28-2.37.43-3.55.7-4.71,1.9-9.31,3.45-13.76,3.13-8.9,7.57-17.17,12.55-25,4.96-7.84,10.39-15.31,15.66-22.85,5.3-7.52,10.49-15.14,14.39-23.5Z"/>
              </g>
            </g>
          </g>
        </g>
      </g>
    </g>
    <g id="Objects">
      <g class="cls-60">
        <g>
          <g>
            <path class="cls-2" d="M912.57,36.7c-.54-7.55-4.41-12.79-6.17-14.89-3.98-3.98-9.15-6.02-14.37-6.15h0s-.04,0-.06,0c-.02,0-.04,0-.06,0h0c-5.21.13-10.39,2.18-14.37,6.16-1.76,2.1-5.63,7.35-6.17,14.89-.52,7.3,2.58,14.63,7.51,19.94,3.41,3.68,7.71,6.72,12.22,8.92.32.15.58.26.81.32,0,0,.04.01.07,0,.02,0,.06,0,.06,0,.23-.07.49-.17.81-.32,4.51-2.2,8.8-5.24,12.22-8.92,4.93-5.31,8.03-12.63,7.51-19.94Z"/>
            <path class="cls-51" d="M908.45,36.7c-.43-7.55-3.53-12.79-4.93-14.89-3.18-3.98-7.32-6.02-11.49-6.15h0s-.03,0-.05,0c-.02,0-.03,0-.05,0h0c-4.17.13-8.31,2.18-11.49,6.16-1.4,2.1-4.5,7.35-4.93,14.89-.42,7.3,2.06,14.63,6.01,19.94,2.73,3.68,6.17,6.72,9.77,8.92.25.15.46.26.65.32,0,0,.04.01.05,0,.02,0,.05,0,.05,0,.18-.07.39-.17.65-.32,3.6-2.2,7.04-5.24,9.77-8.92,3.94-5.31,6.42-12.63,6.01-19.94Z"/>
            <path class="cls-23" d="M904.24,36.7c-.32-7.55-2.63-12.79-3.67-14.89-2.37-3.98-5.45-6.02-8.56-6.15h0s-.03,0-.04,0c-.01,0-.03,0-.04,0h0c-3.11.13-6.19,2.18-8.56,6.16-1.05,2.1-3.35,7.35-3.67,14.89-.31,7.3,1.54,14.63,4.47,19.94,2.03,3.68,4.59,6.72,7.28,8.92.19.15.35.26.48.32,0,0,.03.01.04,0,.01,0,.04,0,.04,0,.14-.07.29-.17.48-.32,2.68-2.2,5.24-5.24,7.28-8.92,2.94-5.31,4.78-12.63,4.47-19.94Z"/>
            <path class="cls-51" d="M895.5,36.7c-.09-7.55-.76-12.79-1.06-14.89-.68-3.98-1.57-6.02-2.46-6.15h0s0,0-.01,0c0,0,0,0-.01,0h0c-.89.13-1.78,2.18-2.46,6.16-.3,2.1-.96,7.35-1.06,14.89-.09,7.3.44,14.63,1.29,19.94.58,3.68,1.32,6.72,2.09,8.92.05.15.1.26.14.32,0,0,0,.01.01,0,0,0,.01,0,.01,0,.04-.07.08-.17.14-.32.77-2.2,1.51-5.24,2.09-8.92.84-5.31,1.38-12.63,1.29-19.94Z"/>
            <path class="cls-7" d="M895.72,71.3h-2.02l2.04-4.26h0s3.4-4.95,3.4-4.95h-14.36l3.38,4.91h0s2.4,4.31,2.4,4.31h-2.53c-.34,0-.61.27-.61.61s.27.61.61.61h.34v5.33c0,.43.35.79.79.79h5.45c.44,0,.79-.35.79-.79v-5.33h.34c.34,0,.61-.27.61-.61s-.27-.61-.61-.61ZM893.21,71.3h-.93v-4.03h2.85l-1.93,4.03ZM888.79,67.27h3.07v4.03h-.82l-2.25-4.03Z"/>
          </g>
          <path class="cls-11" d="M912.57,36.7c-.45-6.35-3.26-11.06-5.19-13.65-.08.85-.18,1.69-.3,2.52-.89,6.18-2.89,12.31-6.01,17.73-2.65,4.6-6.22,8.84-11.15,11.04-3.13,1.4-6.61,2.32-10.05,2.47-.27.01-.54.02-.81.01,1.82,1.93,3.88,3.68,6.09,5.22h13.64c2.28-1.59,4.41-3.4,6.27-5.41,4.93-5.31,8.03-12.63,7.51-19.94Z"/>
        </g>
      </g>
      <g>
        <g class="cls-64">
          <g>
            <path class="cls-35" d="M754.83,75.65c-.13-.75-.23-1.7-.28-2.55-.21-3.48-2.07-5.59-5.44-6.12-2.65.85-3.12,3.42-4.69,5.48-2.62-2.05-2.62-3.36-2.43-6.47-.6-1.5-1.69-3.02-2.21-4.62-.62-.07-1.26.1-1.89.15-6.5,4.06-14.84,3.3-20.96-1.01-.22.06-.37.18-.54.34-1.86,14.06,2.27,35.4,12.58,34.87,21.42-1.09,13.27-18.57,19.47-16.04,2.79,1.13,5.13-1.77,6.41-4.06"/>
            <path class="cls-5" d="M666.48,164.05c0-8.68-3.97-15.72-8.89-15.72s-8.89,7.04-8.89,15.72,3.97,15.72,8.89,15.72,8.89-7.04,8.89-15.72"/>
            <path class="cls-5" d="M819.84,337.66c1.44.37,2.87.98,4.33,1.06,12.33.66,20.41-6.16,26.37-16.66-1.86.4-3.71.81-5.57,1.2-1.76,2.24-3.27,4.78-5.34,6.66-5.63,5.12-12.48,7.14-19.78,7.73"/>
            <path class="cls-58" d="M662.5,316.44c0-16.89-13.73-30.58-30.66-30.58s-30.66,13.7-30.66,30.58c0,16.89,13.73,30.58,30.66,30.58s30.66-13.7,30.66-30.58"/>
            <path class="cls-5" d="M650.16,305.5c.22,8.2-.13,17.22-4.99,24.17-14.66,16.83-38.01,7.7-37.44-14.59-1.25-14.5,14.94-25.71,26.53-25.57,1.66-.07,1.73,2.55.07,2.55-8.11-.19-21.81,7.23-23.62,17.82-3.56,19.99,12.05,33.32,29.83,20.66.04-.04,7.87-3.89,7.04-24.93-.09-1.66,2.49-1.75,2.55-.1"/>
            <path class="cls-5" d="M664.75,190.72l3.4-.4c2.9-.56,5.87-1.13,8.83-.89s5.97,1.39,7.82,3.71c2.05,2.6,2.35,6.22,1.7,9.46-.65,3.24-2.1,6.25-3.24,9.36-3.34,9.09-3.94,18.95-3.92,28.62.03,9.68.69,19.4-.28,29.04-.37,3.7-1.41,7.95-4.81,9.44-2.02.88-4.43.48-6.36-.57-1.94-1.07-3.46-2.73-4.84-4.44-9.27-11.54-13.11-26.87-12.19-41.62.89-14.18,7.21-27.72,13.05-40.25.23-.51.62-.95.85-1.45h-.01Z"/>
            <path class="cls-41" d="M713.52,134.65c.63-.18,1.53-.1,1.82-.56,2.82-4.33,6.76-6.63,11.83-8.48-2.98-2.1-5.37-3.8-7.77-5.47-1.42-.98-2.35-.43-3.09,1.2-1.11,2.42-2.46,4.69-3.56,7.11-.66,1.45-1.06,3.05-1.57,4.59.78.54,1.57,1.07,2.35,1.61"/>
            <path class="cls-19" d="M672.81,196.52c-8.56,12.19-13.61,28.71-19.55,43.77-3.39,8.92-3.7,12.66-13.77,7.05-1.88,3.24-.47,6.14.43,9.22,1.29,3.94,5.56,3.09,8.65,4.33,3.61,1.64,7.1,3.39,10.1,6,6.13,3.52,8.53,9.58,3.46,15.5-3.81,5.35-11.26,10.44-11.14,17.85,3.89,18.52,1.22,34.75-19.2,39.84-33.98,2.38-37.04-47.7-2.1-52.35,7.96-2.18,10.13,7.51,5.54,7.65-19.96-3.96-31.85,25.71-14.49,36.56,13.26,7.32,28.45-8.42,23.87-21.67.54,7.49-9.49,16.91-16.25,10.9-3.12-3.49-2.48-12.08,3.26-12.11-4.77,2.21-1.47,13.84,4.47,10.59,1.06-1.07-1.6-1.82-1.98-3.04-3.36-11.79,12.11-22.88,9.85-35.15,2.05-3.59-5.81-7.57-8.52-7.8-42.47-3.94-69.96,42.16-35.52,75.1,23.39,22.38,67.57,2.67,68.92-28.08.31-6.94.16-5.12,6.55-5.16,8.37-.59,9.69,13.32,30.18,15.19-17.73-8.14-19.61-22.72-26.85-38.66-4.05-9.88-10.43-18.23-12.88-28.57-3.71-1.69-5.73-5.97-9.93-7.51-7.52-3.61-.62-11.31.22-17.05,6.6-13.23,11.36-27.77,18.37-41.38-.56-.43-1.06-.66-1.7-.97"/>
            <path class="cls-19" d="M889.84,301.97c-.28,3.45-1.44,4.49-5.34,4.63-5.09.19-10.19.37-15.29.4-1.53.01-1.94.44-1.85,1.91.35,5.6-.12,11.29-1.69,16.7-1.35,4.63-3.81,8.99-6.66,12.89-3.37,4.63-7.58,8.68-12.46,11.7-9.37,5.81-20.98,7.23-31.56,4.18-.37-.1-.75-.22-1.11-.34-7.14-2.29-13.61-6.63-18.43-12.36-1.75-2.08-3.4-4.41-5.9-5.48-3.31-1.41-6.98-.21-10.38.12-1.76.16-3.52-.03-5.28.07-2.11.12-4.24.25-6.36.37-4.19.25-8.64.19-11.72-3.12-.98-1.04-1.72-2.29-2.26-3.61,6.44-.29,12.88-.59,19.31-.91,4.94-.25,9.17-2.1,12.7-5.6,3.49-3.46,5.12-7.9,6.8-12.33.5-1.32-.44-1.19-1.22-1.2-3.33-.07-6.41-1.07-8.64-3.52-1.58-1.73-2.6-3.97-3.87-6.01-.12.65-.15,1.44-.4,2.16-.95,2.77-1.73,5.65-3.05,8.26-1.79,3.53-5.35,5.1-8.73,6.77-.29-1.77-.59-3.53-.88-5.29-.73-1.07-1.47-2.13-2.2-3.2.09-6.66.18-13.32.26-19.97-.13-1.11-.26-2.23-.4-3.34,1.22-.54,2.42-1.07,3.62-1.61,3.5-1.58,3.61-1.94,2.65-5.63-.75-2.95-1.31-5.94-1.95-8.92-.97-4.15-1.94-8.3-2.89-12.45-.7-3.02-1.41-6.06-2.1-9.09,3.12-.35,6.25-.72,9.37-1.07,1.06-.03,2.13.01,3.17-.1,5.21-.62,10.4-1.32,15.6-1.92,5.48-.63,10.97-1.2,16.47-1.77,5.46-.56,10.9-1.16,16.35-1.64,2.71-.25,4.58-1.95,4.59-4.78.01-1.8-.23-3.62-.37-5.44,5.6-.41,11.2-.87,16.81-1.23,5.35-.34,10.72-.56,16.07-.89,3.65-.22,7.29-.63,10.94-.78,1.67-.07,3.62-.75,4.81,1.23-.03,1.2-.15,2.4-.03,3.59.51,5-3.11,7.9-7.85,8.27-3.93.31-7.89.32-11.83.45-4.53.15-8.01,2.38-11.04,5.51-1.6.41-3.24,1.29-4.77,1.13-7.74-.82-15.27-.16-22.54,2.73-13.78,5.47-24.67,14.06-30.34,28.2-2.87,7.16-3.58,14.4.1,21.48,2.27,4.37,5.54,7.36,11.1,6.89,5.76-.5,11.57-.62,17.36-.91,7.82-.4,15.63-.88,23.45-1.22,8.62-.38,17.26-.69,25.9-.91,5.12-.12,10.22-.06,15.34,0,3.26.04,6.35-.18,8.61-2.95M823.59,337.57c1.16.28,2.3.75,3.46.81,9.84.51,16.28-4.66,21.03-12.63.91-.01,1.83-.03,2.76-.03,4.03.01,6.91-1.7,8.36-5.56,1.53-3.46,2.01-6.95.43-10.53-.22-1.83-1.19-2.67-3.11-2.62-3.65.09-7.32-.13-10.97.06-5.48.28-10.95.89-16.45,1.2-7.04.38-14.11.57-21.16.89-3.87.18-7.74.5-11.61.62-1.97.06-2.6,1.09-2.67,2.79-2.13,3.81-4.27,7.64-6.41,11.45-1.95,1.51-3.9,3.02-6.29,4.87,3.83-.22,7.13-.45,10.44-.59,7.46-.31,14.94-.62,22.42-.84,7.05-.21,14.12-.29,21.19-.44.03,4.15-1.17,5.4-5.34,5.62-2.04.12-4.09.29-6.13.47-2.42.21-4.82.44-7.24.67-.06.26-.13.54-.19.81,2.51,1,5,2.01,7.51,3.01M842.77,242.92c-.06-.22-.13-.43-.19-.65-4.88.32-9.75.54-14.62.98-7.48.67-14.94,1.42-22.39,2.27-7.45.85-14.88,1.91-22.32,2.82-3.72.47-7.46.85-11.19,1.2-1.1.1-1.53.47-1.26,1.61,1.51,6.64,3.05,13.29,4.43,19.96,1.32,6.36,2.48,12.76,3.61,18.65-.12.25.06-.04.16-.37,3.36-11.17,9.14-20.78,18.24-28.27,10.16-8.36,21.76-13.34,34.93-13.8,4.47-.15,7.1-2.89,10.59-4.41M833.08,240.44c2.64-.19,4.9-.4,7.16-.5,7.01-.34,14.02-.6,21.01-.95,3.26-.16,6.51-.35,9.72-.76,2.14-.28,3.9-2.96,3.53-5.03-.48-2.76-2.68-1.58-4.27-1.77-.13-.01-.28.03-.43.03-7.76.54-15.51,1.07-23.27,1.64-5.15.38-10.28.85-15.43,1.19-1.35.09-1.66.65-1.63,1.85.03,1.32-.67,3.28-.07,3.8.88.73,2.65.41,3.68.51"/>
            <path class="cls-34" d="M804.48,187.54c.84,4.27.47,5.26-3.05,7.55-.18.1-.4.15-.59.22-1.99.15-3.99.29-5.98.44-5.84.41-11.66,1.04-17.51,1.17-6.09.15-12.17-.21-18.26-.34.13-5.03-1.5-9.59-3.78-13.95-.7-1.32-.81-1.91.82-2.8,3.39-1.88,6.75-3.94,9.66-6.44,6.33-5.41,10.02-12.54,12.2-20.46,2.46-8.89,2.95-17.77-.37-26.59-.25-.67-.75-1.25-1.14-1.86-.37.72-.88,1.39-1.07,2.16-.43,1.76-.67,3.56-1,5.34-5.03-4.28-11.03-6.55-17.44-7.55-2.3-.35-4.88.43-7.29.69.21-.01.91-4.02,1-4.44.07-.35.15-.69.23-1.04.23-2.98.67-5.92,1.32-8.83.37-1.67.82-3.33,1.67-4.81.69-1.19,1.69-2.04,2.46-3.12.04-.04.07-.1.12-.16l.1-.21v.06c.54-.89.89-2.01,1.33-2.95.12-.26.97-2.46,1.14-2.46,7.33.01,12.66,3.97,17.48,8.89,1.51,2.02,3.09,4.02,4.55,6.1,6.69,9.59,10.47,20.49,13.76,31.53,2.23,7.48,3.77,15.16,5.63,22.74.07.32.26.62.41.92,0,.43-.04.85.03,1.26,1.17,6.32,2.35,12.64,3.56,18.95"/>
            <path class="cls-47" d="M729.71,148.04c.87,2.65,2.02,5.16,2.98,7.79,1.13,2.74,1.55,6.99,4.97,5.72,1.73-.85,1.69-2.73,1.91-4.36,3.2-6.54,6.48-13.92,9.43-20.79-.1-.98-1.7-2.33-1.7-3.17.57-2.18,1.28-4.33,1.97-6.47,2.87-9.93,5.44-20.1,9.97-29.62-7.89-.26-7.21-1.04-6.76,6.66-.07.23-.18.47-.28.69-4.62,8.43-15.66,15-16.94.6-.85.16-1.72.31-2.58.47-3.68,5.57-6.14,12.74-11.89,16.53,2.39,1.64,4.24,4.58,7.14,5.21,10.59,1.97,10.79,17.05,1.79,20.74"/>
            <path class="cls-35" d="M719.47,90.27h0v.03h0M722.05,92.85h-.03.03,0Z"/>
            <path class="cls-58" d="M762.26,60.48c-.56-2.96-2.48-5.32-3.62-7.95-1.45-3.34-3.67-5.78-6.38-7.49-7.32-4.62-15.38-5.46-23.89-3.7-.78.16-1.92.75-2.57,1.03-1.47.63-2.82,1.2-4.12,1.77-2.08.92-4.08,1.86-6.29,3.08-.12.06-.22.12-.34.16-1.64.76-3.49.54-5.34-.15-2.13-.79-3.75-.01-4.74,1.83,2.3-.81,4.56-.81,6.7.45,1.61.94,3.2,1.92,4.78,2.87h0c3.28,1.85,6.41,4.11,9.9,5.41,4.24,1.58,8.77,2.04,13.33.82.82-.22,2.18-.06,2.7.48,2.36,2.51,4.5,5.22,6.72,7.86,3.37.53,5.34,2.93,5.31,6.41-.01.75.26,1.5.41,2.24,1.58,1.35,3.17,2.71,4.75,4.06,3.86-5.98,3.97-12.49,2.71-19.2M713.97,48.33h0v.09c-.01-.06-.01-.09-.01-.09"/>
            <path class="cls-58" d="M664.32,146.78c-2.96-.04-6.01-.47-8.48,1.8,4.24.43,6.57,3.18,7.8,6.57.25.67.44,1.38.6,2.1.94,5.53.51,11.48-1.19,17.01,3.42,0,6.82,1.28,10.15.95.62.01,1.25.06,1.86.13,5.51.21,7.14-5.72,6.47-10.21-.56,7.42,7.45,5.29,12.17,6.5,1.92.09,3.93,1.01,5.81.57,1.86-.87,2.65-4.25,4.31-5.79,1.44-1.19-7.57-4.68-8.7-5.7-5.41-2.4-9.19-7.35-14.68-9.69-5.04-2.26-10.66-3.37-16.13-4.24"/>
            <path class="cls-49" d="M759.6,79.67c-1.58-1.35-3.17-2.71-4.75-4.06-1.76,1.94-3.39,4.09-6.41,4.06.31,2.98.6,5.95.91,8.92,4.4-1.83,8.08-4.49,10.25-8.9"/>
            <path class="cls-34" d="M719.49,90.29h0s0,.01,0,.01"/>
            <path class="cls-5" d="M705.01,49.08c-.13.13-.28.26-.43.4.13-.13.28-.26.43-.4"/>
            <path class="cls-41" d="M881.49,224.34c-.1-7.05-.25-14.12-.41-21.18-.26-11.23-.54-22.47-.82-33.68-.01-.43.01-.85-.01-1.28-.16-2.02-1.57-4.25-4.44-4.08-3.96.23-7.93.09-11.91.09-7.17.44-14.34.89-21.51,1.29-3.89.22-7.77.28-11.64.45-2.4.1-4.8.31-7.2.45.41,7.19.79,14.36,1.2,21.54.28,4.72.57,9.44.91,14.15.51,7.17,1.1,14.33,1.61,21.5.12,1.61,0,3.24,0,4.87.18.98.35,1.95.53,2.92,5.6-.41,11.2-.87,16.81-1.23,5.35-.34,10.72-.56,16.07-.89,3.65-.22,7.29-.63,10.94-.78,1.66-.07,3.62-.75,4.81,1.23,3.5-.31,5.1-1.97,5.06-5.38"/>
            <path class="cls-12" d="M800.85,195.34c1.61,2.93,1.03,6.03.5,9.03-.78,4.4-3.42,7.8-6.48,10.91,1.73.23,3.46.48,5.19.73,3.97.59,7.95,1.19,11.92,1.77.28-2.01.62-4.02.84-6.04.34-3.02.57-6.07.87-9.11.78-7.87.31-15.65-1.14-23.43-.72-3.9-.4-7.99-.56-12-2.99-.13-5.97-.28-8.96-.41-.7.18-1.41.37-2.11.54,0,.43-.04.85.03,1.26,1.17,6.32,2.35,12.64,3.56,18.95.82,4.27.47,5.26-3.05,7.55-.16.12-.4.15-.59.22"/>
            <path class="cls-34" d="M802.33,164.61c3.15-.56,6.28-1.31,9.44-1.6,5.06-.47,10.13-.6,15.21-.92.81-.06,1.63-.53,2.42-.48.89.06,1.76.5,2.64.76,1.14.34,2.3.95,3.46.95,4.37-.01,8.75-.19,13.12-.4,4.43-.21,8.86-.57,13.3-.78.85-.03,1.73.31,2.6.48,1.13-3.45-.22-6.8-4.85-6.58-8.34.4-16.69.37-25.03.54-.6.01-1.26.15-1.82.41-1.26.59-2.14,1.85-3.97.57-.97-.67-2.87-.06-4.36.06-2.21.18-4.44.41-6.66.66-2.67.29-5.59-.84-7.93,1.38-.09.09-.45.07-.53-.03-1.54-1.98-3.31-1.2-5.06-.41-2.11.97-2.98,3.42-1.98,5.4"/>
            <path class="cls-34" d="M888.26,272.3c-.23,3.84,1.91,11.06-3.84,11.35-.31.04-.92-1.03-1.19-1.67-2.33-5.75-5.54-10.97-9.31-15.9-1.16-1.53-3.11-2.77-2.38-5.34.53-1.85,1.85-3.65,3.75-3.33,12.44,2.42,12.71,2.13,12.95,14.88"/>
            <path class="cls-47" d="M802.31,164.62c.23.72.45,1.45.69,2.17,2.99.13,5.97.28,8.96.41,3.84-.26,7.7-.53,11.54-.79,2.39-.15,4.78-.35,7.19-.45,3.89-.18,7.77-.25,11.64-.45,7.17-.4,14.34-.85,21.51-1.29.22-.51.45-1.04.67-1.57-.87-.18-1.75-.53-2.6-.48-4.43.21-8.86.57-13.3.78-4.37.21-8.75.38-13.12.4-1.14,0-2.3-.62-3.46-.95-.88-.26-1.75-.7-2.64-.76-.79-.04-1.6.43-2.42.48-5.07.32-10.15.45-15.21.92-3.17.29-6.31,1.06-9.44,1.6"/>
            <path class="cls-58" d="M674.57,194.87c25.24,12.57-20.27,41.57-3.01,83.43,4.81,9.75,9.08,19.77,12.83,29.96,11.01,31.03,31.21,22.57,57.26,22.14,10.4-.34,20.98-.25,31.41-1.04,10.94-.84,17-9.56,19.65-18.54,1.09-3.28-7.98,2.51-14.05-10.91-1.67,8.15-4.12,12.77-12.2,17.51-4.69,2.76-47.92,3.74-55.18,3.42-17.07-.75-20.4-33.6-26.78-47.16-2.67-8.18-6.23-16.03-4.03-24.78,2.24-18.87,25.18-47.79,4.94-62.15-5.18-3.68-8.37,4.74-10.87,8.15"/>
            <path class="cls-58" d="M658.32,204.89c5.47-10.27,1.48-12.58,14.52-8.33-9.93,16.97-15.62,35.85-23.49,53.79-.6,1.33-1.38,2.45-3.27,1.13-2.35-1.13-4.25-1.98-6.86-3.4,6.09-14.5,12.39-28.86,19.09-43.19"/>
            <path class="cls-58" d="M680.61,207.02c1.44-4.09-2.83-7.77-6.07-9.49-8.36,14.94-14.64,31.32-21,47.15-1.63,4.05-4.68,8.52-.12,10.91,4.28,2.16,8.01,6.17,12.45,7.87-2.11-20.08,9.05-38.46,14.74-56.44"/>
            <path class="cls-58" d="M665.58,189.27c-.47.82-1.03,1.76-1.51,2.61,3.34.76,6.38,1.61,9.46,2.32,1.28-2.1,2.64-4.34,3.89-6.47.88-1.48-.01-1.86-1.22-1.53-3.59,1-7.05,2.01-10.62,3.08"/>
            <path class="cls-35" d="M655.58,151.23c-.16.01-.34.04-.5.04.16-.01.34-.04.5-.04"/>
            <path class="cls-5" d="M640.77,299.36c-1.64-.26-1.88-1.63-2.26-2.89-1.97,5.85-3.87,11.72-5.97,17.52-.66,1.86-.26,3.05,1.26,4.08.44-1.95.79-3.93,1.35-5.85,1.07-3.68,2.27-7.32,3.34-11,.35-1.22.88-2.05,2.3-1.88"/>
            <path class="cls-45" d="M644.41,296.66c1.38.32,2.77.65,4.16.92-1.39-.29-2.79-.6-4.16-.92"/>
            <path class="cls-45" d="M652.12,298.14c-.5-.07-.98-.12-1.48-.19.5.07.98.13,1.48.19"/>
            <path class="cls-5" d="M634.67,318.54c.28.13.57.25.85.38-.28-.13-.57-.25-.85-.38"/>
            <path class="cls-5" d="M633.89,318.1c.25.15.51.29.76.44-.25-.15-.51-.29-.76-.44"/>
            <path class="cls-34" d="M827.23,228.47c-.47-.48-1.07-.89-1.42-1.47-2.73-4.44-6.92-6.82-11.73-8.33-1.73.28-3.45.63-5.18.79-5.41.48-10.84.88-16.25,1.33-.4.03-.87.15-1.17.38-3.55,2.77-7.17,5.46-10.57,8.4-5.29,4.59-9.14,10.03-8.95,17.47,1.06-.03,2.13.01,3.17-.1,5.21-.62,10.4-1.32,15.6-1.92,5.48-.63,10.97-1.2,16.47-1.77,5.46-.56,10.9-1.16,16.35-1.64,2.71-.25,4.58-1.95,4.59-4.78.01-1.8-.23-3.62-.37-5.44-.18-.97-.35-1.95-.53-2.92"/>
            <path class="cls-58" d="M842.77,242.92c-.06-.22-.13-.43-.19-.65-4.88.32-9.75.54-14.62.98-7.48.67-14.94,1.42-22.39,2.27-7.45.85-14.88,1.91-22.32,2.82-3.72.47-7.46.85-11.19,1.2-1.1.1-1.53.47-1.26,1.61,1.51,6.64,3.05,13.29,4.43,19.96,1.32,6.36,2.48,12.76,3.61,18.65-.12.25.06-.04.16-.37,3.36-11.17,9.14-20.78,18.24-28.27,10.16-8.36,21.76-13.34,34.93-13.8,4.47-.15,7.1-2.89,10.59-4.41"/>
            <path class="cls-39" d="M859.66,309.67c1.58,3.58,1.1,7.08-.43,10.53-8.9.57-17.8,1.2-26.7,1.72-8.84.51-17.69.88-26.53,1.36-3.33.18-6.64.57-9.96.72-2.93.13-5.87.06-8.8.06,2.13-3.81,4.27-7.64,6.41-11.45,3.31-.15,6.63-.28,9.94-.44,5.65-.26,11.28-.6,16.92-.82,8.89-.35,17.77-.59,26.66-.94,4.15-.16,8.3-.48,12.45-.73M807.87,317.26v-.09c2.11-.13,4.24-.23,6.35-.4,7.26-.54,14.5-1.11,21.76-1.66,4.16-.31,8.33-.54,12.48-.91.45-.03.88-.66,1.32-1.01-.47-.21-.92-.45-1.42-.59-.32-.1-.7-.03-1.06,0-6.75.56-13.51,1.16-20.27,1.64-5.22.38-10.46.6-15.68.91-1.54.1-3.09.25-4.63.44-.37.04-.67.37-1.01.57.29.34.54.79.91.98.35.19.84.09,1.26.12"/>
            <path class="cls-48" d="M744.18,301.5c.12.03.22.06.34.09,1-.44,1.94-1,2.77-1.76-.07-.25-.13-.57-.13-.95-.13-3.43-.25-6.86-.41-10.29-.01-.53-.06-1.29-.4-1.54-2.04-1.55-1.85-3.86-2.23-5.98-1.28-2.52-2.55-5.03-3.83-7.55-3.24,1.31-6.5,2.6-9.72,3.93-.35.15-.6.56-.91.84.7,2.05,1.63,4.06,2.05,6.16.54,2.65.69,5.37,1,8.07.92.48,1.8,1.09,2.79,1.42,3.34,1.13,5.03,3.58,5.72,6.88.98.23,1.98.47,2.98.72h-.01Z"/>
            <path class="cls-34" d="M727.82,312.63c-.94.32-1.85,1.14-2.46,1.98,1.29.53,2.55,1.23,3.89,1.55,6.61,1.61,13.24,1.38,19.88.09,4.41-.85,8.86-1.5,13.26-2.38,1.11-.22,2.13-1,3.2-1.51-.73-1.07-1.47-2.13-2.2-3.2-.57.51-1.06,1.28-1.73,1.51-1.33.45-2.96,1.14-4.11.73-1.13-.41-1.89-2.02-2.65-3.2-.32-.5-.29-1.23-.32-1.86-.18-3.74-2.39-5.7-5.76-6.67-.92.89-1.33.76-1.51.15-.84.78-1.79,1.33-2.77,1.76,2.39.59,4.8,1.14,7.16,1.86.45.15.66,1.07.98,1.64-.67.09-1.36.28-2.02.23-1.17-.07-2.36-.28-3.53-.43-.04.19-.07.4-.12.59.12.13.22.26.34.4.5.53,1,1.07,1.5,1.6-.75.12-1.5.26-2.26.35-.19.01-.41-.09-.62-.15-.92.4-1.86.79-2.8,1.19l.19.07c.26.1.54.21.81.31,1.01,1.83-.22,1.69-1.36,1.47-1.89-.37-3.77-.82-5.66-1.23.07.34.15.69.22,1.03,1.06.53,2.14,1.01,3.17,1.61.28.16.37.66.54,1.01-.38.07-.87.34-1.14.21-1.7-.82-3.34-1.72-5.02-2.6-2.46.43-4.75,1.09-7.04,1.88h-.03Z"/>
            <path class="cls-56" d="M787.24,324.01c-1.95,1.51-3.9,3.02-6.29,4.87,3.83-.22,7.13-.45,10.44-.59,7.46-.31,14.94-.62,22.42-.84,7.05-.21,14.12-.29,21.19-.44,2.73-.34,5.47-.69,8.2-.98.13-.01.31.43.45.65,1.48-.29,2.96-.6,4.44-.91.91-.01,1.83-.03,2.76-.03,4.03.01,6.91-1.7,8.36-5.56-8.9.57-17.8,1.2-26.7,1.72-8.84.51-17.69.88-26.53,1.36-3.31.18-6.63.57-9.94.72-2.93.13-5.87.06-8.8.06"/>
            <path class="cls-47" d="M814.09,218.66c-.7-.29-1.39-.6-2.1-.89-3.97-.59-7.95-1.19-11.92-1.77-1.73-.25-3.46-.48-5.19-.73-8.24,7.41-17.86,12.74-27.33,18.32-2.49,1.47-5.03,2.86-7.55,4.28.87,3.42,1.75,6.85,2.61,10.27,3.12-.35,6.25-.72,9.37-1.07-.19-7.43,3.65-12.88,8.95-17.47,3.4-2.95,7.02-5.63,10.57-8.4.31-.23.78-.35,1.17-.38,5.43-.45,10.84-.85,16.25-1.33,1.73-.16,3.45-.53,5.18-.79"/>
            <path class="cls-58" d="M833.08,240.44c2.64-.19,4.9-.4,7.16-.5,7.01-.34,14.02-.6,21.01-.95,3.26-.16,6.51-.35,9.72-.76,2.14-.28,3.9-2.96,3.53-5.03-.48-2.76-2.68-1.58-4.27-1.77-.13-.01-.28.03-.43.03-7.76.54-15.51,1.07-23.27,1.64-5.15.38-10.28.85-15.43,1.19-1.35.09-1.66.65-1.63,1.85.03,1.32-.67,3.28-.07,3.8.88.73,2.65.41,3.68.51"/>
            <path class="cls-35" d="M763.41,309.12c.09-6.66.18-13.32.26-19.97-3.81.59-7.63,1.25-11.45,1.72-1.23.16-2.52-.19-3.78-.31.13,3.05.25,6.09.38,9.12,3.36.97,5.59,2.92,5.76,6.66.03.63,0,1.38.32,1.86.76,1.19,1.53,2.79,2.65,3.2,1.14.41,2.77-.28,4.11-.73.66-.22,1.16-.98,1.73-1.51"/>
            <path class="cls-56" d="M859.64,309.67c-.22-1.83-1.19-2.67-3.11-2.62-3.65.09-7.32-.13-10.97.06-5.48.28-10.95.89-16.45,1.2-7.04.38-14.11.57-21.16.89-3.87.18-7.74.5-11.61.62-1.97.06-2.6,1.09-2.67,2.79,3.31-.15,6.63-.28,9.94-.44,5.65-.26,11.28-.6,16.92-.82,8.89-.35,17.77-.59,26.66-.94,4.15-.16,8.3-.48,12.45-.73"/>
            <path class="cls-22" d="M835,327.04c.03,4.15-1.17,5.4-5.34,5.62-2.04.12-4.09.29-6.13.47-2.42.21-4.82.44-7.24.67-.06.26-.13.54-.19.81,2.51,1,5,2.01,7.51,3.01,5.82-.45,11.29-1.98,15.78-5.87,1.66-1.42,2.86-3.34,4.27-5.04-.15-.22-.32-.65-.44-.65-2.74.29-5.47.65-8.2.98"/>
            <path class="cls-34" d="M748.42,290.59c1.26.12,2.55.45,3.78.31,3.83-.47,7.64-1.13,11.45-1.72-.13-1.11-.26-2.23-.4-3.34-4.27.56-8.51,1.28-12.79,1.64-3.02.26-3.05.06-2.04,3.09"/>
            <path class="cls-5" d="M769.54,278.59c.94,3.7.85,4.05-2.65,5.63-1.2.54-2.42,1.07-3.62,1.61-4.27.56-8.51,1.28-12.79,1.64-3.02.26-3.05.06-2.04,3.09.13,3.05.25,6.09.38,9.12-1.32,1.25-1.6.48-1.64-.82-.13-3.43-.25-6.86-.41-10.29-.01-.53-.06-1.29-.4-1.54-2.04-1.55-1.85-3.86-2.23-5.98,3.87-.54,7.73-1.07,11.6-1.61,3.17-1.11,6.34-2.27,9.52-3.33,1.99-.66,3.01-1.53,1.66-3.72-.44-.69-.25-1.77-.34-2.68.34,0,.66-.03,1-.03.65,2.98,1.19,5.97,1.95,8.92"/>
            <path class="cls-5" d="M762.59,248.14c.7,3.02,1.39,6.06,2.1,9.09.95,4.15,1.92,8.3,2.89,12.45-.34,0-.66.03-1,.03-1.36-5.54-2.71-11.09-4.11-16.63-1.09-4.31-2.27-8.59-3.26-12.93-.15-.66-1.44-2.21.76-2.29.87,3.42,1.75,6.85,2.61,10.27"/>
            <path class="cls-19" d="M759.96,237.8c2.52-1.42,5.06-2.82,7.55-4.28,9.47-5.57,19.11-10.92,27.35-18.32,3.08-3.09,5.72-6.51,6.48-10.91.51-3.01,1.1-6.1-.5-9.03-1.99.15-3.99.29-5.98.44-5.84.41-11.67,1.04-17.51,1.17-6.09.13-12.17-.22-18.26-.35-2.93-.28-5.91-.31-8.78-.89-2.64-.54-5.18-1.67-7.76-2.54-.84.88-1.51,1.99-2.51,2.62-8.05,5.09-16.28,9.93-24.21,15.21-3.34,2.24-6.6,4.96-9.06,8.11-4.5,5.75-5.07,12.3-1.86,18.98,3.74,7.74,7.54,15.46,11.34,23.17,1.89,3.83,3.83,7.64,5.73,11.45,5.26-1.73,10.53-3.45,15.79-5.18-2.14-5-4.44-9.94-6.41-15.02-1.89-4.85-3.9-9.74-5.03-14.78-1.53-6.75.85-12.83,5.62-17.64,3.92-3.93,8.42-7.3,12.64-10.94,2.61-2.26,5.19-4.56,7.79-6.83,1.22-1.06,2.43-2.11,3.71-3.08.31-.23.87-.23,1.31-.23,8.08.16,16.15.41,24.23.47,2.23.01,4.46-.53,6.7-.76.54-.06,1.1.09,1.66.15-.21.56-.23,1.28-.62,1.64-2.23,2.17-4.33,4.55-6.85,6.32-6.95,4.9-14.03,9.58-21.13,14.24-3.17,2.08-6.2,4.49-8.55,7.49-1.04,1.35-1.95,2.8-2.67,4.34-.07.16-.15.31-.22.47-.79,1.29-1.22,2.98-1.79,4.66-.13.12-.25.23-.37.35-1.26,1.36-1.45,3.62.41,4.93.01.15.01.31.01.45v.45c-.03.67-.1,1.35,0,2.01.1.62.35,1.23.5,1.83.35,1.45.7,2.89,1.06,4.33,1.28,5.25,2.49,10.5,3.7,15.75.87,3.78,1.53,7.6,2.27,11.39,3.17-1.11,6.34-2.27,9.52-3.33,1.99-.66,3.01-1.53,1.66-3.72-.44-.69-.25-1.77-.34-2.68-1.36-5.54-2.71-11.09-4.11-16.63-1.09-4.31-2.27-8.59-3.26-12.93-.15-.66-1.44-2.21.76-2.29"/>
            <path class="cls-47" d="M759.08,196.61c.13-5.03-1.5-9.59-3.78-13.95-.69-1.32-.79-1.91.84-2.8,3.39-1.86,6.75-3.93,9.66-6.42,6.33-5.41,10.02-12.54,12.2-20.46,2.46-8.89,2.95-17.77-.37-26.59-.25-.67-.75-1.25-1.14-1.86-.37.72-.89,1.39-1.07,2.16-.43,1.76-.67,3.56-1,5.34-.85,2.86-1.58,5.76-2.64,8.55-.26.69-1.57,1-2.4,1.48-.25.16-.51.34-.76.51-1.63,6.69-4.55,12.76-9,18.01-4.72,5.57-10.66,9.43-17.63,11.7-.73.23-1.41.62-2.11.92,1.26,5.72,2.38,11.45,2.23,17.35-.01.87.31,1.75.47,2.61,2.58.87,5.1,1.99,7.76,2.54,2.87.59,5.85.62,8.78.89"/>
            <path class="cls-41" d="M774.41,132.01c-5.06-4.28-11.04-6.54-17.45-7.55-2.3-.37-6.57-.21-7.68.6-1.07,2.67-1.7,5.41-1.98,8.17-.12.45.5,1.13.78,1.7,7.65,1.38,15.15,1.91,21.29,7.11.82-.48,2.14-.78,2.4-1.48,1.06-2.79,1.79-5.69,2.64-8.55"/>
            <path class="cls-56" d="M722.71,309.98c4.05.37,8.17-.09,12.26-.19-.03.32-.07.66-.1.98-3.8,1.11-8.99,1.16-10.31,5.68-6.04-.4-23.11.6-16.2-9.78.38.29.72.76,1.13.85,4.4.88,8.78,2.04,13.23,2.45"/>
            <path class="cls-35" d="M722.22,148.07c.54.03.38,1.5-.29,1.88-4.16,6-8.39,12.3-15.44,14.12l-.07.15c-.4-.1-.69-.26-.89-.48-1.28-.32-2.46-1.03-3.26-2.11-3.65-.23-6.83-3.67-10.05-5.06,4.31-4.82,10.1-8.31,12.93-14.4,2.05-3.62,4.46-7.14,6.64-10.65,1.76.43,2.92,1.42,4.05,2.49.38,4.03,4.46,6.04,5.56,9.93-.34-.78,0,.44-.03.32.15,1.29.38,2.58.87,3.78"/>
            <path class="cls-58" d="M722.42,178.22c0-1.16-1.23-2.82-2.55-2.76s-2.7,2.04-2.76,3.87c-.04,1.66.91,2.76,2.62,2.71,2.02-.06,2.68-1.51,2.68-3.83"/>
            <path class="cls-58" d="M707.1,168.83c-.56-.51-1.19-1.51-1.63-1.44-1.75.32-3.93,3.43-3.89,5.19.06,2.2,1.99,1.72,3.26,1.97.28.06.95-1.07,1.23-1.75.44-1.01.67-2.1,1-3.15v-.81"/>
            <path class="cls-35" d="M702.4,146.38c.12-.15.22-.31.34-.45-.12.15-.22.31-.34.45"/>
            <path class="cls-48" d="M752.4,100.11c1.17,3.04-.44,5.51-2.16,7.54-1.77,2.11-3.86,4.19-6.29,5.44-1.53.78-4.59.79-5.7-.13-1.5-1.23-2.48-3.59-2.86-5.72-.12-.67-.15-1.48-.15-2.14.51-.51,1.03-.91,1.13-1.63.06-.44.15-.78.09-1.23-.12-.95-.23-1.92-.35-2.87-.09-.66,0-1.92-.37-2.46-.72-1.04-2.84-.79-3.9-.73-.95.04-1.92-.28-2.89-.44,1.01-.28,2.01-.57,3.02-.87,7.33-2.11,12.01-6.77,13.8-14.24.6-2.48.59-2.49,2.65-.92.31,2.98.6,5.95.91,8.92.13,1.41.28,2.83.41,4.25-.07.04-.13.09-.19.13.13.25.22.53.23.81.06.59-.09,1.16-.28,1.72-1.31,3.9-4.58,7.08-8.48,8.37,3.65,1.07,6.86.13,10.19-2.9.37-.34.78-.6,1.17-.89"/>
            <path class="cls-34" d="M720.78,122.1c1.2-.95,2.74-1.67,3.55-2.89,3.45-4.08,5.57-8.95,8.31-13.43.03-.04.03-.13.03-.21-.76.34-1.57.6-2.29,1.01-4.69,2.62-8.15,6.5-11.09,10.9-2.04,3.05-2.04,3.06,1.48,4.6"/>
            <path class="cls-34" d="M768.6,142.55c.25-.16.51-.34.76-.51-6.14-5.21-13.42-6.13-21.29-7.11.13.41.26.82.4,1.23,6.94,1.47,13.73,3.31,20.13,6.41"/>
            <path class="cls-34" d="M753.55,111.13c-.1.19-.21.37-.31.56.1-.19.21-.37.31-.56"/>
            <path class="cls-9" d="M737.88,61.53c-5.62.22-10.66-.88-15.66-3.61-3.94-2.14-4.58-1.92-5.56,2.62,2.43,1.75,6.34,3.81,9.96,3.92,4.05.12,8.02-.59,11.26-2.95"/>
            <path class="cls-6" d="M732.28,73.67c2.76.18,2.99-4.4.07-4.16-3.31-.25-3.24,4.43-.07,4.16"/>
            <path class="cls-6" d="M720.88,73.67c2.76.18,2.99-4.4.07-4.16-3.31-.25-3.24,4.43-.07,4.16"/>
            <path class="cls-34" d="M739.77,61.37c-.09-.01-.19-.03-.28-.04l.13.04h.15"/>
            <path class="cls-28" d="M814.1,218.67c4.81,1.51,9,3.89,11.73,8.33.35.57.95.98,1.44,1.47,0-1.61.12-3.26,0-4.87-.51-7.17-1.11-14.33-1.63-21.5-.35-4.72-.63-9.43-.91-14.15-.43-7.19-.81-14.36-1.2-21.54-3.84.26-7.7.53-11.54.79.15,4-.18,8.09.56,12,1.45,7.8,1.92,15.57,1.14,23.43-.31,3.04-.54,6.07-.87,9.11-.22,2.02-.56,4.03-.84,6.04.7.29,1.39.6,2.1.89"/>
            <path class="cls-5" d="M807.87,317.26v-.09c2.11-.13,4.24-.23,6.35-.4,7.26-.54,14.5-1.11,21.76-1.66,4.16-.31,8.33-.54,12.48-.91.45-.03.88-.66,1.32-1.01-.47-.21-.92-.45-1.42-.59-.32-.1-.7-.03-1.06,0-6.75.56-13.51,1.16-20.27,1.64-5.22.38-10.46.6-15.68.91-1.54.1-3.09.25-4.63.44-.37.04-.67.37-1.01.57.29.34.54.79.91.98.35.19.84.09,1.26.12"/>
            <path class="cls-58" d="M737.8,267.52c.84,1.99,1.69,4,2.52,6,1.28,2.51,2.55,5.03,3.83,7.55,3.87-.54,7.73-1.07,11.6-1.61-.75-3.8-1.41-7.63-2.27-11.39-1.66-7.29-3.37-14.56-5.19-21.81-.44-1.73.75-3.9-1.36-5.22-.1-.07.01-.66.16-.94.57-1.14,1.42-2.2,1.73-3.4,1.82-7.16,6.69-11.78,12.58-15.66,7.1-4.68,14.2-9.34,21.13-14.24,2.52-1.77,4.62-4.15,6.85-6.32.38-.37.43-1.09.62-1.64-.56-.06-1.11-.21-1.66-.15-2.23.23-4.47.78-6.7.76-8.08-.06-16.15-.31-24.23-.47-.44-.01-1,0-1.31.23-1.28.98-2.49,2.02-3.71,3.08-2.61,2.27-5.18,4.58-7.79,6.83-4.22,3.64-8.73,6.99-12.64,10.94-4.77,4.81-7.13,10.9-5.62,17.64,1.13,5.04,3.14,9.93,5.03,14.78,1.97,5.07,4.25,10.02,6.41,15.02"/>
            <path class="cls-22" d="M719.17,302.45c.88.7,1.77,1.41,2.61,2.07.28-2.33,1.92-1.92,3.9-1,.54.25,1.35-.03,2.02-.07-.1-.5-.15-1.03-.31-1.5-.38-1.04.01-1.26,1-1.1,1.1.19,2.2.37,3.31.41.56.03,1.13-.28,1.7-.44-.32-.47-.56-1.2-1-1.38-1.99-.78-4.06-1.41-6.66-2.26,4.06-.6,7.46-.41,10.62,1.48,1.26.76,2.45,1.64,3.68,2.48.38-.12.78-.23,1.16-.35-.69-3.3-2.38-5.75-5.72-6.88-.98-.34-1.86-.94-2.79-1.42-.23.16-.5.48-.7.44-3.56-.69-5.32,1.5-6.88,4.14-.18.29-.95.41-1.41.35-1.26-.18-2.49-.57-3.75-.69-.51-.04-1.25.29-1.57.7-.19.23.06,1.28.37,1.41,1.89.87,2.18,1.83.5,3.2-.09.07-.06.28-.09.41"/>
            <path class="cls-58" d="M639.03,318.95c3.83.44-3.12,5.22-4.8,4.74-8.53,1.13-10.72-13.14-2.8-15.24,1.26.75-1.7,4.22-1.67,5.9-.34,3.02,4.08,8.24,6.36,4.33.94.28,1.94.19,2.9.28"/>
            <path class="cls-56" d="M737.77,267.51c-5.26,1.73-10.53,3.45-15.79,5.18.91,1.88,1.5,4.06,2.86,5.53.65.69,2.76,0,4.21-.04.21,0,.43.07.63.1.29-.29.56-.69.91-.84,3.23-1.33,6.48-2.62,9.72-3.93-.84-1.99-1.69-4-2.52-6"/>
            <path class="cls-5" d="M740.09,301.19c-.03,1.26-.07,2.52-.1,3.78.04.1.07.22.12.34-.21-.01-.4-.04-.6-.06-.98.04-1.98-.03-2.93.16-1.11.22-1.86.65-.7,1.92.34.38.01,1.36,0,2.07l.25.25c.32-.04.66-.09,1-.13,1.88.41,3.77.87,5.66,1.23,1.16.22,2.38.37,1.36-1.47-.26-.1-.54-.21-.81-.31l-.19-.07c-1.26-.35-2.54-.69-3.8-1.03,2.27-1.07,4.44-1.09,6.61-.18.21.06.43.18.62.15.75-.1,1.51-.23,2.26-.35-.5-.53-1-1.06-1.5-1.6-.12-.13-.22-.26-.34-.4.04-.19.07-.4.12-.59,1.17.15,2.35.35,3.53.43.67.03,1.35-.15,2.02-.23-.32-.57-.53-1.5-.98-1.64-2.46-.76-4.99-1.32-7.49-1.95-.98-.25-1.98-.5-2.98-.73-.38.12-.78.23-1.16.35"/>
            <path class="cls-5" d="M734.87,310.74c1.67.88,3.31,1.79,5.02,2.6.28.13.76-.13,1.14-.21-.18-.34-.26-.85-.54-1.01-1.01-.6-2.1-1.09-3.17-1.61-.41-.29-.81-.6-1.22-.89l-.25-.25c-.29.15-.59.28-.88.41-.03.32-.07.66-.1.98"/>
            <path class="cls-35" d="M743.16,308.86c.92-.4,1.86-.79,2.8-1.19-2.17-.91-4.36-.89-6.61.18,1.26.35,2.54.69,3.8,1.03"/>
            <path class="cls-35" d="M737.32,310.5c-.07-.35-.15-.69-.22-1.03-.32.04-.66.09-1,.13.41.29.81.6,1.22.89"/>
            <path class="cls-35" d="M744.12,309.26c-.26-.1-.54-.21-.81-.31.26.1.54.21.81.31"/>
            <path class="cls-56" d="M755.27,281.1c.01,1.55.03,3.12.03,4.69,3.55-.89,7.19-1.55,10.63-2.77,3.5-1.25,3.71-2.13,2.23-5.62-.18-.43-1.23-.94-1.64-.78-3.78,1.41-7.51,2.96-11.25,4.47"/>
            <path class="cls-3" d="M755.27,281.07c-2.71.29-5.44.54-8.14.94-.47.07-1.13.75-1.22,1.23-.29,1.67.67,2.51,2.27,2.55,2.38.07,4.74,0,7.11,0-.01-1.55-.03-3.12-.03-4.69"/>
            <path class="cls-38" d="M735.82,309.37c.03-.7.35-1.69,0-2.07-1.14-1.26-.41-1.7.7-1.92.95-.19,1.95-.12,2.93-.16.16-.1.32-.19.48-.29.03-1.26.07-2.52.1-3.78-1.22-.82-2.42-1.72-3.68-2.48-3.17-1.91-6.57-2.1-10.62-1.48,2.58.87,4.65,1.48,6.66,2.26.44.18.67.91,1,1.38-.56.15-1.14.45-1.7.44-1.1-.03-2.21-.22-3.31-.41-.97-.18-1.36.06-1,1.1.18.47.21,1,.31,1.5-.69.04-1.48.32-2.02.07-1.98-.94-3.62-1.33-3.9,1-.84-.66-1.72-1.36-2.61-2.07-.95,1.53-2.38,1.72-4.03,1.67-2.57-.06-4.9.67-6.77,2.54.38.29.72.76,1.13.85,4.4.88,8.78,2.04,13.23,2.45,4.05.37,8.17-.09,12.26-.19.29-.15.59-.28.88-.41"/>
            <path class="cls-58" d="M889.86,301.97c-3.06-7.46-6.03-14.97-9.22-22.38-3.28-7.61-8.26-14.11-14.5-19.47-5.19-4.44-10.98-8.11-17.52-10.47-1.1-.4-1.99-1.41-2.98-2.13-1.6.41-3.23,1.29-4.77,1.13-7.74-.82-15.27-.16-22.54,2.73-13.78,5.47-24.67,14.06-30.34,28.2-2.87,7.16-3.58,14.4.1,21.48,2.27,4.37,5.54,7.36,11.1,6.89,5.78-.48,11.58-.6,17.38-.89,7.82-.41,15.65-.88,23.46-1.22,8.62-.37,17.26-.67,25.9-.89,5.12-.12,10.22-.06,15.34,0,3.26.04,6.35-.18,8.61-2.95"/>
            <path class="cls-31" d="M739.48,305.19c.21.01.4.04.6.06-.04-.1-.07-.22-.12-.34-.16.1-.32.19-.48.29"/>
            <path class="cls-5" d="M665.11,140.38c-.22.03-.45.03-.67.03-6.01,0-10.9-4.99-10.9-11.12,0-4.25,2.35-7.95,5.79-9.81.67-.48,1.41-.88,2.18-1.14.21-.07.43-.13.65-.19-.79.03-1.58.18-2.33.43-.78.26-1.53.66-2.18,1.14-3.45,1.86-5.79,5.56-5.79,9.81,0,6.14,4.87,11.12,10.9,11.12.76,0,1.5-.09,2.21-.23.04,0,.13-.03.13-.03"/>
            <path class="cls-5" d="M824.53,303.52h-.84c-1.03,0-2.08-.03-3.12-.06-.53.01-1.11.01-1.7.01-9.58.1-22.69.23-25.68-11.28-.25-.79-.45-1.61-.62-2.45s-.26-1.67-.32-2.52v-.07c0-5.38,1.36-9.93,4.03-13.54.45-.72.95-1.42,1.47-2.1,3.5-4.63,8.24-8.43,14.06-11.31h.04c.73-.32,1.51-.63,2.36-.94.78-.28,1.57-.56,2.38-.81,14.22-4.43,29.02-2.89,39.56,4.12,5.1,3.39,9.62,8.31,13.45,14.64.51.85,1.04,1.7,1.57,2.57,2.61,4.28,5.32,8.7,7.36,13.3.59,1.29.7,2.7.35,3.94-.26.94-.72,1.61-1.35,1.99-1.42.87-3.14,1-4.52,1.11-1,.07-2.01.16-3.01.23-1,.07-2.01.15-3.01.22-6.06.22-12.26.81-18.26,1.38-7.92.75-16.09,1.53-24.2,1.53M820.63,301.31c1.07.03,2.1.06,3.12.06,8.29.06,16.69-.75,24.83-1.51,6.03-.57,12.24-1.16,18.33-1.39.97-.07,1.97-.15,2.96-.22,1-.07,2.01-.16,3.01-.23,1.2-.09,2.58-.21,3.59-.81.03-.03.23-.16.4-.76.28-1,.01-1.92-.25-2.52-1.98-4.47-4.65-8.83-7.23-13.05-.53-.87-1.06-1.72-1.57-2.58-3.67-6.06-7.96-10.75-12.8-13.96-10.02-6.66-24.14-8.09-37.75-3.86-.78.25-1.54.51-2.29.78-.79.29-1.53.59-2.21.88-5.51,2.71-9.99,6.31-13.29,10.66-.48.65-.95,1.32-1.39,1.99l-.04.06c-2.4,3.23-3.64,7.36-3.64,12.27.04.75.15,1.51.28,2.24.15.76.32,1.51.57,2.23v.06c2.57,9.93,14.24,9.81,23.61,9.71.59-.01,1.17-.01,1.75-.01"/>
            <path class="cls-14" d="M662.93,164.45c0-7.89-3.18-14.28-7.11-14.28s-7.11,6.39-7.11,14.28,3.18,14.28,7.11,14.28,7.11-6.39,7.11-14.28"/>
            <path class="cls-50" d="M655.57,153.46v22.83c3.05,0,5.51-5.12,5.51-11.42,0-6.31-2.46-11.42-5.51-11.42h0Z"/>
            <path class="cls-39" d="M650.82,301.5c-3.23-1.11-6.66-1.45-10-2.16-1.42-.16-1.95.66-2.3,1.88-1.64,5.6-3.61,11.1-4.68,16.85.56.31.82.47,1.41.73,0,.04.23.25.28.28,5.76,3.94,7.77-3.08,10.1-7.54,1.98-3.18,3.52-6.69,5.18-10.05"/>
            <path class="cls-58" d="M655.46,292.73c6.79-10.46,16.7-18.05,2.38-27.52-13.08-8.8-30.59-8.81-45.03-3.45-8.01,2.73-14.59,7.92-20.4,13.93-4.09,3.96,3.18,5.84,6.16,6.72,13.87-3.75,29.59-11.73,43.42-4.22.12.18.22.4.31.62-.12-.21-.23-.41-.32-.62,1.06,6.6-1.79,11.75-3.36,17.93-.09,1.26.59,2.96,2.18,3.23,3.46.67,6.98,1.19,10.34,2.21.31-3.4,2.95-5.73,4.31-8.8"/>
            <path class="cls-58" d="M644.41,296.66c1.38.32,2.77.65,4.16.92-1.39-.29-2.79-.6-4.16-.92"/>
            <path class="cls-58" d="M652.12,298.14c-.5-.07-.98-.12-1.48-.19.5.07.98.13,1.48.19"/>
            <path class="cls-47" d="M715.56,133.75c-1.04-.97-2.16-1.85-3.77-2.24-.09.15-.19.31-.28.45-.12.37-.23.73-.35,1.1.78.53,1.57,1.07,2.35,1.61.63-.19,1.53-.12,1.82-.57.09-.12.16-.25.25-.37"/>
            <path class="cls-49" d="M706.61,170.44c.06-.22.12-.45.21-.7-.07.21-.13.44-.21.7"/>
            <path class="cls-19" d="M719.77,148.81c7.43,2.86,17.95-3.65,17.38-11.53-.23-3.31-2.43-6.86-7.61-10.06-5.1-2.87-11.1-.32-14.31,4.09-1.76,2.43-2.68,5.44-2.14,8.42.75,3.75,2.36,6.28,4.41,7.82-5.73,4.31-10.98,9.8-17.67,12.16-2.55-1.54-5.15-3.02-7.73-4.52-5.44-3.06-11.13-5.7-16.95-7.96-2.98-2.21-4.08-6.64-3.65-10.38.23-.31.44-.62.65-.95.75-1.25,1.28-2.65,1.53-4.15.1-.62.16-1.28.16-1.94,0-4.82-2.89-8.97-7.01-10.75h0c-.37-.21-.75-.4-1.13-.54-2.02-.81-4.33-.92-6.41-.22-.81.28-1.58.69-2.29,1.2-1.73.92-3.2,2.3-4.25,3.96-1.17,1.83-1.85,4-1.85,6.35,0,6.44,5.15,11.67,11.48,11.67.81,0,1.58-.09,2.33-.25.7-.15,1.38-.37,2.02-.63,1.61.44,2.64,1.76,4.34,5.56-2.57.23-4.78.44-6.99.65,8.86,1.42,18.89,3.77,24.83,10.66,4.75,2.6,9.52,5.21,14.27,7.8,1.06.59.65.92-.01,1.66-1.89,1.26-2.79,5.98-5.07,5.32-4.5-.87-9-1.75-13.54-2.51-3.01-.28-2.39-2.38-2.6-4.66-.19-.01-.4-.04-.59-.06,1.29,12.24-9.58,10.22-18.14,8.96-1.48,2.4-3.05,4.69-5.9,5.85,4.8.81,9.61,1.61,14.91,2.51-3.37,1.89-5.68,4.18-6.92,7.35,7.98-1.83,16-7.48,7.65,4.41l1.66.89c1.89-1.85,2.8-4.41,4.27-6.54,7.35-8.26,15.65,11.28,13.62,17.57-4.58,21.1-18.13,42.53-10.72,64.82,7.48,23.54,11.76,55.52,41.71,51.84,3.15-.18,4.96-4.14,2.14-6.22-7.52-2.9-17.13-.32-23.39-6.1-5.21-4.4-7.3-10.68-9.22-17.22-13.51-35.44-11.8-42.45-2.13-71.75,3.43-9.49,7.67-23.65,1.16-30.22-4.15-6.22-3.87-8.12,3.24-10.43,7.38-2.98,14.52,1.73,21.63,3.55,5.28,2.18,10.47-3.84,7.19-8.62-.15-.01-.21-.09-.21-.23-5.66-5.9-5.82,3.81-9.71,1.01-4.16-.48-8.89-.85-7.6-5.98-.4,1.38-.88,3.31-1.85,3.87-6.53.85-.4-9.93,2.07-5.34.5-1.42,2.32-2.82,1.72-4.37-.62-1-2.3-1.11-3.28-1.55-.98-.65-1.98-1.28-2.98-1.91,6.01-1.73,14.17-7.63,17.57-12.36M722.19,178.17c.72,4.27-4.74,5.26-4.74,1.1.16-4.11,4.12-5.32,4.74-1.1"/>
            <path class="cls-35" d="M768.6,142.57c-6.41-3.09-13.21-4.94-20.13-6.41-8.2,22.08-14.4,31.04-39.61,28.96-4,5.81-4.05,11.03,3.64,11.22.43.01.85.16,1.17.45,2.51,2.3,4.75-2.71,7.05-2.93,2.46.13,1.63,2.11,4.44,1.8,19.64.4,40.06-12.24,43.44-33.1"/>
            <path class="cls-49" d="M742.39,59.11c2.36,2.51,4.5,5.22,6.72,7.86-2.65.85-2.89,3.62-4.69,5.48-2.62-2.04-2.62-3.37-2.43-6.47-.6-1.5-1.69-3.02-2.21-4.62-17.57,2.17-21.63-10.37-22.82-.81-3.2,2.52-16.32-8.73-11.94-11.48,6.29-3.96,14.72,6.63,21.5,8.55,4.24,1.58,8.64,2.21,13.2,1,.82-.22,2.18-.06,2.7.48"/>
            <path class="cls-32" d="M728.61,84.51c.07-.06.13-.1.19-.16.18-.16.37-.32.59-.32.73.04,0,1.72-.23,2.01-1.03,1.32-2.48,1.69-3.87,1.33-1.17-.29-2.46-1.16-2.7-2.77-.04-.31-.03-.75.28-.65.23.07.62.75.84.94,1.39,1.25,3.53.75,4.91-.37"/>
            <path class="cls-35" d="M735.14,106.62c-.01.43.35,3.14.78,3.81.92,1.47,2.57,3.02,4.09,3.53,4.55,1.53,10.69-4.72,12.38-10.66.79-2.79-1.14-4.44-2.83-10.38-.56-1.98-6.89,7.55-11.28,8.83-.75.35-1.14.69-1.8,1.2-.04,1.01-1.23,2.13-1.23,2.13,0,0-.06.97-.09,1.54h-.01Z"/>
            <path class="cls-39" d="M725.4,314.61c-.26.6-.54,1.22-.81,1.82-.53,2.35-.51,4.28,1.55,5,2.04.16,5.18.13,7.21.1,3.46-.03,6.99.19,10.46.03,5.65-.26,11.2.04,16.86-.92,2.07-.19,4.74-.18,5.81-2.98-.29-1.77-.59-3.53-.88-5.29-1.06.51-2.07,1.29-3.2,1.51-4.4.88-8.86,1.53-13.26,2.38-6.64,1.28-13.27,1.51-19.88-.09-1.35-.32-2.6-1.03-3.89-1.55"/>
            <path class="cls-41" d="M733.13,50.77c.44-.38.48-1.06.1-1.5-3.48-4.02-7.87-5.07-11.53-5.1-2.08.92-4.08,1.86-6.29,3.08-.12.06-.22.12-.34.16.12,0,.23-.03.35-.07.4-.16,9.99-3.86,16.2,3.31.22.23.51.37.81.37.25,0,.5-.09.7-.26"/>
            <path class="cls-56" d="M673.91,129.81c0-4.82-2.89-8.97-7.01-10.75h0c-.37-.21-.75-.4-1.13-.54-2.02-.81-4.33-.92-6.41-.22-.81.28-1.58.69-2.29,1.2-1.73.92-3.2,2.3-4.25,3.96,3.34,2.14,6.85,4.05,10.47,5.69,2.84,1.31,5.84,2.46,8.97,2.62.48.01.98.01,1.48-.03.1-.62.16-1.28.16-1.94"/>
            <path class="cls-56" d="M737.23,137.29c-.23-3.31-2.43-6.86-7.61-10.06-5.1-2.87-11.1-.32-14.31,4.09.82,1.04,2.16,1.99,3.09,2.65,1.39.97,2.9,1.73,4.49,2.32,3.39,1.25,7.04,1.67,10.65,1.82,1.11.04,2.29.06,3.24-.5.16-.09.31-.21.45-.32"/>
            <rect class="cls-27" x="486.3" y="-69.14" width="499.06" height="499.06"/>
          </g>
        </g>
        <g>
          <polygon class="cls-30" points="850.05 214.5 833.89 200.42 848.1 185.53 853.02 190.23 843.73 199.97 854.52 209.37 850.05 214.5"/>
          <polygon class="cls-51" points="856.96 219.96 851.89 215.42 866.43 199.17 849.97 184.15 854.56 179.12 876 198.69 856.96 219.96"/>
        </g>
      </g>
    </g>
  </g>
</svg>